<?xml version="1.0" encoding="UTF-8"?>
<svg id="Layer_1" data-name="Layer 1" xmlns="http://www.w3.org/2000/svg" viewBox="0 0 2336.2 304.22">
  <defs>
    <style>
      .cls-1 {
        fill: #f99;
      }

      .cls-1, .cls-2, .cls-3, .cls-4 {
        stroke-width: 0px;
      }

      .cls-2 {
        fill: #fff;
      }

      .cls-3 {
        fill: #004c85;
      }

      .cls-4 {
        fill: #0cf;
      }
    </style>
  </defs>
  <g id="Layer0_0_FILL" data-name="Layer0 0 FILL">
    <path class="cls-3" d="M1066.57,92.96c-.77-1.8-1.52-3.3-2.25-4.5.23-2.53-.12-4.35-1.05-5.45-.8-1.1-1.98-1.7-3.55-1.8-1.5-.07-2.85.27-4.05,1-1.73,1.1-3.45,3.27-5.15,6.5-2.57,4.9-5.15,10.58-7.75,17.05-1.5,3.7-3.7,9.53-6.6,17.5-1.03,2.8-1.95,5.42-2.75,7.85-1.67.57-3.37,1.2-5.1,1.9-6.13,2.5-13.72,5.9-22.75,10.2-2.5,1.23-3.88,2.52-4.15,3.85-.47,1.53.07,3.03,1.6,4.5,2.43,2.17,6.38,2.8,11.85,1.9,3.13-.53,7.2-1.52,12.2-2.95-1.9,6.9-3.22,13.33-3.95,19.3-.8,7.03.38,11.78,3.55,14.25,1.67,1.27,3.63,1.77,5.9,1.5,2.23-.3,3.98-1.25,5.25-2.85.87-1.07,1.5-2.37,1.9-3.9.23-.83.5-2.32.8-4.45,1.33-9.23,3.55-19.3,6.65-30.2,8.3-2.57,14.45-4.38,18.45-5.45,1.07-.23,2.07-.45,3-.65l1.75,5.95c1.9,6.7,3.28,11.95,4.15,15.75,1.6,6.97,2.78,14.4,3.55,22.3.23,2.67.58,4.72,1.05,6.15.67,2.27,1.78,3.88,3.35,4.85,1.5,1,3.23,1.2,5.2.6,2-.57,3.38-1.68,4.15-3.35.7-1.43.82-3.83.35-7.2-1.87-12.8-4.32-25.17-7.35-37.1-1-3.93-2.07-7.83-3.2-11.7.73-.3,1.45-.58,2.15-.85,3.3-1.5,5.28-3.27,5.95-5.3.77-2.2.4-4.13-1.1-5.8-1.27-1.43-3.15-2.2-5.65-2.3-1.07-.07-2.93.13-5.6.6-3.23-9.6-6.83-18.83-10.8-27.7M1060.17,104.91c.03-.13.05-.22.05-.25.87,5.47,2.23,11.57,4.1,18.3-4.57.83-8.27,1.57-11.1,2.2,1.83-5.67,4.15-12.42,6.95-20.25M1008.57,46.76c.13-6.87-1.65-10.77-5.35-11.7-1.17-.27-2.35-.15-3.55.35-1.17.4-2.18,1.1-3.05,2.1-1.2,1.27-2.27,3.4-3.2,6.4-.8,2.7-1.48,6.18-2.05,10.45-10.9,1.03-19.67,2.1-26.3,3.2-5.9,1.03-14.62,3-26.15,5.9-4.83,1.2-7.77,3.02-8.8,5.45-.77,1.83-.57,3.73.6,5.7,1.03,1.9,2.53,3.25,4.5,4.05,2.7,1.07,6.73,1.18,12.1.35,16.9-2.37,30.75-4.07,41.55-5.1-1.93,14.67-3.93,30.73-6,48.2-2.53,21.23-4.08,37.77-4.65,49.6-.93,18.33-.38,34.83,1.65,49.5.67,4.93,2.02,8.27,4.05,10,1.6,1.33,3.53,1.92,5.8,1.75,2.23-.17,4.02-1.07,5.35-2.7,1.23-1.43,1.98-3.3,2.25-5.6.17-1.5.13-3.63-.1-6.4-1.43-21.13-.1-49.68,4-85.65,2.77-24.53,4.75-44.53,5.95-60,14.97-.63,28.65-.08,41.05,1.65,3.17.4,5.53.58,7.1.55,2.63-.07,4.77-.72,6.4-1.95,1.67-1.2,2.75-2.9,3.25-5.1.47-2.13.22-4.12-.75-5.95-1.67-3.07-5.45-5.28-11.35-6.65-8.53-1.9-18.22-2.83-29.05-2.8-4.23.07-9.37.3-15.4.7.1-2.3.15-4.4.15-6.3M1418.87,83.11c-4.6-3.6-10.17-5.25-16.7-4.95-5.47.17-11.08,1.78-16.85,4.85-6.93,3.7-11.07,8.13-12.4,13.3-.33,2.27-.65,3.98-.95,5.15-.1.5-.85,2.33-2.25,5.5-3,6.93-5.07,16-6.2,27.2-1,9.17-.92,17.1.25,23.8,1.57,8.77,4.95,15.83,10.15,21.2,2.87,2.93,6.18,5.15,9.95,6.65,3.9,1.57,7.75,2.12,11.55,1.65,4.47-.47,8.97-2.35,13.5-5.65,7-5.07,12.52-12.07,16.55-21,3.3-7.33,5.67-16.05,7.1-26.15.7-4.33,1.02-8.13.95-11.4-.07-2.97-.62-7.27-1.65-12.9-1.27-6.4-2.65-11.42-4.15-15.05-2.2-5.33-5.15-9.4-8.85-12.2M1403.07,94.41c2.63.13,4.68.95,6.15,2.45.87.8,1.7,2.18,2.5,4.15,1.03,2.6,1.9,5.28,2.6,8.05,1.53,6.23,1.93,12.72,1.2,19.45l-2.6,14.55c-1.73,6.73-4.35,12.85-7.85,18.35-2.27,3.47-4.47,5.85-6.6,7.15-1.43,1-2.97,1.62-4.6,1.85-1.77.27-3.38.08-4.85-.55-2.77-1.13-5.03-3.87-6.8-8.2-1.33-3.23-2.32-6.75-2.95-10.55-.53-2.93-.85-7.43-.95-13.5-.13-11.03.42-19.67,1.65-25.9.4-2.23.92-4.05,1.55-5.45,1.03-2.17,2.58-4.03,4.65-5.6,2.43-1.97,5.83-3.63,10.2-5,2.57-.83,4.8-1.25,6.7-1.25M1237.42,79.36c.13-2.53-.58-4.4-2.15-5.6-.97-.77-2.17-1.12-3.6-1.05-1.33,0-2.58.35-3.75,1.05-1.5.87-3.28,2.73-5.35,5.6-4.67,6.53-8.48,12.18-11.45,16.95-4.27,7.17-8.5,15.48-12.7,24.95-.57,1.27-1.17,2.68-1.8,4.25-.47.03-.93.08-1.4.15-3.47.57-5.88,1.47-7.25,2.7-1.27,1.1-2.02,2.53-2.25,4.3-.3,1.8.03,3.37,1,4.7.83,1.13,2.1,2.05,3.8,2.75-.83,2.2-1.75,4.53-2.75,7-2.87,7.17-4.62,12.88-5.25,17.15v.45c-.3-7.47-.6-14.8-.9-22-.57-12.97-1.23-23.12-2-30.45-1.2-10.5-2.92-19.9-5.15-28.2.17-1.17.3-2.3.4-3.4.37-3.23-.32-5.37-2.05-6.4-1.33-.8-2.82-.8-4.45,0-1.07.57-2.22,1.6-3.45,3.1-.87,1.17-2.25,3.3-4.15,6.4l-4.5,7.75c-2.87,4.67-5.12,8.75-6.75,12.25-1.1,2.2-2.17,4.72-3.2,7.55-2.37,6.4-4.07,12.53-5.1,18.4-2.37-5.63-5.25-12.67-8.65-21.1-4.97-12.4-8.48-21.05-10.55-25.95-.53-1.2-1.05-2.22-1.55-3.05-.53-1.83-1.43-3.1-2.7-3.8-1.17-.57-2.43-.62-3.8-.15-1.33.5-2.37,1.3-3.1,2.4-1.1,1.5-1.88,4.02-2.35,7.55-4.57,35.07-6.03,69.82-4.4,104.25.1,3.77.5,6.62,1.2,8.55,1.1,3.2,2.92,5.37,5.45,6.5,1.37.6,2.8.72,4.3.35,1.5-.33,2.67-1.08,3.5-2.25.87-1.2,1.3-3.18,1.3-5.95l1.2-76.85c4.9,14.03,9.83,26.75,14.8,38.15,1.37,3.13,2.63,5.27,3.8,6.4,2.13,2.2,4.38,3.02,6.75,2.45,1.2-.37,2.23-1.07,3.1-2.1.8-.97,1.35-2.08,1.65-3.35.47-1.97.32-4.52-.45-7.65-.03-.27-.08-.55-.15-.85l8.05-28.45c1.27-4.27,2.27-7.47,3-9.6.07-.13.93-1.98,2.6-5.55,0,1.17.03,2.38.1,3.65l1.75,64.35c.17,6.23.4,11.08.7,14.55.5,5.3,1.3,10.03,2.4,14.2.63,2.3,1.5,4.17,2.6,5.6,1.37,1.87,2.98,2.8,4.85,2.8,1.27,0,2.45-.47,3.55-1.4.97-.87,1.72-1.93,2.25-3.2.7-1.73.98-4.3.85-7.7-.17-10.8-.37-21.33-.6-31.6.17.77.4,1.43.7,2,.7,1.37,1.7,2.43,3,3.2,1.47.73,2.88.88,4.25.45,1.23-.37,2.3-1.18,3.2-2.45.6-.8,1.27-2.03,2-3.7l12.45-28.3c1.63-.07,3.48-.13,5.55-.2,1.6.07,4,.22,7.2.45,3.17.23,5.53.35,7.1.35.67,0,2.17-.03,4.5-.1l5.45,59.2c.27,2.53.55,4.38.85,5.55.47,2,1.18,3.67,2.15,5,1.17,1.57,2.73,2.6,4.7,3.1,2,.6,3.7.32,5.1-.85,2-1.5,2.83-4.67,2.5-9.5-1.57-20.77-3.65-41.57-6.25-62.4,1.1-.1,2.08-.3,2.95-.6,1.9-.63,3.4-1.9,4.5-3.8,1.03-1.9,1.27-3.8.7-5.7-.8-2.6-2.78-4.52-5.95-5.75-1-.33-2.48-.65-4.45-.95-2.17-15.5-4.65-31.02-7.45-46.55M1229.67,108.96c.4,5.27.85,10.57,1.35,15.9-5.4-.27-9.72-.43-12.95-.5h-2l.45-.95c2.87-6.33,4.97-10.68,6.3-13.05,1.4-2.53,3.5-6.08,6.3-10.65.07,2.7.25,5.78.55,9.25M1294.57,76.26c-2.97,1.2-6.17,3.33-9.6,6.4-9.2,8.03-16.18,18.1-20.95,30.2-4.67,11.77-6.72,23.97-6.15,36.6.3,5.07,1.02,9.22,2.15,12.45,1.17,3.37,2.93,6.43,5.3,9.2,2.37,2.77,5.07,5.02,8.1,6.75,6.3,3.63,13.13,4.98,20.5,4.05,5.1-.63,10.3-2.42,15.6-5.35,1.5-.83,3.05-1.78,4.65-2.85-.27,3.43-.52,6.43-.75,9-.8,7.47-1.38,13.08-1.75,16.85-.63,6.57-.92,12.22-.85,16.95,0,4.43.6,7.78,1.8,10.05.87,1.6,2.08,2.87,3.65,3.8,1.6.93,3.22,1.22,4.85.85,2.43-.57,4.25-2.27,5.45-5.1.57-1.33,1.05-3.83,1.45-7.5,1.27-15.63,2.12-26.4,2.55-32.3.8-12.03,1.32-22.82,1.55-32.35.17-7.27.18-18.08.05-32.45,3.77-1.97,6.92-3.5,9.45-4.6.87-.4,3.28-1.4,7.25-3,3-1.27,5.43-2.37,7.3-3.3,2.93-1.57,4.95-3.07,6.05-4.5,1.83-2.47,2.3-4.87,1.4-7.2-.53-1.13-1.38-2.08-2.55-2.85-1.07-.73-2.3-1.17-3.7-1.3-2.03-.17-4.6.27-7.7,1.3-4.8,1.57-12.22,4.87-22.25,9.9l-23,11.55c-4.03,1.97-7.35,3.68-9.95,5.15-2.67,1.43-5.58,3.15-8.75,5.15-3.23,2.1-5.08,4.15-5.55,6.15-.23,1.23-.05,2.42.55,3.55.57,1.17,1.37,2,2.4,2.5,1.8.87,4.4.78,7.8-.25,8.7-2.6,16.92-5.8,24.65-9.6.77-.33,1.75-.82,2.95-1.45-1.17,6.57-2.08,13.97-2.75,22.2-.13,1.7-.23,3.32-.3,4.85-.63.47-1.58,1.22-2.85,2.25-5.87,4.9-11.35,7.9-16.45,9-3.2.7-6.33.65-9.4-.15-3.3-.93-5.93-2.55-7.9-4.85-2.87-3.4-4.37-8.53-4.5-15.4-.17-9.53,1.4-18.88,4.7-28.05,3.27-9.17,8-17.35,14.2-24.55,3.97-4.67,7.8-7.15,11.5-7.45,1.5-.13,2.45-.42,2.85-.85.33-.43.45-1.28.35-2.55-.57-3.23-1.7-5.48-3.4-6.75-2.47-1.9-5.8-1.95-10-.15M235.32,4.76c-2.03-1.97-4.33-3.25-6.9-3.85-8.23-2.17-15.18.33-20.85,7.5-7.27,9.2-12.55,19.5-15.85,30.9-1.4,4.9-2.03,9.88-1.9,14.95.03,1.53-.12,2.75-.45,3.65-.27.63-.65,1.1-1.15,1.4-9.43.13-18.87.33-28.3.6-1.97.03-3.93.08-5.9.15-6.8.2-13.52.83-20.15,1.9-1.7.27-3.38.55-5.05.85-5.73,1.03-10.9,1.65-15.5,1.85,0-.23,0-.48,0-.75,0-5.5.08-11.03.25-16.6.3-11.5-2-22.4-6.9-32.7-3-6.3-7.7-10.85-14.1-13.65-1.77-.8-3.57-1.1-5.4-.9-10.37.37-18.15,5.28-23.35,14.75-.63,1.33-1.22,2.68-1.75,4.05-5.7,14.77-8.65,29.97-8.85,45.6,0,.7.03,1.38.1,2.05-.17.37-.3.75-.4,1.15-.13.5-.25,1.02-.35,1.55-.03.4-.1.8-.2,1.2-.03.17-.07.32-.1.45-.03.1-.07.2-.1.3-.07.2-.13.4-.2.6-.23.67-.42,1.35-.55,2.05-.2.97-.35,1.97-.45,3-.13,1.07-.2,2.15-.2,3.25,0,.07,0,.12,0,.15.07.7.1,1.4.1,2.1v2.1c-4.6,5.07-8.05,11.08-10.35,18.05-4.27,12.93-8.17,25.92-11.7,38.95-.4,1.53-1.2,2.82-2.4,3.85-6.37,5.57-12.38,11.28-18.05,17.15-.73,6.2,1.48,11.15,6.65,14.85,24.53,17.5,51.37,29.83,80.5,37,1.23.3,2.45.58,3.65.85l-10.05,25.7c-.37-.2-.72-.42-1.05-.65-6.9-4.17-13.93-8.33-21.1-12.5-3-1.7-6.07-3.25-9.2-4.65-2.1-.97-4.23-1.85-6.4-2.65-9.07-3.33-18.35-4.93-27.85-4.8-2.43.33-4.67,1.12-6.7,2.35-7.37,4.57-12.48,11.05-15.35,19.45-.27.8-.5,1.6-.7,2.4-1.43,5.8-.87,11.45,1.7,16.95,4.77,10.23,12.4,17.85,22.9,22.85,21.13,10.13,42.48,10.98,64.05,2.55,5.17-2.07,9.8-4.92,13.9-8.55,1.67-1.5,2.78-2.03,3.35-1.6.13.07.23.22.3.45.13,2.27.45,4.5.95,6.7.33,1.47.77,2.92,1.3,4.35,1.23,3.37,2.52,6.72,3.85,10.05,2.03,5.13,5.48,8.6,10.35,10.4,1.17.4,2.3.4,3.4,0,.4-.17.8-.38,1.2-.65,7.17-4.87,10.35-11.75,9.55-20.65l37.55-3.1c.2,1.03.3,2.03.3,3,.1,5.23,1.67,10.02,4.7,14.35,4.8,6.9,10.67,7.85,17.6,2.85,1.33-1,2.37-2.3,3.1-3.9.23-.53.48-1.07.75-1.6,3.07-7,4.97-14.4,5.7-22.2.23-2.5.75-3.97,1.55-4.4.6.53,1.23.98,1.9,1.35,1.57.9,3.3,1.28,5.2,1.15,2.33-.33,4.27-1.43,5.8-3.3,2.33-2.83,3.35-6.22,3.05-10.15-.13-2.1-.38-4.13-.75-6.1-.27-1.3-.57-2.58-.9-3.85-2.9-10.63-6.68-20.93-11.35-30.9,7.7-1.63,15.33-3.7,22.9-6.2,12.7-4.2,24.47-9.75,35.3-16.65,8.03-5.1,15.55-10.93,22.55-17.5,2.37-2.23,4.68-4.55,6.95-6.95,1.93-2.03,3.82-4.13,5.65-6.3l1.5-1.8c.07-1.53-.43-2.68-1.5-3.45-.37-.3-.8-.53-1.3-.7-1.4-.5-2.85-.93-4.35-1.3-1.53-.4-3.12-.72-4.75-.95-2.97-.53-5.3-2.05-7-4.55-2.5-3.77-4.85-7.62-7.05-11.55-3.77-6.67-7.12-13.6-10.05-20.8-.63-1.57-1.25-3.12-1.85-4.65-5.93-15.47-13.95-29.78-24.05-42.95,1.2-6.23,2.22-12.57,3.05-19,1.1-8.23.85-16.35-.75-24.35-1.7-8.4-5.6-15.53-11.7-21.4M263.12,123.06c2.3,5.43,4.58,10.88,6.85,16.35,1.07,2.57,2.13,5.13,3.2,7.7,3.5,8.5,9.5,14.18,18,17.05-6.47,6.3-13.53,11.78-21.2,16.45-.73.47-1.48.92-2.25,1.35-39.63,22.83-82.37,32.45-128.2,28.85-17.47-1.3-34.43-4.3-50.9-9-9.33-2.67-18.52-5.87-27.55-9.6-6.07-2.53-12.07-5.32-18-8.35-3.47-1.83-6.97-3.57-10.5-5.2-6.57-3-11.92-6.93-16.05-11.8-.67-.77-1.28-1.55-1.85-2.35.53-.13,1.05-.27,1.55-.4.47-.17.92-.33,1.35-.5,2.23-.83,4.38-1.78,6.45-2.85,7.43-3.8,12.3-9.65,14.6-17.55,2.73-9.43,5.22-18.9,7.45-28.4,3.33-14.2,10.38-25.95,21.15-35.25l43.35-6.35c.23-.07.48-.12.75-.15,26.67-3.63,53.37-4.85,80.1-3.65,1.87-.13,3.63-.13,5.3,0,12.9,1.9,25.7,4.08,38.4,6.55,1.9,1.7,3.8,3.35,5.7,4.95,2.83,2.5,5.08,5.38,6.75,8.65,5.57,10.97,10.75,22.13,15.55,33.5M182.02,220.21c8.03-.83,15.6-1.6,22.7-2.3.77,3,1.65,5.92,2.65,8.75.67,1.93,1.53,3.83,2.6,5.7,5.23,9.03,6.98,18.55,5.25,28.55-4.37-3.37-7.43-7.77-9.2-13.2-1.5-4.53-4.32-7.63-8.45-9.3l-2.45,1.4c-.6,1.03-.63,2.07-.1,3.1,2.2,4.2,3.55,8.57,4.05,13.1.9,7.87.33,15.6-1.7,23.2-.73,2.77-1.33,5.53-1.8,8.3-.7,4.27-2.9,6.47-6.6,6.6-3.07-3.47-4.58-7.73-4.55-12.8.03-6.23-2.65-9.1-8.05-8.6-.5-.27-1.02-.37-1.55-.3-14.9-1.93-29.65-.92-44.25,3.05l-5.3,18.45-3.15-.05c-.93-1.4-1.82-2.88-2.65-4.45-2.17-4.13-3.3-8.57-3.4-13.3-.23-9-.58-17.98-1.05-26.95-.13-2.47-1.35-4.1-3.65-4.9-3.93,1.33-6.42,4.3-7.45,8.9-.77,3.4-2.75,4.63-5.95,3.7-1.37-4.03-1.2-8.25.5-12.65,3.5-9.07,6.78-18.12,9.85-27.15l5.25.95c22.67,4.03,45.48,4.77,68.45,2.2M11.62,236.01c4.2-8.77,10.85-12.18,19.95-10.25l2.1.45c-.27.37-.53.75-.8,1.15-7.43,12.77-10.05,26.42-7.85,40.95-1.37-.9-2.72-1.8-4.05-2.7-4.9-3.4-8.33-7.88-10.3-13.45-1.9-5.47-1.58-10.85.95-16.15M45.42,249.76c2.87-5.9,4.88-12.03,6.05-18.4l17.3,8.25c-.73,1.5-1.38,3.02-1.95,4.55-4.1,10.7-5.93,21.97-5.5,33.8l-5.1-.1-15.1-3.7c-.03-4.33.25-8.67.85-13,.57-3.97,1.72-7.77,3.45-11.4M87.52,248.21c-.07.63-.15,1.28-.25,1.95-1.13,7.43,1.35,12.75,7.45,15.95l3.3.35-15.45,6.9c-.6-8.63.62-17.05,3.65-25.25l1.3.1M177.87,179.61c-.27.3-.65.78-1.15,1.45-1.43,1.77-3.22,3.15-5.35,4.15-2.17.97-4.38,1.42-6.65,1.35-2.27-.1-4.43-.72-6.5-1.85-2.07-1.17-3.73-2.7-5-4.6-.1-.13-.18-.27-.25-.4-.1-.67-.3-1.3-.6-1.9-.53-1.07-1.37-1.83-2.5-2.3-1.2-.47-2.28-.43-3.25.1-.8.47-1.52,1.37-2.15,2.7-.87,1.73-1.45,2.8-1.75,3.2-1.37,1.77-3.65,2.68-6.85,2.75-2.3.07-4.17-.3-5.6-1.1-.5-.3-1.1-.73-1.8-1.3-1-.83-1.58-1.32-1.75-1.45-1.47-1.1-2.87-1.52-4.2-1.25-.8.2-1.48.67-2.05,1.4-.53.67-.85,1.43-.95,2.3-.13,1.57.35,3.17,1.45,4.8,1.37,2.03,3.32,3.6,5.85,4.7,2.27,1.03,4.78,1.6,7.55,1.7,3.77.13,7.25-.62,10.45-2.25,1.97-1,3.6-2.22,4.9-3.65.2.3.42.58.65.85,1.23,1.33,3.08,2.55,5.55,3.65,3.2,1.37,6.03,2.13,8.5,2.3,2.6.13,5.48-.35,8.65-1.45,3.6-1.23,6.45-2.85,8.55-4.85,2.3-2.13,3.32-4.33,3.05-6.6-.17-1.3-.82-2.35-1.95-3.15-1.2-.83-2.35-.98-3.45-.45-.47.23-.93.62-1.4,1.15M206.77,96.81c-2.7.23-5.42.2-8.15-.1-16.27-2.17-32.55-2.4-48.85-.7-16.43,1.83-32.9,2.55-49.4,2.15-13.63-.33-25.85,3.52-36.65,11.55-2.9,2.2-5.03,4.98-6.4,8.35-5.07,12.6-4.5,25.13,1.7,37.6,1.47,2.97,3.57,5.37,6.3,7.2,12.23,8.17,25.93,11.45,41.1,9.85,2.17-.2,4.33-.65,6.5-1.35,13.57-4.4,27.5-6.52,41.8-6.35,3.83.4,7.63,1.13,11.4,2.2,10.07,2.97,20.23,5.55,30.5,7.75l25.35-3.4c6.47-.8,11.68-4.32,15.65-10.55s6.38-11.53,7.25-15.9c.87-4.4.75-9.27-.35-14.6-1.13-5.33-3.47-11.3-7-17.9-4.93-9.13-12.4-14.33-22.4-15.6-2.8-.4-5.58-.47-8.35-.2M190.22,134.61c0-4.73.83-8.78,2.5-12.15,1.67-3.37,3.67-5.05,6-5.05s4.33,1.68,6,5.05c1.67,3.37,2.5,7.42,2.5,12.15s-.83,8.78-2.5,12.15c-1.67,3.37-3.67,5.05-6,5.05s-4.33-1.68-6-5.05c-1.67-3.37-2.5-7.42-2.5-12.15M107.27,122.41c.7,8.73-.18,17.18-2.65,25.35-.57,1.9-1.85,3.1-3.85,3.6-5.9-.63-9.12-4.35-9.65-11.15-.7-8.87,1.55-16.57,6.75-23.1.4-.53.95-.9,1.65-1.1,4.73-.9,7.32,1.23,7.75,6.4M820.12,100.86c-7.67,7.67-13.28,18.7-16.85,33.1-4.17,17.43-3.93,32.85.7,46.25,1.7,5.07,4.03,9.38,7,12.95,3.4,4.17,7.28,7,11.65,8.5,3.77,1.33,7.6,1.58,11.5.75,5.6-1.1,11.23-4.47,16.9-10.1,8.83-8.83,16.5-21.65,23-38.45,1.9-4.67,3.28-8.75,4.15-12.25,2.9-11.37,2.45-21.73-1.35-31.1-2.03-4.93-4.98-9.22-8.85-12.85-3.97-3.83-8.47-6.4-13.5-7.7-5.87-1.57-11.98-1.25-18.35.95-6.03,2-11.37,5.32-16,9.95M818.07,157.71c-.13-2.43-.12-5.32.05-8.65.53-7,1.87-14.68,4-23.05.57-2.23,1.23-3.78,2-4.65.27-.3,1.27-1.12,3-2.45,1.57-1.13,3.62-3.18,6.15-6.15,2.13-2,4.45-3.5,6.95-4.5,2.77-1.07,5.42-1.38,7.95-.95,2.23.43,4.3,1.42,6.2,2.95,1.8,1.4,3.28,3.17,4.45,5.3,1.97,3.73,2.85,8.23,2.65,13.5-.17,4.6-1.2,9.58-3.1,14.95-1.4,3.7-3.5,8.4-6.3,14.1-4.17,8.2-7.68,14.08-10.55,17.65-1.73,2.2-3.55,4.17-5.45,5.9-2.1,1.83-3.87,2.82-5.3,2.95-2.07.23-3.95-.58-5.65-2.45-1.07-1.13-2.1-2.97-3.1-5.5-2.4-6.23-3.72-12.55-3.95-18.95M810.07,71.01c-3.33.43-8.17,1.35-14.5,2.75-2.67.57-5.18,1.15-7.55,1.75-.5-3.13-1.1-6.12-1.8-8.95-.47-1.9-1.17-3.13-2.1-3.7-.87-.53-1.85-.62-2.95-.25-1.1.4-1.93,1.07-2.5,2-.73,1.13-1.17,3.15-1.3,6.05-.1,2.4-.22,4.85-.35,7.35-3.97.9-7.4,1.7-10.3,2.4-10.53,2.67-19.97,5.42-28.3,8.25-2.97,1.03-5,2.22-6.1,3.55-1,1.2-1.47,2.67-1.4,4.4.1,1.73.7,3.17,1.8,4.3,2.03,2.1,5.58,2.85,10.65,2.25,7.03-.67,17.77-2.7,32.2-6.1-1.73,18.1-4.33,37.7-7.8,58.8-1.6,9.47-2.63,15.85-3.1,19.15-1,7.13-1.58,13.53-1.75,19.2-.1,3.87.3,6.9,1.2,9.1.63,1.5,1.6,2.73,2.9,3.7,1.3,1.03,2.68,1.55,4.15,1.55,1.37,0,2.72-.47,4.05-1.4,1.17-.83,2.12-1.95,2.85-3.35.93-1.73,1.63-4.58,2.1-8.55l6.55-54c1.87-16.27,2.9-28.78,3.1-37.55.07-3.47.07-6.85,0-10.15,13.5-3.1,24.32-4.88,32.45-5.35,2.67-.17,4.43-.33,5.3-.5,1.9-.37,3.45-1,4.65-1.9,1.97-1.5,2.98-3.65,3.05-6.45.07-2.7-.85-4.83-2.75-6.4-1.7-1.3-4.3-2.13-7.8-2.5-4.33-.4-9.22-.22-14.65.55M508.02,101.11c-3.57-.87-6.22-1.65-7.95-2.35-1.87-.93-3.25-1.62-4.15-2.05-1.67-.77-3.13-1.2-4.4-1.3-2.73-.3-5.95.9-9.65,3.6-7.2,5.2-13.52,11.83-18.95,19.9-5,7.47-9,15.8-12,25-4.43,13.47-5.45,25.53-3.05,36.2,1.33,6.27,3.77,11.43,7.3,15.5,4.27,4.9,9.22,7.6,14.85,8.1,7.03.77,14.57-2.32,22.6-9.25,10.9-9.4,19.82-21.97,26.75-37.7,5.13-11.83,7.23-22.17,6.3-31-.63-5.53-2.48-10.52-5.55-14.95-3.23-4.73-7.27-7.97-12.1-9.7M508.87,119.36c1.1,3.1,1.22,7.2.35,12.3-1.6,9.8-4.77,19.13-9.5,28-4.8,8.9-10.85,16.72-18.15,23.45-1.63,1.63-3.23,2.82-4.8,3.55-2.07.93-3.97,1.08-5.7.45-2.3-.8-4.05-2.93-5.25-6.4-1.07-2.7-1.72-5.35-1.95-7.95-.57-4.73-.13-10.38,1.3-16.95,2.97-14.6,8.05-26.47,15.25-35.6,2.77-3.5,6.78-7.7,12.05-12.6,1.7-1.63,3.02-2.62,3.95-2.95-.7,1.57-.18,3.1,1.55,4.6.53.43,1.27.88,2.2,1.35.5.3,1.27.68,2.3,1.15,3.13,1.73,5.27,4.27,6.4,7.6M502.72,74.46c.37-2.53-.08-4.82-1.35-6.85-2.1-3.33-5.6-5.32-10.5-5.95-2.8-.37-6.92-.03-12.35,1-19.4,3.6-36.57,7.15-51.5,10.65-.27-4.5-.67-8.77-1.2-12.8-.57-4.43-1.92-7.23-4.05-8.4-1.5-.8-3.15-.82-4.95-.05-1.73.67-3.08,1.78-4.05,3.35-1.33,2.03-2.12,5.42-2.35,10.15l-.7,12c-21.8,5.7-41.62,12.17-59.45,19.4-7.13,2.87-12.5,5.57-16.1,8.1-4.03,2.97-5.9,5.92-5.6,8.85.17,1.73,1.03,3.2,2.6,4.4,1.5,1.23,3.17,1.93,5,2.1,1.57.17,3.33-.02,5.3-.55,1.13-.27,2.87-.82,5.2-1.65,20.33-7.3,40.95-13.6,61.85-18.9l-.2,3.2c-2.13,37.9-3.22,66.37-3.25,85.4-.17,31.67,1.65,60.02,5.45,85.05.4,2.4.8,4.18,1.2,5.35.63,1.97,1.53,3.5,2.7,4.6,1.77,1.73,4.02,2.5,6.75,2.3,2.7-.1,4.8-1.13,6.3-3.1,1.27-1.67,2.02-3.8,2.25-6.4.1-1.8-.05-4.17-.45-7.1-4.9-38.47-6.22-80.2-3.95-125.2.43-9.17,1.12-23.02,2.05-41.55.07-2.4.13-4.78.2-7.15,10.83-2.43,21.73-4.6,32.7-6.5,10.5-1.73,18.92-2.85,25.25-3.35,3.47-.23,6-.53,7.6-.9,2.73-.63,4.9-1.73,6.5-3.3,1.73-1.67,2.77-3.73,3.1-6.2M587.02,105.86c.07-4.33-.95-8.67-3.05-13-1.9-3.9-4.52-7.58-7.85-11.05-6.87-7.03-14.6-11.18-23.2-12.45-4.5-.7-8.93-.45-13.3.75-4.5,1.23-8.37,3.35-11.6,6.35-1.9,1.67-3.35,3.5-4.35,5.5-.87,2.13-1.03,3.83-.5,5.1.5,1.17,1.45,1.98,2.85,2.45,1.33.33,2.67.33,4,0,1.03-.3,2.23-.85,3.6-1.65l3.4-2c.1-.03.23-.08.4-.15-.57,3.57-1.25,10-2.05,19.3l-2.7,31.9c-.47.63-.82,1.38-1.05,2.25-.43,1.67-.37,3.32.2,4.95.07.17.15.33.25.5l-3.55,41.1c-.73,9.4-1.2,16.27-1.4,20.6-.33,7.67-.18,14.53.45,20.6.37,3.07.97,5.48,1.8,7.25,1.4,2.77,3.33,4.27,5.8,4.5,1.57.2,3.1-.23,4.6-1.3,1.33-.97,2.37-2.25,3.1-3.85.87-1.97,1.37-5.2,1.5-9.7.17-13.57.8-28.05,1.9-43.45l1.65-22.5c.07-.93.15-1.88.25-2.85,17.6,34.6,34.15,68,49.65,100.2,1.07,2.07,1.97,3.65,2.7,4.75,1.2,1.63,2.53,2.77,4,3.4,2,.9,4.1.83,6.3-.2,2.23-1.03,3.65-2.62,4.25-4.75.47-1.67.38-3.55-.25-5.65-.43-1.37-1.25-3.18-2.45-5.45l-43-80.9c-4.03-7.67-7.63-14.18-10.8-19.55,5.6-3.23,11.1-8.13,16.5-14.7,7.9-9.4,11.88-18.17,11.95-26.3M549.72,83.36c4.4.33,8.58,1.68,12.55,4.05,5.9,3.53,9.33,7.95,10.3,13.25.8,4.4-.3,8.97-3.3,13.7-1.97,3.03-5.22,6.52-9.75,10.45-2.77,2.47-5.08,4.28-6.95,5.45-1.1.7-2.18,1.28-3.25,1.75.57-15.7.67-31.25.3-46.65,0-.7-.02-1.37-.05-2,.03,0,.08,0,.15,0M637.27,87.26c-3.1-3.17-6.58-5.42-10.45-6.75-4.5-1.67-9.15-1.93-13.95-.8-2.77.7-5.22,1.88-7.35,3.55-2.23,1.8-3.85,3.93-4.85,6.4-.03.2-.55,2-1.55,5.4-.33,1.27-1.02,3.1-2.05,5.5-7.23,18-9.28,39.82-6.15,65.45.87,7.33,2.28,12.98,4.25,16.95,1.33,2.77,3.03,5.17,5.1,7.2,2.23,2.13,4.72,3.6,7.45,4.4,5,1.43,10.1.68,15.3-2.25,3.87-2.27,7.67-5.87,11.4-10.8,5.97-8.03,10.23-17.42,12.8-28.15,2.37-9.8,3.27-20.22,2.7-31.25-.5-9.97-2.28-18.15-5.35-24.55-1.9-4-4.33-7.43-7.3-10.3M619.72,95.81c2.27.47,4.38,1.68,6.35,3.65,3.33,3.47,5.48,9.12,6.45,16.95,2.2,17.03.38,31.48-5.45,43.35l-6.4,11.5c-1.73,3.07-3.37,5.18-4.9,6.35-1.17.8-2.18,1.08-3.05.85-1.27-.3-2.25-1.52-2.95-3.65-1.5-4.73-2.62-10.1-3.35-16.1-.47-4.27-.82-9.73-1.05-16.4l-.25-7.9c0-10.97.98-21.63,2.95-32,.33-1.73.77-2.95,1.3-3.65.8-1.03,2.12-1.83,3.95-2.4,2.3-.77,4.43-.95,6.4-.55M720.97,50.76c-.93-.4-1.95-.4-3.05,0-1.03.33-1.9.93-2.6,1.8-.97,1.1-1.73,3.03-2.3,5.8-1.17,5.67-1.83,12.27-2,19.8-.07,3.13.05,9.8.35,20,.4,16.97.25,37.27-.45,60.9-.27,7.4-.5,14.3-.7,20.7-2.4-6.33-4.98-13.23-7.75-20.7-9.3-25.03-16.8-43.75-22.5-56.15-1.33-2.77-2.4-4.82-3.2-6.15-1.33-2.17-2.78-3.9-4.35-5.2-1.17-.97-2.38-1.6-3.65-1.9-.63-.17-1.23-.18-1.8-.05-.23-.13-.47-.23-.7-.3-1.37-.27-2.68.15-3.95,1.25-1.1.97-1.95,2.23-2.55,3.8-.97,2.43-1.57,6.03-1.8,10.8-.47,12.23-.93,21.4-1.4,27.5-.63,9-2.18,20.78-4.65,35.35-1.43,8.77-2.27,15.08-2.5,18.95-.37,6.5,1.07,10.85,4.3,13.05,2.03,1.37,4.35,1.65,6.95.85,2.53-.73,4.35-2.23,5.45-4.5.57-1.13.97-2.57,1.2-4.3.07-.63.12-2.17.15-4.6.07-2.2.33-5.55.8-10.05.57-5.47,1.6-13.72,3.1-24.75,1.17-9.73,1.63-18,1.4-24.8,0-1.23-.03-2.52-.1-3.85,5.27,15.93,9.53,28.63,12.8,38.1,8.03,23.37,15.65,44.25,22.85,62.65.13.33.28.68.45,1.05-.07,5,.05,8.95.35,11.85.33,3.8,1.17,6.77,2.5,8.9.87,1.37,1.97,2.47,3.3,3.3,1.43.87,2.9,1.23,4.4,1.1,1.5-.17,2.92-.83,4.25-2,1.13-1.1,2.02-2.42,2.65-3.95.77-2.03,1.15-5.22,1.15-9.55,0-1.13,0-2.33,0-3.6.63-1.47.95-3.03.95-4.7s-.28-3.35-.85-5.25c.17-19,.6-44.25,1.3-75.75.23-34.77-1.25-64.38-4.45-88.85-.43-3.7-1.55-5.88-3.35-6.55M1485.97,123.41c-3.07,2.53-5.63,5.6-7.7,9.2-3.77,6.33-6,13.92-6.7,22.75-.47,4.93-.23,9.45.7,13.55,1.03,4.8,3.12,8.75,6.25,11.85,2.63,2.6,6,4.45,10.1,5.55,3.63.93,7.5,1.2,11.6.8,7.03-.63,13.62-2.92,19.75-6.85,2.3-1.5,4.05-3.08,5.25-4.75,1.5-2.3,1.97-4.58,1.4-6.85-.47-1.6-1.45-2.87-2.95-3.8-1.6-.97-3.22-1.25-4.85-.85-.93.23-2.63,1.12-5.1,2.65-4.03,2.43-8.53,3.82-13.5,4.15-2.47.23-4.52.1-6.15-.4-2.2-.7-3.75-1.95-4.65-3.75-.53-1.1-.8-2.85-.8-5.25,0-5.3.43-9.52,1.3-12.65.57-1.8,1.27-3.65,2.1-5.55,1.03-2.4,1.95-4.12,2.75-5.15,1.27-1.63,3.03-3.03,5.3-4.2,2.3-1.37,4.92-2.52,7.85-3.45,1.57-.47,2.72-.9,3.45-1.3,1.23-.67,2.02-1.5,2.35-2.5.47-1.27.27-2.7-.6-4.3-1.6-2.77-4.12-4.5-7.55-5.2-2.87-.63-5.97-.43-9.3.6-3.7,1.1-7.13,3-10.3,5.7M1621.02,83.11c-2.67.33-4.45,1.02-5.35,2.05-.7.7-1.12,1.57-1.25,2.6-.1,1,.05,1.95.45,2.85.7,1.67,2.05,3,4.05,4,1.4.7,3.28,1.25,5.65,1.65,3.87.67,7.35,1.15,10.45,1.45l.45.1c-.53,2.93-1.02,6.37-1.45,10.3l-6.5,52.75c-1.23,10.87-1.93,18.48-2.1,22.85-3.8-.47-6.93-.75-9.4-.85-2.73-.1-4.82.25-6.25,1.05-1.17.63-2.03,1.62-2.6,2.95-.63,1.37-.75,2.68-.35,3.95.7,2.3,3.07,4.3,7.1,6,8.13,3.43,16.23,5.57,24.3,6.4,3.07.27,6.53.47,10.4.6l6.4.25c3.57.1,6.2-.1,7.9-.6,3.03-.93,4.95-2.62,5.75-5.05.47-1.37.42-2.83-.15-4.4-.53-1.5-1.4-2.77-2.6-3.8-1.8-1.67-4.6-2.88-8.4-3.65-2.47-.43-5.58-.75-9.35-.95-2.4-.1-4.45-.18-6.15-.25.13-.73.23-1.52.3-2.35l4.75-45.65c.97-8.97,1.53-15.87,1.7-20.7.2-6.7-.08-12.75-.85-18.15l7.6.35c1.97.1,3.47.12,4.5.05,1.7-.03,3.15-.27,4.35-.7,1.5-.5,2.8-1.27,3.9-2.3,1.1-1.17,1.77-2.43,2-3.8.17-1.8-.27-3.37-1.3-4.7-1-1.2-2.88-2.27-5.65-3.2-6.17-1.8-13.17-2.7-21-2.7-5.6,0-12.7.53-21.3,1.6M1598.07,72.71c-.57-2.53-1.48-4.08-2.75-4.65-.8-.3-1.63-.28-2.5.05-.87.37-1.57.88-2.1,1.55-.7,1-1.27,2.65-1.7,4.95-.87,5.53-1.6,13.93-2.2,25.2l-.65,14.25c-1.3.4-2.75.83-4.35,1.3-3.87,1.17-6.67,2.07-8.4,2.7-1.97.73-4.7,1.97-8.2,3.7-3.7,1.8-6.45,3.05-8.25,3.75-.27.1-.52.18-.75.25-.47-18.37-1.52-35.68-3.15-51.95-.33-3.43-1.37-5.53-3.1-6.3-1.2-.5-2.47-.32-3.8.55-1.17.67-2.12,1.7-2.85,3.1-1.03,1.97-1.75,4.33-2.15,7.1-.23,1.73-.38,4.22-.45,7.45-.33,19.3-.6,34.87-.8,46.7-2.7,1.43-4.08,3.02-4.15,4.75-.03,1,.28,1.9.95,2.7.7.73,1.55,1.25,2.55,1.55.17.07.33.12.5.15-.1,3.2-.18,6-.25,8.4-.7,24.07-1.68,45.47-2.95,64.2-.47,5.67-.12,9.83,1.05,12.5.9,2,2.28,3.58,4.15,4.75,2,1.2,3.95,1.48,5.85.85,2.33-.63,4.07-2.42,5.2-5.35.7-1.8,1.12-4.33,1.25-7.6,1.77-28.47,2.53-55.13,2.3-80,4.5-.97,8.75-2.08,12.75-3.35,2.8-.87,6.98-2.28,12.55-4.25,1.27-.47,2.5-.92,3.7-1.35l-2.4,49.05c-.53,12.33-.77,20.75-.7,25.25.1,4.8.78,8.28,2.05,10.45,1,1.63,2.33,2.88,4,3.75,1.77.87,3.47.98,5.1.35,1.83-.63,3.18-2.1,4.05-4.4.63-1.63,1.1-3.83,1.4-6.6,2.43-28.13,3.55-56.83,3.35-86.1.37-.4.68-.77.95-1.1,1.23-1.7,1.67-3.52,1.3-5.45-.33-1.7-1.13-3-2.4-3.9-.17-6.53-.43-12.13-.8-16.8-.63-8.13-1.7-15.52-3.2-22.15M1475.37,53.06c-.57-3.4-1.85-5.37-3.85-5.9-1.57-.27-2.95.4-4.15,2-1,1.33-1.7,3.02-2.1,5.05-.53,2.63-1.12,5.95-1.75,9.95-4.5-.23-9.2-.33-14.1-.3-6.63,0-12.17.18-16.6.55-4.17.23-7.45.8-9.85,1.7-2.37.93-3.78,2.23-4.25,3.9-.4,1.8.27,3.42,2,4.85,1.1.8,2.8,1.5,5.1,2.1,3.33.8,7.28,1.4,11.85,1.8,1.17.13,5.15.37,11.95.7,3.87.17,7.67.4,11.4.7l-18.1,121.45c-1.83,12-2.9,21.03-3.2,27.1-.1,4.4.37,7.63,1.4,9.7.77,1.5,1.9,2.65,3.4,3.45,1.6.87,3.15,1.05,4.65.55,2.7-.93,4.48-4.03,5.35-9.3,5.73-33.03,9.83-57.95,12.3-74.75,4.17-27.67,7.17-52.7,9-75.1.07-.57.13-1.15.2-1.75,7.27.77,14.35,1.73,21.25,2.9,2.73.5,4.97.67,6.7.5,2.57-.3,4.4-1.4,5.5-3.3.77-1.33.92-2.85.45-4.55-.4-1.57-1.23-2.93-2.5-4.1-1.57-1.43-4.45-2.73-8.65-3.9-7.8-1.9-15.17-3.22-22.1-3.95-.17-4.4-.6-8.42-1.3-12.05M1886.32,150.91c-1.03-1.23-2.33-2.13-3.9-2.7-1.57-.57-3.15-.72-4.75-.45-1.63.23-3.72,1.08-6.25,2.55-4.1,2.13-7.5,4.07-10.2,5.8-2.77,1.77-7.22,5.17-13.35,10.2-3.57,2.87-6.9,5.67-10,8.4-.2-5.9-.23-12.63-.1-20.2.1-5.87.3-14.72.6-26.55.33-21.23-.33-41.85-2-61.85-.23-3.13-1.03-5.13-2.4-6-1-.57-2.13-.65-3.4-.25-1.2.37-2.23,1.03-3.1,2-1.2,1.37-2.1,3.15-2.7,5.35-.33,1.5-.62,3.58-.85,6.25-.8,11-1.58,29.33-2.35,55l-.5,17.5c-.17,8.93-.23,15.4-.2,19.4.2,7.2.73,13.63,1.6,19.3.23,1.67.55,3.13.95,4.4-.23.33-.43.65-.6.95-1.57,2.77-1.95,5.45-1.15,8.05.47,1.33,1.25,2.45,2.35,3.35,1.2.93,2.47,1.37,3.8,1.3,1.1-.03,2.68-.67,4.75-1.9,3.93-2.53,8.58-5.97,13.95-10.3,3-2.4,7.47-6.03,13.4-10.9,6.97-5.53,14.15-10.52,21.55-14.95,1.57-1,2.6-1.7,3.1-2.1,1.1-.87,1.93-1.75,2.5-2.65.83-1.4,1.15-2.93.95-4.6-.1-1.67-.67-3.13-1.7-4.4M1952.17,56.51c-6.3-3.63-13.03-5.8-20.2-6.5h-.15c-.63-1.17-1.43-1.87-2.4-2.1-1.7-.33-3.12.33-4.25,2-.13.13-.22.28-.25.45-2.57.7-4.42,2.08-5.55,4.15-.53,1.1-.72,2.28-.55,3.55.13,1.27.63,2.3,1.5,3.1.57.53,1.28.93,2.15,1.2-.47,3.7-.87,7.68-1.2,11.95-.3,3.13-.73,9.77-1.3,19.9-1.63,28.63-3.57,56.27-5.8,82.9-.57,5.67-.25,9.85.95,12.55.93,2.03,2.38,3.62,4.35,4.75,1.13.63,2.25.98,3.35,1.05-2.23,1.97-3.22,4.45-2.95,7.45.13,1.33.53,2.63,1.2,3.9.77,1.2,1.73,2.17,2.9,2.9,2.13,1.47,4.8,2.08,8,1.85,6.93-.4,14.23-4.12,21.9-11.15,8.73-7.87,15.12-16.42,19.15-25.65,4.6-10.77,5.87-21.23,3.8-31.4-1.17-5.53-3.57-11.5-7.2-17.9-2.13-3.77-4.27-6.57-6.4-8.4-2.7-2.37-6.15-4.03-10.35-5,5.63-6.63,9.55-12.47,11.75-17.5,1.73-4.03,2.73-8.03,3-12,.23-4.4-.42-8.42-1.95-12.05-2.43-5.47-6.93-10.13-13.5-14M1943.92,67.81c4.67,2.2,7.55,4.87,8.65,8,1.4,3.57.43,8.12-2.9,13.65-3.47,5.67-8.28,11.38-14.45,17.15.2-13,.02-25.62-.55-37.85-.07-1.53-.12-2.97-.15-4.3,3.17.73,6.3,1.85,9.4,3.35M1932.62,155.46c.97-13.07,1.57-21.97,1.8-26.7,0-.3.03-.6.1-.9.1-.03.23-.05.4-.05.93-.07,2.3-.18,4.1-.35,5.4-.3,9.63.73,12.7,3.1,1.57,1.27,3.03,3.23,4.4,5.9,2.13,4.13,3.38,8.53,3.75,13.2.4,4.8-.18,9.37-1.75,13.7-.7,2.13-1.88,4.63-3.55,7.5-6.17,10.5-13.6,17.32-22.3,20.45-1.47.47-2.65.87-3.55,1.2.57-.87,1.05-1.85,1.45-2.95.47-1.33.75-3.78.85-7.35.23-6.57.77-15.48,1.6-26.75M1867.17,55.81c-1.5-1.1-3.08-1.28-4.75-.55-2.13.87-3.68,3.35-4.65,7.45-1,4.67-1.58,8.68-1.75,12.05-.07,2.2-.07,4.38,0,6.55.17,4.73.45,8.92.85,12.55.63,7.23,1.77,12.95,3.4,17.15,2.3,6.1,5.85,10.6,10.65,13.5,4.2,2.43,8.32,3.07,12.35,1.9,3.23-.87,6.42-3.18,9.55-6.95,3.03-3.73,5.73-8.55,8.1-14.45,5.5-13.6,7.4-27.75,5.7-42.45-.63-5.5-1.83-9.83-3.6-13-1.97-3.5-4.28-5.05-6.95-4.65-2.13.23-3.68,1.65-4.65,4.25-.47,1.37-.7,3.52-.7,6.45,0,4.7-.15,9.87-.45,15.5-.8,12.7-2.75,23.25-5.85,31.65-.93,2.73-2.07,5.33-3.4,7.8-.4.8-.8,1.3-1.2,1.5-.77.27-1.6,0-2.5-.8-1.1-.93-2.05-2.58-2.85-4.95-1.47-4.37-2.6-10.82-3.4-19.35-.97-9.17-1.37-16.35-1.2-21.55.07-2.43-.02-4.2-.25-5.3-.37-1.97-1.18-3.4-2.45-4.3M1802.02,54.61c-1.03-1.47-2.47-2.57-4.3-3.3-1.73-.7-3.58-.98-5.55-.85-3.13.2-6.6,1.43-10.4,3.7-8.23,4.9-15.9,12.88-23,23.95-12.1,19-19.02,40.12-20.75,63.35-.93,12.57.18,23.15,3.35,31.75,1.67,4.63,3.95,8.62,6.85,11.95,3.17,3.73,6.8,6.35,10.9,7.85,6.47,2.33,13.27,1.93,20.4-1.2,5.67-2.37,11.23-6.48,16.7-12.35,8.37-8.93,15.47-20.53,21.3-34.8,1.43-3.47,2.15-6.3,2.15-8.5-.03-1.5-.4-2.9-1.1-4.2-.7-1.4-1.68-2.42-2.95-3.05-1.27-.57-2.65-.72-4.15-.45-1.43.3-2.77.92-4,1.85-1.73,1.33-3.48,3.58-5.25,6.75-4.73,8.53-8.43,14.82-11.1,18.85-4.5,6.97-9.17,12.37-14,16.2-2.37,1.83-4.7,3.07-7,3.7-2.77.7-5.12.35-7.05-1.05-1.5-1.1-2.82-3.28-3.95-6.55-5.3-17.03-3.83-36.88,4.4-59.55,6.87-18.63,16.02-32.07,27.45-40.3,1.83-1.4,3.35-2.18,4.55-2.35.7-.1,1.77-.22,3.2-.35,2.2-.4,3.68-1.9,4.45-4.5.67-2.47.28-4.65-1.15-6.55M2095.12,28.06c-2.63,2.53-4.93,5.83-6.9,9.9-1.37,2.83-2.83,6.65-4.4,11.45-1.27,4.03-2.03,7.25-2.3,9.65-.23,2.17-.18,4.87.15,8.1.5,5.33.75,8.02.75,8.05.03.77.07,2.7.1,5.8,0,2.37.07,4.28.2,5.75.3,2.77,1.12,6.48,2.45,11.15.87,3.33,1.72,5.95,2.55,7.85,1.1,2.7,2.57,4.12,4.4,4.25-5.2,13.67-8.97,27.75-11.3,42.25-.27,1.7-.52,3.42-.75,5.15-.37-.13-.73-.25-1.1-.35-1.17-.3-2.58-.47-4.25-.5h-4.3c-3.73-.07-6.3.05-7.7.35-2.6.57-5.32,2-8.15,4.3-4.93,4.07-7.93,8.63-9,13.7-.3,1.37-.48,3.22-.55,5.55-.07,5.37.8,9.68,2.6,12.95.47.87,1.3,2.1,2.5,3.7,2.87,3.6,5.85,6.37,8.95,8.3,3.07,1.9,6.5,3.15,10.3,3.75,1.63.27,3.27.42,4.9.45,1.73,0,3.47-.15,5.2-.45.07.47.15.95.25,1.45.43,2.23.98,4.47,1.65,6.7.07.2.13.4.2.6-.17-.1-.33-.18-.5-.25-.87-.33-2.42-.5-4.65-.5-3.77,0-9.58-.58-17.45-1.75-4.8-.73-8.87-1.22-12.2-1.45-2.03-.13-3.8-.18-5.3-.15-6.7.13-13.5,1.53-20.4,4.2-6.27,2.43-12.4,5.82-18.4,10.15-3.6,2.53-6.37,5.07-8.3,7.6-.4.5-.77,1.02-1.1,1.55-1.27,1.97-2.1,4.02-2.5,6.15-.47,2.3-.38,4.47.25,6.5.6,1.9,1.72,3.77,3.35,5.6.87.93,1.9,1.87,3.1,2.8,8.23,6.5,19.67,9.78,34.3,9.85,4.93,0,9.8-.32,14.6-.95,10.97-1.43,21.52-4.53,31.65-9.3,2.03-.97,4.6-2.28,7.7-3.95,1.13-.6,2.35-1.27,3.65-2l-1.2,2c-2.17,3.67-3.55,6.62-4.15,8.85-.6,2.1-.9,5-.9,8.7-.07,2.47-.02,4.47.15,6,.23,2.17.75,4.05,1.55,5.65,1.23,2.53,3.28,4.82,6.15,6.85,3.9,2.83,8.25,4.58,13.05,5.25h9.45c3.67-.43,6.8-1.4,9.4-2.9,3.57-1.93,6.63-5,9.2-9.2,1.87-3.03,3.67-7.03,5.4-12,.5-1.47.8-2.72.9-3.75.07-.5.08-.95.05-1.35-.03-.57-.15-1.1-.35-1.6.3.1.6.2.9.3,8.67,2.47,18.87,3.38,30.6,2.75,3.73-.2,10.95-.87,21.65-2,9.03-.93,16.25-1.42,21.65-1.45,1.27,0,2.83.02,4.7.05-.37.67-.67,1.42-.9,2.25-1.33,4.4-1.68,8.98-1.05,13.75.67,4.7,2.22,9.03,4.65,13,1.8,2.97,3.95,5.4,6.45,7.3,2.77,2.1,5.68,3.32,8.75,3.65,1.37.17,2.78.15,4.25-.05,2.63-.4,5.42-1.4,8.35-3,1.37-.77,2.75-1.67,4.15-2.7,7.33-5.3,12.55-11.6,15.65-18.9,1.67-3.9,2.6-7.92,2.8-12.05.23-4.3-.37-8.35-1.8-12.15-.27-.7-.53-1.33-.8-1.9,8.63-5.07,15.18-11.08,19.65-18.05,3.57-5.6,6.03-12.18,7.4-19.75.77-4.23,1.17-8.67,1.2-13.3v-.6c.97,0,1.98-.02,3.05-.05h.1c1.23.03,3.1.07,5.6.1.67,0,1.3,0,1.9,0,1.37-.07,2.58-.18,3.65-.35,3.93-.53,7.67-1.95,11.2-4.25,3.4-2.2,6.28-4.98,8.65-8.35.93-1.37,1.98-3.18,3.15-5.45,2.17-4.53,2.97-8.43,2.4-11.7-.3-1.9-1.1-3.88-2.4-5.95-3.93-6.5-10.37-11.68-19.3-15.55-2.17-.93-4.18-1.63-6.05-2.1-2.7-.63-5.67-.83-8.9-.6-.8.07-1.62.15-2.45.25-2.93.4-6.53,1.22-10.8,2.45-3.07-9.83-6.07-18.03-9-24.6-4.7-10.53-10.18-19.4-16.45-26.6-2.8-3.17-5.55-5.85-8.25-8.05.33-.8.6-1.77.8-2.9,1.87-9,3.15-15.8,3.85-20.4,1.17-7.6,1.73-14.47,1.7-20.6,0-10.33-1.82-18.75-5.45-25.25-2.63-4.73-5.88-7.88-9.75-9.45-2-.8-4.13-1.13-6.4-1-2.23.13-4.33.7-6.3,1.7-1.87.9-3.75,2.25-5.65,4.05-1.13,1.07-2.72,2.77-4.75,5.1l-3.35,3.85c-1.67,1.93-2.88,3.4-3.65,4.4-3.63,4.73-6.68,10.65-9.15,17.75-2.87,8-4.75,16.28-5.65,24.85-2.03-.2-4.25-.33-6.65-.4-9-.13-17.92.85-26.75,2.95-.07.03-3.97,1.08-11.7,3.15-4.67,1.23-8.6,2.03-11.8,2.4-.37.03-.7.07-1,.1-.03-.2-.07-.4-.1-.6l-1.35-7.85c-1.37-7.83-2.47-13.67-3.3-17.5-1.4-6.47-2.95-12.22-4.65-17.25-2.13-6.23-4.62-10.83-7.45-13.8-1.9-2-4.08-3.48-6.55-4.45-2.67-1.03-5.23-1.27-7.7-.7-1.87.4-4.37,1.63-7.5,3.7-3.27,2.2-5.62,3.98-7.05,5.35M2099.37,106.56h.9c1.1-.07,2.28-.3,3.55-.7,1.1-.37,2.57-.97,4.4-1.8,6.8-3.1,10.75-4.88,11.85-5.35,4.5-1.97,8.53-3.53,12.1-4.7,2.43-.77,4.08-1.47,4.95-2.1,1.13-.8,1.88-1.7,2.25-2.7,1.17.4,2.43.62,3.8.65,2,.07,4.9-.4,8.7-1.4,9.6-2.37,18.32-3.97,26.15-4.8,8.93-.97,17.3-1.03,25.1-.2.23.53.55,1.05.95,1.55.33.47.72.92,1.15,1.35,2.73,2.7,6.8,4.65,12.2,5.85,3.73.83,7.98,1.35,12.75,1.55,2.87.13,7.17.17,12.9.1.3,0-.53-.25-2.5-.75,4.03.9,6.08,1.4,6.15,1.5,9.23,12.43,16.97,25.82,23.2,40.15,3.2,7.3,5.93,14.73,8.2,22.3.1.37.22.75.35,1.15,2.03,6.87,3.68,13.83,4.95,20.9.83,4.6,1.5,11.95,2,22.05-.23,14.17-3.98,25.47-11.25,33.9-4.07,4.73-9.3,8.58-15.7,11.55-5.63,2.63-11.98,4.52-19.05,5.65-5.23.83-11.8,1.38-19.7,1.65-8.83.2-15.45.42-19.85.65-2.37.13-7.52.92-15.45,2.35-7.93,1.4-18.3,1.47-31.1.2-12.8-1.3-22.72-4.02-29.75-8.15-3.67-1.37-7.1-3.02-10.3-4.95-5.33-3.27-9.77-7.17-13.3-11.7-4.87-6.3-8.23-14.13-10.1-23.5-1.47-7.33-2.05-16.08-1.75-26.25.6-19.83,3.45-39.23,8.55-58.2,1.33-5.03,2.17-8.67,2.5-10.9.27-2.07.37-3.98.3-5.75-.03-.4-.07-.78-.1-1.15M2018.57,229.76c1.1-.57,2.2-1.1,3.3-1.6-1.03,3.67-1.5,7.42-1.4,11.25.07,4.13.77,8.1,2.1,11.9.97,2.83,2.18,5.05,3.65,6.65-.67-.07-1.33-.13-2-.2-7.47-.77-13.58-2.45-18.35-5.05-2.87-1.57-4.62-3.32-5.25-5.25-.17-.4-.27-.82-.3-1.25-.3-2.77,1.63-5.63,5.8-8.6.17-.13.33-.25.5-.35,4.43-3.17,8.42-5.67,11.95-7.5M2078.97,166.66c-.93,10.1-1.15,20.23-.65,30.4.03.9.08,1.78.15,2.65-2.73.3-5.38.18-7.95-.35-3.2-.63-6-1.85-8.4-3.65-3.4-2.57-5.67-5.83-6.8-9.8-.27-.97-.47-1.93-.6-2.9-.07-.77-.1-1.52-.1-2.25.07-3.37,1-6.3,2.8-8.8.7-.97,1.47-1.8,2.3-2.5,1.53-1.27,3.3-2.12,5.3-2.55.9-.2,2.27-.33,4.1-.4,4.13-.1,7.42-.05,9.85.15M2050.07,230.41c-.57-2.57-1.35-4.6-2.35-6.1,1.5.1,3.08.23,4.75.4,7.73.83,13.45,1.35,17.15,1.55-.3,1.03-.28,2.55.05,4.55,1.07,5.83,3.05,11.3,5.95,16.4.1.17.2.33.3.5-6.13,3.2-12.65,5.7-19.55,7.5-.93.23-1.85.47-2.75.7-.07-1.07-.28-2.48-.65-4.25-.47-2.3-.95-5.83-1.45-10.6-.47-4.73-.95-8.28-1.45-10.65M2100.07,252.61c.87-1.77,1.52-3.23,1.95-4.4,2.43,1.87,5.03,3.53,7.8,5,4.9,2.63,9.98,4.4,15.25,5.3.67.5,1.43.98,2.3,1.45,1.67.93,3.42,1.78,5.25,2.55-.53.3-1.02.7-1.45,1.2-.77.87-1.52,2.33-2.25,4.4-1.7,4.67-3.32,8.25-4.85,10.75-1.33,2.17-2.73,3.73-4.2,4.7-1.3.87-2.9,1.45-4.8,1.75-1.4.23-3.15.33-5.25.3-3.5-.07-6.18-.37-8.05-.9-2.97-.87-5.18-2.35-6.65-4.45-1.3-1.87-1.98-4.38-2.05-7.55,0-2.7.37-5.3,1.1-7.8.57-1.83,1.45-3.92,2.65-6.25.7-1.37,1.78-3.38,3.25-6.05M2325.67,172.71c.43,2.03-.22,4.53-1.95,7.5-3.17,5.37-6.82,8.73-10.95,10.1-1.73.57-4.28.88-7.65.95-2.23.03-4.15.07-5.75.1-1.3.03-2.4.07-3.3.1h-.3c-.2-2.03-.47-4.12-.8-6.25-1.1-7.1-3.12-15.73-6.05-25.9,1.83-.27,3.95-.58,6.35-.95,1.43-.17,2.8-.27,4.1-.3,3-.13,5.6.05,7.8.55,4.43,1.07,9.23,3.87,14.4,8.4,2.37,2.03,3.73,3.93,4.1,5.7M2250.22,286.86c-1.9,1.87-3.55,3.32-4.95,4.35-1.97,1.4-3.92,2.33-5.85,2.8-1.47.33-2.72.33-3.75,0-.77-.23-1.67-.8-2.7-1.7-2.83-2.53-4.97-5.65-6.4-9.35-1.43-3.7-1.93-7.43-1.5-11.2.2-1.4.33-2.45.4-3.15.13-1.27.12-2.32-.05-3.15-.07-.37-.17-.72-.3-1.05h.65c5.1.1,9.38-.07,12.85-.5,6.1-.73,12.7-2.63,19.8-5.7.3.53.67,1.13,1.1,1.8,1.8,3.7,1.5,8.58-.9,14.65-.9,2.27-1.85,4.2-2.85,5.8-1.1,1.67-2.95,3.8-5.55,6.4M2190.07,198.86c0-.77-.07-1.48-.2-2.15-.2-.97-.62-1.8-1.25-2.5-.67-.77-1.43-1.27-2.3-1.5-1.1-.27-2.23-.05-3.4.65-1.03.6-1.88,1.45-2.55,2.55-.47.83-.92,1.95-1.35,3.35-.23.77-.58,1.92-1.05,3.45-.9,2.6-2.3,4.75-4.2,6.45-2.1,1.9-4.35,2.75-6.75,2.55-3.5-.27-6.83-2.93-10-8-1.37-2.2-2.55-3.65-3.55-4.35-.77-.57-1.63-.88-2.6-.95-1.03-.1-1.9.13-2.6.7-.83.67-1.28,1.65-1.35,2.95-.03,1.03.17,2.18.6,3.45.97,2.8,2.42,5.38,4.35,7.75,1.9,2.33,4.13,4.32,6.7,5.95,2.83,1.8,5.52,2.77,8.05,2.9,2.63.13,5.48-.6,8.55-2.2,3.43-1.83,6.42-4.3,8.95-7.4.13-.17.27-.33.4-.5.77,1.2,1.67,2.43,2.7,3.7,4,4.97,8.13,7.72,12.4,8.25,2.63.33,5.27-.15,7.9-1.45,2.5-1.23,4.63-2.98,6.4-5.25,2.8-3.63,4.77-8.72,5.9-15.25.4-2.4.43-4.27.1-5.6-.23-.93-.67-1.75-1.3-2.45-.67-.77-1.45-1.23-2.35-1.4-1.13-.23-2.25.05-3.35.85-1.03.7-1.8,1.65-2.3,2.85-.4.9-.73,2.08-1,3.55-.13.8-.33,2-.6,3.6-.67,2.8-1.88,5.32-3.65,7.55-1.23,1.47-2.45,2.27-3.65,2.4-1.27.17-2.73-.48-4.4-1.95-2.93-2.6-4.95-5.53-6.05-8.8-.43-1.57-.83-2.82-1.2-3.75M2109.72,134.31c-3.3,3.93-5.78,8.27-7.45,13-1.57,4.5-2.27,9.12-2.1,13.85.17,4.9,1.25,9.42,3.25,13.55,2.03,4.3,4.93,7.95,8.7,10.95,3.87,3.03,8.1,4.92,12.7,5.65,4.83.8,10.55.28,17.15-1.55,3.77-1.07,9.42-2.9,16.95-5.5,10.2-2.97,20.63-3.9,31.3-2.8,3.47.37,8.87,1.3,16.2,2.8,7.03,1.4,12.43,2.27,16.2,2.6,6.03.5,11.53.13,16.5-1.1,5.8-1.4,10.53-3.9,14.2-7.5,3.43-3.33,5.85-7.5,7.25-12.5,1.37-4.73,1.68-9.63.95-14.7-1.27-8.73-5.43-17.5-12.5-26.3-3.63-4.57-7.23-7.85-10.8-9.85-2.2-1.23-4.78-2.2-7.75-2.9-2.17-.53-4.9-1-8.2-1.4-24.63-2.9-52.55-.27-83.75,7.9-3.67.97-6.62,1.83-8.85,2.6-3.2,1.07-6.02,2.28-8.45,3.65-4.37,2.43-8.2,5.62-11.5,9.55M2217.57,141.76c1.97-1.43,4.07-1.92,6.3-1.45,1.13.27,2.18.83,3.15,1.7.93.8,1.67,1.77,2.2,2.9.93,1.93,1.33,4.3,1.2,7.1-.23,3.53-1.15,6.38-2.75,8.55-.93,1.27-2.07,2.27-3.4,3-1.43.77-2.88,1.12-4.35,1.05-1.83-.1-3.52-.82-5.05-2.15-1.47-1.3-2.47-2.87-3-4.7-1.03-3.4-.53-7.05,1.5-10.95,1.17-2.27,2.57-3.95,4.2-5.05M2133.57,142.66c1.27-.57,2.65-.62,4.15-.15,1.4.47,2.6,1.27,3.6,2.4,1.53,1.83,2.55,4.5,3.05,8,.6,3.8.48,7.07-.35,9.8-.47,1.63-1.22,3.1-2.25,4.4-1.13,1.37-2.43,2.33-3.9,2.9-1.57.63-3.18.75-4.85.35-1.77-.43-3.1-1.32-4-2.65-.67-.97-1.12-2.27-1.35-3.9-.13-1.87-.23-3.27-.3-4.2-.2-1.6-.33-2.8-.4-3.6-.1-1.43-.05-2.63.15-3.6.23-1.17.97-2.82,2.2-4.95,1.43-2.57,2.85-4.17,4.25-4.8Z"/>
    <path class="cls-4" d="M87.27,250.16c.1-.67.18-1.32.25-1.95l-1.3-.1c-3.03,8.2-4.25,16.62-3.65,25.25l15.45-6.9-3.3-.35c-6.1-3.2-8.58-8.52-7.45-15.95M51.47,231.36c-1.17,6.37-3.18,12.5-6.05,18.4-1.73,3.63-2.88,7.43-3.45,11.4-.6,4.33-.88,8.67-.85,13l15.1,3.7,5.1.1c-.43-11.83,1.4-23.1,5.5-33.8.57-1.53,1.22-3.05,1.95-4.55l-17.3-8.25M31.57,225.76c-9.1-1.93-15.75,1.48-19.95,10.25-2.53,5.3-2.85,10.68-.95,16.15,1.97,5.57,5.4,10.05,10.3,13.45,1.33.9,2.68,1.8,4.05,2.7-2.2-14.53.42-28.18,7.85-40.95.27-.4.53-.78.8-1.15l-2.1-.45M204.72,217.91c-7.1.7-14.67,1.47-22.7,2.3-22.97,2.57-45.78,1.83-68.45-2.2l-5.25-.95c-3.07,9.03-6.35,18.08-9.85,27.15-1.7,4.4-1.87,8.62-.5,12.65,3.2.93,5.18-.3,5.95-3.7,1.03-4.6,3.52-7.57,7.45-8.9,2.3.8,3.52,2.43,3.65,4.9.47,8.97.82,17.95,1.05,26.95.1,4.73,1.23,9.17,3.4,13.3.83,1.57,1.72,3.05,2.65,4.45l3.15.05,5.3-18.45c14.6-3.97,29.35-4.98,44.25-3.05.53-.07,1.05.03,1.55.3,5.4-.5,8.08,2.37,8.05,8.6-.03,5.07,1.48,9.33,4.55,12.8,3.7-.13,5.9-2.33,6.6-6.6.47-2.77,1.07-5.53,1.8-8.3,2.03-7.6,2.6-15.33,1.7-23.2-.5-4.53-1.85-8.9-4.05-13.1-.53-1.03-.5-2.07.1-3.1l2.45-1.4c4.13,1.67,6.95,4.77,8.45,9.3,1.77,5.43,4.83,9.83,9.2,13.2,1.73-10-.02-19.52-5.25-28.55-1.07-1.87-1.93-3.77-2.6-5.7-1-2.83-1.88-5.75-2.65-8.75M269.97,139.41c-2.27-5.47-4.55-10.92-6.85-16.35-4.8-11.37-9.98-22.53-15.55-33.5-1.67-3.27-3.92-6.15-6.75-8.65-1.9-1.6-3.8-3.25-5.7-4.95-12.7-2.47-25.5-4.65-38.4-6.55-1.67-.13-3.43-.13-5.3,0-26.73-1.2-53.43.02-80.1,3.65-.27.03-.52.08-.75.15l-43.35,6.35c-10.77,9.3-17.82,21.05-21.15,35.25-2.23,9.5-4.72,18.97-7.45,28.4-2.3,7.9-7.17,13.75-14.6,17.55-2.07,1.07-4.22,2.02-6.45,2.85-.43.17-.88.33-1.35.5-.5.13-1.02.27-1.55.4.57.8,1.18,1.58,1.85,2.35,4.13,4.87,9.48,8.8,16.05,11.8,3.53,1.63,7.03,3.37,10.5,5.2,5.93,3.03,11.93,5.82,18,8.35,9.03,3.73,18.22,6.93,27.55,9.6,16.47,4.7,33.43,7.7,50.9,9,45.83,3.6,88.57-6.02,128.2-28.85.77-.43,1.52-.88,2.25-1.35,7.67-4.67,14.73-10.15,21.2-16.45-8.5-2.87-14.5-8.55-18-17.05-1.07-2.57-2.13-5.13-3.2-7.7M198.62,96.71c2.73.3,5.45.33,8.15.1,2.77-.27,5.55-.2,8.35.2,10,1.27,17.47,6.47,22.4,15.6,3.53,6.6,5.87,12.57,7,17.9,1.1,5.33,1.22,10.2.35,14.6-.87,4.37-3.28,9.67-7.25,15.9s-9.18,9.75-15.65,10.55l-25.35,3.4c-10.27-2.2-20.43-4.78-30.5-7.75-3.77-1.07-7.57-1.8-11.4-2.2-14.3-.17-28.23,1.95-41.8,6.35-2.17.7-4.33,1.15-6.5,1.35-15.17,1.6-28.87-1.68-41.1-9.85-2.73-1.83-4.83-4.23-6.3-7.2-6.2-12.47-6.77-25-1.7-37.6,1.37-3.37,3.5-6.15,6.4-8.35,10.8-8.03,23.02-11.88,36.65-11.55,16.5.4,32.97-.32,49.4-2.15,16.3-1.7,32.58-1.47,48.85.7M176.72,181.06c.5-.67.88-1.15,1.15-1.45.47-.53.93-.92,1.4-1.15,1.1-.53,2.25-.38,3.45.45,1.13.8,1.78,1.85,1.95,3.15.27,2.27-.75,4.47-3.05,6.6-2.1,2-4.95,3.62-8.55,4.85-3.17,1.1-6.05,1.58-8.65,1.45-2.47-.17-5.3-.93-8.5-2.3-2.47-1.1-4.32-2.32-5.55-3.65-.23-.27-.45-.55-.65-.85-1.3,1.43-2.93,2.65-4.9,3.65-3.2,1.63-6.68,2.38-10.45,2.25-2.77-.1-5.28-.67-7.55-1.7-2.53-1.1-4.48-2.67-5.85-4.7-1.1-1.63-1.58-3.23-1.45-4.8.1-.87.42-1.63.95-2.3.57-.73,1.25-1.2,2.05-1.4,1.33-.27,2.73.15,4.2,1.25.17.13.75.62,1.75,1.45.7.57,1.3,1,1.8,1.3,1.43.8,3.3,1.17,5.6,1.1,3.2-.07,5.48-.98,6.85-2.75.3-.4.88-1.47,1.75-3.2.63-1.33,1.35-2.23,2.15-2.7.97-.53,2.05-.57,3.25-.1,1.13.47,1.97,1.23,2.5,2.3.3.6.5,1.23.6,1.9.07.13.15.27.25.4,1.27,1.9,2.93,3.43,5,4.6,2.07,1.13,4.23,1.75,6.5,1.85,2.27.07,4.48-.38,6.65-1.35,2.13-1,3.92-2.38,5.35-4.15Z"/>
    <path class="cls-2" d="M104.62,147.76c2.47-8.17,3.35-16.62,2.65-25.35-.43-5.17-3.02-7.3-7.75-6.4-.7.2-1.25.57-1.65,1.1-5.2,6.53-7.45,14.23-6.75,23.1.53,6.8,3.75,10.52,9.65,11.15,2-.5,3.28-1.7,3.85-3.6M192.72,122.46c-1.67,3.37-2.5,7.42-2.5,12.15s.83,8.78,2.5,12.15c1.67,3.37,3.67,5.05,6,5.05s4.33-1.68,6-5.05c1.67-3.37,2.5-7.42,2.5-12.15s-.83-8.78-2.5-12.15c-1.67-3.37-3.67-5.05-6-5.05s-4.33,1.68-6,5.05M2137.72,142.51c-1.5-.47-2.88-.42-4.15.15-1.4.63-2.82,2.23-4.25,4.8-1.23,2.13-1.97,3.78-2.2,4.95-.2.97-.25,2.17-.15,3.6.07.8.2,2,.4,3.6.07.93.17,2.33.3,4.2.23,1.63.68,2.93,1.35,3.9.9,1.33,2.23,2.22,4,2.65,1.67.4,3.28.28,4.85-.35,1.47-.57,2.77-1.53,3.9-2.9,1.03-1.3,1.78-2.77,2.25-4.4.83-2.73.95-6,.35-9.8-.5-3.5-1.52-6.17-3.05-8-1-1.13-2.2-1.93-3.6-2.4M2223.87,140.31c-2.23-.47-4.33.02-6.3,1.45-1.63,1.1-3.03,2.78-4.2,5.05-2.03,3.9-2.53,7.55-1.5,10.95.53,1.83,1.53,3.4,3,4.7,1.53,1.33,3.22,2.05,5.05,2.15,1.47.07,2.92-.28,4.35-1.05,1.33-.73,2.47-1.73,3.4-3,1.6-2.17,2.52-5.02,2.75-8.55.13-2.8-.27-5.17-1.2-7.1-.53-1.13-1.27-2.1-2.2-2.9-.97-.87-2.02-1.43-3.15-1.7Z"/>
    <path class="cls-1" d="M2245.27,291.21c1.4-1.03,3.05-2.48,4.95-4.35,2.6-2.6,4.45-4.73,5.55-6.4,1-1.6,1.95-3.53,2.85-5.8,2.4-6.07,2.7-10.95.9-14.65-.43-.67-.8-1.27-1.1-1.8-7.1,3.07-13.7,4.97-19.8,5.7-3.47.43-7.75.6-12.85.5h-.65c.13.33.23.68.3,1.05.17.83.18,1.88.05,3.15-.07.7-.2,1.75-.4,3.15-.43,3.77.07,7.5,1.5,11.2,1.43,3.7,3.57,6.82,6.4,9.35,1.03.9,1.93,1.47,2.7,1.7,1.03.33,2.28.33,3.75,0,1.93-.47,3.88-1.4,5.85-2.8M2323.72,180.21c1.73-2.97,2.38-5.47,1.95-7.5-.37-1.77-1.73-3.67-4.1-5.7-5.17-4.53-9.97-7.33-14.4-8.4-2.2-.5-4.8-.68-7.8-.55-1.3.03-2.67.13-4.1.3-2.4.37-4.52.68-6.35.95,2.93,10.17,4.95,18.8,6.05,25.9.33,2.13.6,4.22.8,6.25h.3c.9-.03,2-.07,3.3-.1,1.6-.03,3.52-.07,5.75-.1,3.37-.07,5.92-.38,7.65-.95,4.13-1.37,7.78-4.73,10.95-10.1M2102.02,248.21c-.43,1.17-1.08,2.63-1.95,4.4-1.47,2.67-2.55,4.68-3.25,6.05-1.2,2.33-2.08,4.42-2.65,6.25-.73,2.5-1.1,5.1-1.1,7.8.07,3.17.75,5.68,2.05,7.55,1.47,2.1,3.68,3.58,6.65,4.45,1.87.53,4.55.83,8.05.9,2.1.03,3.85-.07,5.25-.3,1.9-.3,3.5-.88,4.8-1.75,1.47-.97,2.87-2.53,4.2-4.7,1.53-2.5,3.15-6.08,4.85-10.75.73-2.07,1.48-3.53,2.25-4.4.43-.5.92-.9,1.45-1.2-1.83-.77-3.58-1.62-5.25-2.55-.87-.47-1.63-.95-2.3-1.45-5.27-.9-10.35-2.67-15.25-5.3-2.77-1.47-5.37-3.13-7.8-5M2047.72,224.31c1,1.5,1.78,3.53,2.35,6.1.5,2.37.98,5.92,1.45,10.65.5,4.77.98,8.3,1.45,10.6.37,1.77.58,3.18.65,4.25.9-.23,1.82-.47,2.75-.7,6.9-1.8,13.42-4.3,19.55-7.5-.1-.17-.2-.33-.3-.5-2.9-5.1-4.88-10.57-5.95-16.4-.33-2-.35-3.52-.05-4.55-3.7-.2-9.42-.72-17.15-1.55-1.67-.17-3.25-.3-4.75-.4M2078.32,197.06c-.5-10.17-.28-20.3.65-30.4-2.43-.2-5.72-.25-9.85-.15-1.83.07-3.2.2-4.1.4-2,.43-3.77,1.28-5.3,2.55-.83.7-1.6,1.53-2.3,2.5-1.8,2.5-2.73,5.43-2.8,8.8,0,.73.03,1.48.1,2.25.13.97.33,1.93.6,2.9,1.13,3.97,3.4,7.23,6.8,9.8,2.4,1.8,5.2,3.02,8.4,3.65,2.57.53,5.22.65,7.95.35-.07-.87-.12-1.75-.15-2.65M2021.87,228.16c-1.1.5-2.2,1.03-3.3,1.6-3.53,1.83-7.52,4.33-11.95,7.5-.17.1-.33.22-.5.35-4.17,2.97-6.1,5.83-5.8,8.6.03.43.13.85.3,1.25.63,1.93,2.38,3.68,5.25,5.25,4.77,2.6,10.88,4.28,18.35,5.05.67.07,1.33.13,2,.2-1.47-1.6-2.68-3.82-3.65-6.65-1.33-3.8-2.03-7.77-2.1-11.9-.1-3.83.37-7.58,1.4-11.25M2103.82,105.86c-1.27.4-2.45.63-3.55.7-.3.37-.57.75-.8,1.15.07,1.77-.03,3.68-.3,5.75-.33,2.23-1.17,5.87-2.5,10.9-5.1,18.97-7.95,38.37-8.55,58.2-.3,10.17.28,18.92,1.75,26.25,1.87,9.37,5.23,17.2,10.1,23.5,3.53,4.53,7.97,8.43,13.3,11.7,3.2,1.93,6.63,3.58,10.3,4.95,7.03,4.13,16.95,6.85,29.75,8.15,12.8,1.27,23.17,1.2,31.1-.2,7.93-1.43,13.08-2.22,15.45-2.35,4.4-.23,11.02-.45,19.85-.65,7.9-.27,14.47-.82,19.7-1.65,7.07-1.13,13.42-3.02,19.05-5.65,6.4-2.97,11.63-6.82,15.7-11.55,7.27-8.43,11.02-19.73,11.25-33.9-.5-10.1-1.17-17.45-2-22.05-1.27-7.07-2.92-14.03-4.95-20.9-.13-.4-.25-.78-.35-1.15-2.27-7.57-5-15-8.2-22.3-6.23-14.33-13.97-27.72-23.2-40.15-.07-.1-2.12-.6-6.15-1.5,1.97.5,2.8.75,2.5.75-5.73.07-10.03.03-12.9-.1-4.77-.2-9.02-.72-12.75-1.55-5.4-1.2-9.47-3.15-12.2-5.85-.43-.43-.82-.88-1.15-1.35-.4-.5-.72-1.02-.95-1.55-7.8-.83-16.17-.77-25.1.2-7.83.83-16.55,2.43-26.15,4.8-3.8,1-6.7,1.47-8.7,1.4-1.37-.03-2.63-.25-3.8-.65-.37,1-1.12,1.9-2.25,2.7-.87.63-2.52,1.33-4.95,2.1-3.57,1.17-7.6,2.73-12.1,4.7-1.1.47-5.05,2.25-11.85,5.35-1.83.83-3.3,1.43-4.4,1.8M2102.27,147.31c1.67-4.73,4.15-9.07,7.45-13,3.3-3.93,7.13-7.12,11.5-9.55,2.43-1.37,5.25-2.58,8.45-3.65,2.23-.77,5.18-1.63,8.85-2.6,31.2-8.17,59.12-10.8,83.75-7.9,3.3.4,6.03.87,8.2,1.4,2.97.7,5.55,1.67,7.75,2.9,3.57,2,7.17,5.28,10.8,9.85,7.07,8.8,11.23,17.57,12.5,26.3.73,5.07.42,9.97-.95,14.7-1.4,5-3.82,9.17-7.25,12.5-3.67,3.6-8.4,6.1-14.2,7.5-4.97,1.23-10.47,1.6-16.5,1.1-3.77-.33-9.17-1.2-16.2-2.6-7.33-1.5-12.73-2.43-16.2-2.8-10.67-1.1-21.1-.17-31.3,2.8-7.53,2.6-13.18,4.43-16.95,5.5-6.6,1.83-12.32,2.35-17.15,1.55-4.6-.73-8.83-2.62-12.7-5.65-3.77-3-6.67-6.65-8.7-10.95-2-4.13-3.08-8.65-3.25-13.55-.17-4.73.53-9.35,2.1-13.85M2189.87,196.71c.13.67.2,1.38.2,2.15.37.93.77,2.18,1.2,3.75,1.1,3.27,3.12,6.2,6.05,8.8,1.67,1.47,3.13,2.12,4.4,1.95,1.2-.13,2.42-.93,3.65-2.4,1.77-2.23,2.98-4.75,3.65-7.55.27-1.6.47-2.8.6-3.6.27-1.47.6-2.65,1-3.55.5-1.2,1.27-2.15,2.3-2.85,1.1-.8,2.22-1.08,3.35-.85.9.17,1.68.63,2.35,1.4.63.7,1.07,1.52,1.3,2.45.33,1.33.3,3.2-.1,5.6-1.13,6.53-3.1,11.62-5.9,15.25-1.77,2.27-3.9,4.02-6.4,5.25-2.63,1.3-5.27,1.78-7.9,1.45-4.27-.53-8.4-3.28-12.4-8.25-1.03-1.27-1.93-2.5-2.7-3.7-.13.17-.27.33-.4.5-2.53,3.1-5.52,5.57-8.95,7.4-3.07,1.6-5.92,2.33-8.55,2.2-2.53-.13-5.22-1.1-8.05-2.9-2.57-1.63-4.8-3.62-6.7-5.95-1.93-2.37-3.38-4.95-4.35-7.75-.43-1.27-.63-2.42-.6-3.45.07-1.3.52-2.28,1.35-2.95.7-.57,1.57-.8,2.6-.7.97.07,1.83.38,2.6.95,1,.7,2.18,2.15,3.55,4.35,3.17,5.07,6.5,7.73,10,8,2.4.2,4.65-.65,6.75-2.55,1.9-1.7,3.3-3.85,4.2-6.45.47-1.53.82-2.68,1.05-3.45.43-1.4.88-2.52,1.35-3.35.67-1.1,1.52-1.95,2.55-2.55,1.17-.7,2.3-.92,3.4-.65.87.23,1.63.73,2.3,1.5.63.7,1.05,1.53,1.25,2.5Z"/>
  </g>
</svg>