<?xml version="1.0" encoding="UTF-8"?>
<svg id="Layer_1" data-name="Layer 1" xmlns="http://www.w3.org/2000/svg" viewBox="0 0 1673.3 328.52">
  <defs>
    <style>
      .cls-1 {
        fill: #f99;
      }

      .cls-1, .cls-2, .cls-3, .cls-4 {
        stroke-width: 0px;
      }

      .cls-2 {
        fill: #fff;
      }

      .cls-3 {
        fill: #004c85;
      }

      .cls-4 {
        fill: #0cf;
      }
    </style>
  </defs>
  <g id="Layer0_0_FILL" data-name="Layer0 0 FILL">
    <path class="cls-3" d="M305.97,162.06c.17-.27.3-.52.4-.75-1.57,1.73-2.32,2.58-2.25,2.55.77-.43,1.38-1.03,1.85-1.8M247.77,50.51c1.1-8.23.85-16.35-.75-24.35-1.7-8.4-5.6-15.53-11.7-21.4-2.03-1.97-4.33-3.25-6.9-3.85-8.23-2.17-15.18.33-20.85,7.5-7.27,9.2-12.55,19.5-15.85,30.9-1.4,4.9-2.03,9.88-1.9,14.95.03,1.53-.12,2.75-.45,3.65-.27.63-.65,1.1-1.15,1.4-9.43.13-18.87.33-28.3.6-1.97.03-3.93.08-5.9.15-6.8.2-13.52.83-20.15,1.9-1.7.27-3.38.55-5.05.85-5.73,1.03-10.9,1.65-15.5,1.85v-.75c0-5.5.08-11.03.25-16.6.3-11.5-2-22.4-6.9-32.7-3-6.3-7.7-10.85-14.1-13.65-1.77-.8-3.57-1.1-5.4-.9-10.37.37-18.15,5.28-23.35,14.75-.63,1.33-1.22,2.68-1.75,4.05-5.7,14.77-8.65,29.97-8.85,45.6,0,.7.03,1.38.1,2.05-.17.37-.3.75-.4,1.15-.13.5-.25,1.02-.35,1.55-.03.4-.1.8-.2,1.2-.03.17-.07.32-.1.45-.03.1-.07.2-.1.3-.07.2-.13.4-.2.6-.23.67-.42,1.35-.55,2.05-.2.97-.35,1.97-.45,3-.13,1.07-.2,2.15-.2,3.25v.15c.07.7.1,1.4.1,2.1,0,.7,0,1.4,0,2.1-4.6,5.07-8.05,11.08-10.35,18.05-4.27,12.93-8.17,25.92-11.7,38.95-.4,1.53-1.2,2.82-2.4,3.85-6.37,5.57-12.38,11.28-18.05,17.15-.73,6.2,1.48,11.15,6.65,14.85,24.53,17.5,51.37,29.83,80.5,37,1.23.3,2.45.58,3.65.85l-10.05,25.7c-.37-.2-.72-.42-1.05-.65-6.9-4.17-13.93-8.33-21.1-12.5-3-1.7-6.07-3.25-9.2-4.65-2.1-.97-4.23-1.85-6.4-2.65-9.07-3.33-18.35-4.93-27.85-4.8-2.43.33-4.67,1.12-6.7,2.35-7.37,4.57-12.48,11.05-15.35,19.45-.27.8-.5,1.6-.7,2.4-1.43,5.8-.87,11.45,1.7,16.95,4.77,10.23,12.4,17.85,22.9,22.85,21.13,10.13,42.48,10.98,64.05,2.55,5.17-2.07,9.8-4.92,13.9-8.55,1.67-1.5,2.78-2.03,3.35-1.6.13.07.23.22.3.45.13,2.27.45,4.5.95,6.7.33,1.47.77,2.92,1.3,4.35,1.23,3.37,2.52,6.72,3.85,10.05,2.03,5.13,5.48,8.6,10.35,10.4,1.17.4,2.3.4,3.4,0,.4-.17.8-.38,1.2-.65,7.17-4.87,10.35-11.75,9.55-20.65l37.55-3.1c.2,1.03.3,2.03.3,3,.1,5.23,1.67,10.02,4.7,14.35,4.8,6.9,10.67,7.85,17.6,2.85,1.33-1,2.37-2.3,3.1-3.9.23-.53.48-1.07.75-1.6,3.07-7,4.97-14.4,5.7-22.2.23-2.5.75-3.97,1.55-4.4.6.53,1.23.98,1.9,1.35,1.57.9,3.3,1.28,5.2,1.15,2.33-.33,4.27-1.43,5.8-3.3,2.33-2.83,3.35-6.22,3.05-10.15-.13-2.1-.38-4.13-.75-6.1-.27-1.3-.57-2.58-.9-3.85-2.9-10.63-6.68-20.93-11.35-30.9,7.7-1.63,15.33-3.7,22.9-6.2,22.07-7.3,41.35-18.68,57.85-34.15,2.37-2.23,4.68-4.55,6.95-6.95,2.47-2.6,4.85-5.3,7.15-8.1.1-2.07-.83-3.45-2.8-4.15-1.4-.5-2.85-.93-4.35-1.3-1.53-.4-3.12-.72-4.75-.95-2.97-.53-5.3-2.05-7-4.55-6.73-10.1-12.43-20.88-17.1-32.35-.63-1.57-1.25-3.12-1.85-4.65-5.93-15.47-13.95-29.78-24.05-42.95,1.2-6.23,2.22-12.57,3.05-19M235.12,75.96c1.9,1.7,3.8,3.35,5.7,4.95,2.83,2.5,5.08,5.38,6.75,8.65,5.57,10.97,10.75,22.13,15.55,33.5,3.37,8,6.72,16.02,10.05,24.05,3.5,8.5,9.5,14.18,18,17.05-7.1,6.9-14.92,12.83-23.45,17.8-39.63,22.83-82.37,32.45-128.2,28.85-17.47-1.3-34.43-4.3-50.9-9-9.33-2.67-18.52-5.87-27.55-9.6-6.07-2.53-12.07-5.32-18-8.35-3.47-1.83-6.97-3.57-10.5-5.2-6.57-3-11.92-6.93-16.05-11.8-.67-.77-1.28-1.55-1.85-2.35.53-.13,1.05-.27,1.55-.4.47-.17.92-.33,1.35-.5,2.23-.83,4.38-1.78,6.45-2.85,7.43-3.8,12.3-9.65,14.6-17.55,2.73-9.43,5.22-18.9,7.45-28.4,3.33-14.2,10.38-25.95,21.15-35.25l43.35-6.35c.23-.07.48-.12.75-.15,26.67-3.63,53.37-4.85,80.1-3.65,1.87-.13,3.63-.13,5.3,0,12.9,1.9,25.7,4.08,38.4,6.55M204.72,217.91c.77,3,1.65,5.92,2.65,8.75.67,1.93,1.53,3.83,2.6,5.7,5.23,9.03,6.98,18.55,5.25,28.55-4.37-3.37-7.43-7.77-9.2-13.2-1.5-4.53-4.32-7.63-8.45-9.3l-2.45,1.4c-.6,1.03-.63,2.07-.1,3.1,2.2,4.2,3.55,8.57,4.05,13.1.9,7.87.33,15.6-1.7,23.2-.73,2.77-1.33,5.53-1.8,8.3-.7,4.27-2.9,6.47-6.6,6.6-3.07-3.47-4.58-7.73-4.55-12.8.03-6.23-2.65-9.1-8.05-8.6-.5-.27-1.02-.37-1.55-.3-14.9-1.93-29.65-.92-44.25,3.05l-5.3,18.45-3.15-.05c-.93-1.4-1.82-2.88-2.65-4.45-2.17-4.13-3.3-8.57-3.4-13.3-.23-9-.58-17.98-1.05-26.95-.13-2.47-1.35-4.1-3.65-4.9-3.93,1.33-6.42,4.3-7.45,8.9-.77,3.4-2.75,4.63-5.95,3.7-1.37-4.03-1.2-8.25.5-12.65,3.5-9.07,6.78-18.12,9.85-27.15l5.25.95c22.67,4.03,45.48,4.77,68.45,2.2,8.03-.83,15.6-1.6,22.7-2.3M86.22,248.11l1.3.1c-.07.63-.15,1.28-.25,1.95-1.13,7.43,1.35,12.75,7.45,15.95l3.3.35-15.45,6.9c-.6-8.63.62-17.05,3.65-25.25M51.47,231.36l17.3,8.25c-.73,1.5-1.38,3.02-1.95,4.55-4.1,10.7-5.93,21.97-5.5,33.8l-5.1-.1-15.1-3.7c-.03-4.33.25-8.67.85-13,.57-3.97,1.72-7.77,3.45-11.4,2.87-5.9,4.88-12.03,6.05-18.4M31.57,225.76l2.1.45c-.27.37-.53.75-.8,1.15-7.43,12.77-10.05,26.42-7.85,40.95-1.37-.9-2.72-1.8-4.05-2.7-4.9-3.4-8.33-7.88-10.3-13.45-1.9-5.47-1.58-10.85.95-16.15,4.2-8.77,10.85-12.18,19.95-10.25M120.97,187.66c1.37,2.03,3.32,3.6,5.85,4.7,2.27,1.03,4.78,1.6,7.55,1.7,3.77.13,7.25-.62,10.45-2.25,1.97-1,3.6-2.22,4.9-3.65.2.3.42.58.65.85,1.23,1.33,3.08,2.55,5.55,3.65,3.2,1.37,6.03,2.13,8.5,2.3,2.6.13,5.48-.35,8.65-1.45,3.6-1.23,6.45-2.85,8.55-4.85,2.3-2.13,3.32-4.33,3.05-6.6-.17-1.3-.82-2.35-1.95-3.15-1.2-.83-2.35-.98-3.45-.45-.47.23-.93.62-1.4,1.15-.27.3-.65.78-1.15,1.45-1.43,1.77-3.22,3.15-5.35,4.15-2.17.97-4.38,1.42-6.65,1.35-2.27-.1-4.43-.72-6.5-1.85-2.07-1.17-3.73-2.7-5-4.6-.1-.13-.18-.27-.25-.4-.1-.67-.3-1.3-.6-1.9-.53-1.07-1.37-1.83-2.5-2.3-1.2-.47-2.28-.43-3.25.1-.8.47-1.52,1.37-2.15,2.7-.87,1.73-1.45,2.8-1.75,3.2-1.37,1.77-3.65,2.68-6.85,2.75-2.3.07-4.17-.3-5.6-1.1-.5-.3-1.1-.73-1.8-1.3-1-.83-1.58-1.32-1.75-1.45-1.47-1.1-2.87-1.52-4.2-1.25-.8.2-1.48.67-2.05,1.4-.53.67-.85,1.43-.95,2.3-.13,1.57.35,3.17,1.45,4.8M244.52,130.51c-1.13-5.33-3.47-11.3-7-17.9-4.93-9.13-12.4-14.33-22.4-15.6-2.8-.4-5.58-.47-8.35-.2-2.7.23-5.42.2-8.15-.1-16.27-2.17-32.55-2.4-48.85-.7-16.43,1.83-32.9,2.55-49.4,2.15-13.63-.33-25.85,3.52-36.65,11.55-2.9,2.2-5.03,4.98-6.4,8.35-5.07,12.6-4.5,25.13,1.7,37.6,1.47,2.97,3.57,5.37,6.3,7.2,12.23,8.17,25.93,11.45,41.1,9.85,2.17-.2,4.33-.65,6.5-1.35,13.57-4.4,27.5-6.52,41.8-6.35,3.83.4,7.63,1.13,11.4,2.2,10.07,2.97,20.23,5.55,30.5,7.75l25.35-3.4c6.47-.8,11.68-4.32,15.65-10.55s6.38-11.53,7.25-15.9c.87-4.4.75-9.27-.35-14.6M91.12,140.21c-.7-8.87,1.55-16.57,6.75-23.1.4-.53.95-.9,1.65-1.1,4.73-.9,7.32,1.23,7.75,6.4.7,8.73-.18,17.18-2.65,25.35-.57,1.9-1.85,3.1-3.85,3.6-5.9-.63-9.12-4.35-9.65-11.15M204.72,122.46c1.67,3.37,2.5,7.42,2.5,12.15s-.83,8.78-2.5,12.15-3.67,5.05-6,5.05c-2.33,0-4.33-1.68-6-5.05s-2.5-7.42-2.5-12.15.83-8.78,2.5-12.15,3.67-5.05,6-5.05,4.33,1.68,6,5.05M440.57,242.41c-1.33.9-2.37,2.05-3.1,3.45v-.2c-.13.23-.23.52-.3.85-.07.13-.13.25-.2.35-.43,1.1-.72,2.25-.85,3.45-.2,1.2-.17,2.43.1,3.7.2,1.2.62,2.33,1.25,3.4.57,1.13,1.28,2.15,2.15,3.05.4.5.82.97,1.25,1.4.77.7,1.62,1.25,2.55,1.65.97.37,1.98.55,3.05.55,1,0,2.02-.18,3.05-.55,1-.4,1.88-.98,2.65-1.75l.55-.45c.07-.07.17-.17.3-.3.07-.13.17-.25.3-.35.07-.13.15-.27.25-.4.97-1.47,1.57-3.05,1.8-4.75.6-4.1-.47-7.73-3.2-10.9-1.77-2.1-4.05-3.23-6.85-3.4-1.7-.2-3.28.2-4.75,1.2M531.12,224.41c-1-.27-2.03-.25-3.1.05-4.83,1.47-7.88,4.73-9.15,9.8l.1-.1c.07-.2.13-.35.2-.45.07-.13.13-.3.2-.5.07-.07.13-.13.2-.2-.13.2-.23.4-.3.6-.37,1.13-.62,2.27-.75,3.4-.13,1.2-.1,2.37.1,3.5.13,1.2.48,2.32,1.05,3.35.57,1.07,1.32,1.95,2.25,2.65.43.37.92.68,1.45.95,4.67,1.77,8.75.75,12.25-3.05,3.47-3.8,4.43-8.1,2.9-12.9-1.2-3.8-3.67-6.17-7.4-7.1M535.77,239.31v.15c-.06.06-.1.13-.1.2v-.3c.06-.03.1-.1.1-.2v.15M476.82,131.91c-.93.6-3.62,2.63-8.05,6.1l-6.55,5.15c-3.03,2.77-5.57,6.43-7.6,11-1.33,3.03-2.75,7.37-4.25,13-2.4,8.53-3.85,15.23-4.35,20.1-.77,6.83-.43,14.37,1,22.6,1.4,7.47,3.62,13.83,6.65,19.1,3.87,6.5,8.72,11.02,14.55,13.55,7.33,3.17,15.12,3.17,23.35,0,6.9-2.67,13.18-7.38,18.85-14.15,8.63-10.13,13.83-22.05,15.6-35.75,1.77-13,.18-25.95-4.75-38.85-3.3-8.67-7.53-15.02-12.7-19.05-5-4.07-10.83-6.2-17.5-6.4-5.3-.1-10.05,1.1-14.25,3.6M464.97,187.16c.43-6.2,1.87-15.37,4.3-27.5.23-.97.52-1.57.85-1.8.07-.07.47-.27,1.2-.6,1.73-.57,3.87-2.12,6.4-4.65,2.5-2.53,4.58-4.08,6.25-4.65,1.27-.37,2.92-.55,4.95-.55,2.7,0,4.57.18,5.6.55,2.07.83,3.87,2.67,5.4,5.5,1.57,2.73,3.05,6.42,4.45,11.05,1.4,5.07,2.22,9.65,2.45,13.75.47,6.77-.38,13.43-2.55,20-2.13,6.67-5.37,12.58-9.7,17.75-3.13,3.87-6.32,6.43-9.55,7.7-2.03.83-4.07,1.18-6.1,1.05-2.2-.13-4.1-.8-5.7-2-2.13-1.63-3.83-4.32-5.1-8.05-2.73-7.9-3.78-17.08-3.15-27.55M367.32,144.01c2.07-.63,4.22-1.33,6.45-2.1,11.07-3.37,20.83-6,29.3-7.9.53,27.17,1.15,47.95,1.85,62.35,1.43,30.33,4.08,57.4,7.95,81.2,1.07,6.37,2.93,10.63,5.6,12.8,1.97,1.47,4.25,2.07,6.85,1.8,2.63-.2,4.78-1.22,6.45-3.05,1.83-2.07,2.78-4.85,2.85-8.35.07-2.33-.32-5.5-1.15-9.5-4.17-20.57-7.12-48.6-8.85-84.1-1.07-22.9-2.1-41.68-3.1-56.35,13.1-1.97,28.42-3.43,45.95-4.4,2.7-.17,4.72-.38,6.05-.65,2.2-.43,4.03-1.13,5.5-2.1,2.97-1.97,4.62-4.65,4.95-8.05.13-1.63-.15-3.22-.85-4.75-.7-1.57-1.72-2.83-3.05-3.8-1.47-1-3.27-1.63-5.4-1.9-1.47-.2-3.5-.23-6.1-.1-17.13.9-33.42,2.62-48.85,5.15-.27-2.93-.55-5.5-.85-7.7-.63-5.07-1.37-9.43-2.2-13.1-.5-2.1-1.3-3.4-2.4-3.9-1.5-.63-3.17.03-5,2-2.87,3.17-4.73,7.4-5.6,12.7-.57,3.1-.85,7.45-.85,13.05-12.47,2.5-24.3,5.62-35.5,9.35-4.63,1.47-9.13,3.05-13.5,4.75-3.17,1.2-6.05,2.43-8.65,3.7-4.17,1.97-7.6,3.93-10.3,5.9-2.67,1.97-4.48,3.97-5.45,6-.57,1.33-.85,2.65-.85,3.95.07,1.47.52,2.7,1.35,3.7,2.2,2.73,6.43,3.15,12.7,1.25.83-.23,1.68-.48,2.55-.75,5.6-1.77,12.98-4.13,22.15-7.1M679.57,145.21c.27.83.53,1.63.8,2.4-1.6,5.63-2.97,11.3-4.1,17-.7,3.83-1.23,7.4-1.6,10.7-.33,2.73-.62,6.82-.85,12.25-.33,12.13.27,27.57,1.8,46.3.23,2.67.7,4.57,1.4,5.7.9,1.6,2.33,2.58,4.3,2.95,2,.43,3.7.08,5.1-1.05,2.4-1.9,3.35-5.72,2.85-11.45-.9-11.1-1.75-25.03-2.55-41.8l-1.15-22.3c-.07-1.33-.13-2.6-.2-3.8,2.03,4.63,4.92,10.08,8.65,16.35,3.4,5.7,6.85,11.02,10.35,15.95,2.77,3.97,5.9,8.27,9.4,12.9,3.3,4.5,6.43,6.8,9.4,6.9,2.6,0,4.62-1.07,6.05-3.2,1.47-2.03,1.88-4.32,1.25-6.85-.27-1-.75-2.1-1.45-3.3,1.27-3.23,2.95-7.03,5.05-11.4,3.43-7.4,5.72-12.43,6.85-15.1,1-2.6,1.88-4.85,2.65-6.75-.43,15.27-.57,30.55-.4,45.85,0,8.1.38,14.85,1.15,20.25.43,3.77,1.25,7.62,2.45,11.55,1.1,3.6,2.43,6.2,4,7.8,1.07,1.13,2.33,1.88,3.8,2.25,1.6.4,3.03.28,4.3-.35,1.93-.97,3.13-2.75,3.6-5.35.17-1.27.13-3.5-.1-6.7-1.27-11.67-1.93-29.83-2-54.5-.07-23.87-.88-42.03-2.45-54.5-.7-5.1-2.45-7.88-5.25-8.35-.93-.17-1.92,0-2.95.5-.93.5-1.72,1.2-2.35,2.1-.57.93-1.08,2.22-1.55,3.85-.8.13-1.62.37-2.45.7-2.77,1.27-5.48,3.98-8.15,8.15-2.33,3.87-4.55,8.38-6.65,13.55-1.13,3.1-2.78,7.88-4.95,14.35l-2.15,6.85c-.77,2.27-1.53,4.77-2.3,7.5-.3,1.33-.58,2.65-.85,3.95-2.47-3.27-5-6.87-7.6-10.8-4.1-5.93-7.67-11.57-10.7-16.9-2.67-4.87-4.7-8.47-6.1-10.8-2.53-4.07-5.07-7.33-7.6-9.8-1.57-1.43-2.98-2.1-4.25-2-1.73.33-2.78,1.52-3.15,3.55-.13.93.08,2.57.65,4.9M643.22,86.01c-1.2,1.43-2.23,3.93-3.1,7.5-.97,3.97-1.8,8.07-2.5,12.3-7.77.6-16.4,1.27-25.9,2-9.87.9-16.98,1.63-21.35,2.2-7.9,1.13-14.83,2.72-20.8,4.75-1.57.5-2.95,1.1-4.15,1.8-3.63,1.9-5.45,4.33-5.45,7.3,0,1.7.63,3.25,1.9,4.65.97,1.07,2.15,1.9,3.55,2.5.23.1.52.18.85.25,2.2.7,5.65.8,10.35.3,19.23-2.23,38.62-3.98,58.15-5.25-.1,1.03-.18,2.05-.25,3.05-.97,10.13-1.6,22.28-1.9,36.45-.97,41.07.45,82.07,4.25,123,.5,5.4,1.58,9.23,3.25,11.5,1.2,1.77,2.83,3.03,4.9,3.8,2.17.77,4.23.8,6.2.1,1.77-.57,3.25-1.7,4.45-3.4,1.13-1.6,1.9-3.42,2.3-5.45.5-2.57.37-6.42-.4-11.55-3.6-26.13-5.43-55.68-5.5-88.65-.07-16.53.5-39.82,1.7-69.85,17.97-.97,36.1-1.52,54.4-1.65,3.8-.07,6.77-.35,8.9-.85,3.17-.8,5.55-2.25,7.15-4.35,1.3-1.83,1.83-4.02,1.6-6.55-.27-2.47-1.28-4.47-3.05-6-2.33-2.07-6.5-3.1-12.5-3.1-14.83-.07-31.27.43-49.3,1.5-2,.13-4.12.27-6.35.4.07-3.17.1-5.45.1-6.85-.07-3.03-.38-5.75-.95-8.15-.5-2.73-1.55-4.57-3.15-5.5-1.13-.63-2.42-.77-3.85-.4-1.4.37-2.58,1.1-3.55,2.2M1131.12,115.31c-.4,2.8-.68,7.08-.85,12.85l-2.55,84.15c-.13,5.07-.37,8.87-.7,11.4-.37,2.73-.52,4.6-.45,5.6,0,2.1.5,3.78,1.5,5.05.9,1.2,2.2,2.02,3.9,2.45,1.57.43,3.18.47,4.85.1,2.33-.57,5.18-2.05,8.55-4.45l23.25-16.15c2.63-1.9,4.43-3.48,5.4-4.75,1.7-2.33,2.2-4.58,1.5-6.75-.43-1.2-1.22-2.2-2.35-3-1.13-.83-2.4-1.32-3.8-1.45-2.23-.3-4.87.12-7.9,1.25-6.27,2.13-12.05,5.52-17.35,10.15,1.53-18.37,2-43.23,1.4-74.6-.17-7.47-.5-13.25-1-17.35-.77-6.4-2.1-12.03-4-16.9-.7-1.6-1.47-2.47-2.3-2.6-1.4-.3-2.6.58-3.6,2.65-1.7,3.5-2.87,7.62-3.5,12.35M1104.82,98.41c-3.73-1.43-7.53-1.65-11.4-.65-3.4.83-6.82,2.48-10.25,4.95-2.47,1.83-5.32,4.42-8.55,7.75-8.83,9.43-16.45,19.88-22.85,31.35-6.4,11.4-11.27,23.33-14.6,35.8-4.2,15.1-4.62,27.78-1.25,38.05,2.07,6.4,5.6,11.75,10.6,16.05,5.27,4.6,11,6.93,17.2,7,9.37.07,19.05-5.15,29.05-15.65,9.1-9.5,18.82-23.05,29.15-40.65,2.13-3.67,3.33-6.57,3.6-8.7.23-1.7.07-3.32-.5-4.85-.57-1.63-1.52-2.83-2.85-3.6-1.2-.77-2.55-1.08-4.05-.95-1.53.07-2.93.48-4.2,1.25-1.83,1-3.92,2.98-6.25,5.95-.33.43-5.75,8.1-16.25,23-6.43,9.17-12.5,16.18-18.2,21.05-4.63,3.87-8.65,5.23-12.05,4.1-3.03-1.1-5.22-4.02-6.55-8.75-2.67-9.17-1.82-20.87,2.55-35.1,7.8-25.5,19.77-44.55,35.9-57.15,3.27-2.67,6.1-3.78,8.5-3.35,1.33.2,3.43,1.38,6.3,3.55,1.27,1,2.4,1.33,3.4,1,.83-.37,1.43-1.32,1.8-2.85,1.03-4.4.93-8.1-.3-11.1-1.37-3.4-4.02-5.9-7.95-7.5M891.92,130.71c-1.27-1.4-2.85-2.28-4.75-2.65-2.4-.57-5.97-.22-10.7,1.05-7.23,2.07-14.27,4.43-21.1,7.1-6,2.27-15.37,6.32-28.1,12.15-6.27,2.9-10.75,5.2-13.45,6.9-2.03,1.23-4.28,2.77-6.75,4.6-1.83,1.3-2.95,2.47-3.35,3.5-.57,1.4-.4,2.82.5,4.25.83,1.33,1.97,2.28,3.4,2.85,2.17.77,5.12.68,8.85-.25,4.37-1.1,11.07-3.42,20.1-6.95l15.95-6.35c-.23,1.9-.48,3.92-.75,6.05-.27,2.17-.48,4.27-.65,6.3-.97.87-1.92,1.93-2.85,3.2-6.53,8.3-11.92,14.43-16.15,18.4-6.63,6.2-13.4,10.38-20.3,12.55-3.93,1.27-7.67,1.68-11.2,1.25-4.07-.47-7.33-1.97-9.8-4.5-2.6-2.7-4.18-6.45-4.75-11.25-.43-4.27-.12-8.98.95-14.15,1.77-9.13,5.07-17.75,9.9-25.85,4.8-8.1,10.75-15.15,17.85-21.15,6.93-5.83,13.1-8.05,18.5-6.65,1.83.43,3,.6,3.5.5.77-.13,1.4-.58,1.9-1.35.43-.63.68-1.37.75-2.2,0-1.5-.57-2.98-1.7-4.45-1.9-2.4-4.5-4.07-7.8-5-3.1-.9-6.28-1-9.55-.3-5,1.07-10.52,4.13-16.55,9.2-7.27,6.27-13.58,13.38-18.95,21.35-5.47,7.97-9.68,16.48-12.65,25.55-3.23,9.93-4.43,18.95-3.6,27.05.57,4.67,1.83,9.03,3.8,13.1,2.1,4.37,4.85,7.97,8.25,10.8,5.43,4.57,12.02,7.03,19.75,7.4,6.63.47,13.65-.8,21.05-3.8,8.3-3.33,16-8.48,23.1-15.45,1.13-1.13,2.27-2.3,3.4-3.5-.43,3.97-.78,7.6-1.05,10.9-1.43,17.67-2.22,33.68-2.35,48.05-.13,7.77,1.6,12.75,5.2,14.95,1.9,1.17,4.02,1.43,6.35.8,2.37-.57,4.08-1.83,5.15-3.8.87-1.6,1.37-4.07,1.5-7.4l1.7-37.05c.83-17.13,1.35-30,1.55-38.6.37-13.37.3-25.47-.2-36.3l18.9-7.5c2.77-1.2,4.7-2.2,5.8-3,2-1.53,3.1-3.37,3.3-5.5.07-1.8-.57-3.42-1.9-4.85M934.92,127.11c-3.43-1.47-7.17-2.03-11.2-1.7-4.57.37-8.87,1.68-12.9,3.95-4.8,2.67-9.45,6.85-13.95,12.55-7.8,9.8-13.32,20.87-16.55,33.2-3.2,12.47-3.67,24.78-1.4,36.95,1.33,6.83,3.55,12.82,6.65,17.95,3.6,5.87,8.12,9.97,13.55,12.3,5.07,2.17,10.73,2.68,17,1.55,5.43-.97,10.93-3.07,16.5-6.3,16.2-9.47,29.62-25.68,40.25-48.65,1.97-4.27,2.85-7.7,2.65-10.3-.1-1.87-.7-3.53-1.8-5-1.2-1.6-2.65-2.52-4.35-2.75-2.4-.4-4.68.55-6.85,2.85-.93,1.07-2.28,3.22-4.05,6.45-5,9.87-11.23,18.95-18.7,27.25-7.33,8.1-14.62,13.6-21.85,16.5-4.67,1.9-8.52,2.12-11.55.65-2.53-1.27-4.67-4.05-6.4-8.35-3.8-9.67-4.75-20.1-2.85-31.3,1.73-9.93,5.57-19.78,11.5-29.55,2.8-4.67,5.65-7.95,8.55-9.85,2.67-1.7,6.12-2.93,10.35-3.7,3.97-.7,7.73-1.02,11.3-.95,1.63,0,2.77-.22,3.4-.65.83-.53,1.28-1.4,1.35-2.6.07-1-.17-2.07-.7-3.2-1.43-3.23-4.08-5.67-7.95-7.3M1215.87,134.71c.4-3.7.4-8.52,0-14.45-.37-6.83-1.22-12.18-2.55-16.05-.83-2.13-1.92-3.93-3.25-5.4-1.63-1.63-3.4-2.48-5.3-2.55-1.33-.07-2.57.28-3.7,1.05-1.13.8-1.95,1.8-2.45,3-.63,1.53-.6,4.03.1,7.5,2.13,12.93.2,28.25-5.8,45.95-1.1,3.17-2.22,5.63-3.35,7.4-1.57,2.53-3.47,4.25-5.7,5.15-1.93-2.3-3.38-5.22-4.35-8.75-.7-2.53-1.23-5.85-1.6-9.95-.97-10.7-1.2-21.65-.7-32.85.13-2.53.05-4.4-.25-5.6-.43-2.1-1.45-3.55-3.05-4.35-1.27-.63-2.68-.67-4.25-.1-1.47.5-2.68,1.38-3.65,2.65-1.13,1.63-2.02,4.45-2.65,8.45-1.37,9.37-2.08,16.45-2.15,21.25,0,2.73.28,8.02.85,15.85.37,4.07.77,7.07,1.2,9,1.27,5.7,4,10.67,8.2,14.9,3.03,3.07,6.1,4.88,9.2,5.45,2.7.5,5.7.08,9-1.25,5.2-2.03,9.73-5.83,13.6-11.4,2.53-3.67,5.12-9.05,7.75-16.15,2.73-7.5,4.35-13.75,4.85-18.75M1237.32,91.51c-1.77.87-3.03,2.67-3.8,5.4-1.97.3-3.2,1.08-3.7,2.35-.5,1.53-.02,3.08,1.45,4.65.23.27.52.53.85.8-1.6,10.43-3,24.03-4.2,40.8-.3,4.5-.62,8.73-.95,12.7-.93.53-1.75,1.23-2.45,2.1-1.13,1.53-1.58,3.08-1.35,4.65.27,1.77,1.22,3.32,2.85,4.65-.8,9.43-1.52,16.62-2.15,21.55-.7,5.37-1.88,13.43-3.55,24.2-1.27,9.43-1.77,17.53-1.5,24.3,0,.27.03.52.1.75-2.8.33-4.98,1.03-6.55,2.1-1.47.97-2.52,2.23-3.15,3.8-.63,1.7-.63,3.25,0,4.65.77,1.77,2.8,3.28,6.1,4.55,7.47,2.97,15.05,4.65,22.75,5.05,8.17.37,15.87-.72,23.1-3.25,7.53-2.63,14.08-6.77,19.65-12.4,5.8-5.9,9.75-12.52,11.85-19.85,2.67-9.77,2.13-19.67-1.6-29.7-3.43-9.2-9.13-17.37-17.1-24.5-3.67-3.37-7.37-6.03-11.1-8,0-.07.03-.12.1-.15,3.1-2.67,5.75-5.4,7.95-8.2,3.67-4.47,6.58-9.37,8.75-14.7,2.13-5.3,2.88-9.8,2.25-13.5-.3-2.47-1.22-5.02-2.75-7.65-3.17-5.83-7.58-10.68-13.25-14.55-5.7-3.87-11.85-6.2-18.45-7-.63-.07-1.38-.13-2.25-.2-.2-1.57-.58-2.77-1.15-3.6-.7-1.07-1.72-1.77-3.05-2.1-1.33-.37-2.57-.27-3.7.3M1269.22,128.41c.07,2.4-1.2,5.63-3.8,9.7-2.13,3.37-4.03,5.9-5.7,7.6-2.33,2.53-5.68,5.18-10.05,7.95-2.33,1.4-4.37,2.67-6.1,3.8-.17-.07-.35-.1-.55-.1,1.07-16.43,1.8-32.5,2.2-48.2.13.07.25.1.35.1,6.73,1.57,12.65,4.57,17.75,9,3.87,3.37,5.83,6.75,5.9,10.15M1241.62,176.46c.37-.13.73-.27,1.1-.4.57-.17,1.17-.38,1.8-.65,3,.63,5.32,1.3,6.95,2,6.4,2.6,12.03,7.47,16.9,14.6,4.17,6.2,6.47,12.37,6.9,18.5.53,7.6-1.48,13.78-6.05,18.55-1.4,1.37-3.23,2.82-5.5,4.35-3.67,2.53-7.05,4.37-10.15,5.5-4.13,1.47-9.35,2.13-15.65,2-1.23-.07-2.38-.13-3.45-.2,0-.27.03-.52.1-.75,2.9-21.77,5.25-42.93,7.05-63.5M1580.67,36.56c-2-.8-4.13-1.13-6.4-1-2.23.13-4.33.7-6.3,1.7-1.87.9-3.75,2.25-5.65,4.05-1.13,1.07-2.72,2.77-4.75,5.1l-3.35,3.85c-1.67,1.93-2.88,3.4-3.65,4.4-3.63,4.73-6.68,10.65-9.15,17.75-2.87,8-4.75,16.28-5.65,24.85-2.03-.2-4.25-.33-6.65-.4-9-.13-17.92.85-26.75,2.95-.07.03-3.97,1.08-11.7,3.15-4.67,1.23-8.6,2.03-11.8,2.4-.37.03-.7.07-1,.1-.03-.2-.07-.4-.1-.6l-1.35-7.85c-1.37-7.83-2.47-13.67-3.3-17.5-1.4-6.47-2.95-12.22-4.65-17.25-2.13-6.23-4.62-10.83-7.45-13.8-1.9-2-4.08-3.48-6.55-4.45-2.67-1.03-5.23-1.27-7.7-.7-1.87.4-4.37,1.63-7.5,3.7-3.27,2.2-5.62,3.98-7.05,5.35-2.63,2.53-4.93,5.83-6.9,9.9-1.37,2.83-2.83,6.65-4.4,11.45-1.27,4.03-2.03,7.25-2.3,9.65-.23,2.17-.18,4.87.15,8.1.5,5.33.75,8.02.75,8.05.03.77.07,2.7.1,5.8,0,2.37.07,4.28.2,5.75.3,2.77,1.12,6.48,2.45,11.15.87,3.33,1.72,5.95,2.55,7.85,1.1,2.7,2.57,4.12,4.4,4.25-5.2,13.67-8.97,27.75-11.3,42.25-.27,1.7-.52,3.42-.75,5.15-.37-.13-.73-.25-1.1-.35-1.17-.3-2.58-.47-4.25-.5h-4.3c-3.73-.07-6.3.05-7.7.35-2.6.57-5.32,2-8.15,4.3-4.93,4.07-7.93,8.63-9,13.7-.3,1.37-.48,3.22-.55,5.55-.07,5.37.8,9.68,2.6,12.95.47.87,1.3,2.1,2.5,3.7,2.87,3.6,5.85,6.37,8.95,8.3,3.07,1.9,6.5,3.15,10.3,3.75,1.63.27,3.27.42,4.9.45,1.73,0,3.47-.15,5.2-.45.07.47.15.95.25,1.45.43,2.23.98,4.47,1.65,6.7.07.2.13.4.2.6-.17-.1-.33-.18-.5-.25-.87-.33-2.42-.5-4.65-.5-3.77,0-9.58-.58-17.45-1.75-4.8-.73-8.87-1.22-12.2-1.45-2.03-.13-3.8-.18-5.3-.15-6.7.13-13.5,1.53-20.4,4.2-6.27,2.43-12.4,5.82-18.4,10.15-4.33,3.07-7.47,6.12-9.4,9.15-1.27,1.97-2.1,4.02-2.5,6.15-.47,2.3-.38,4.47.25,6.5.9,2.93,3.05,5.73,6.45,8.4,8.23,6.5,19.67,9.78,34.3,9.85,4.93,0,9.8-.32,14.6-.95,10.97-1.43,21.52-4.53,31.65-9.3,2.03-.97,4.6-2.28,7.7-3.95,1.13-.6,2.35-1.27,3.65-2l-1.2,2c-2.17,3.67-3.55,6.62-4.15,8.85-.6,2.1-.9,5-.9,8.7-.07,2.47-.02,4.47.15,6,.23,2.17.75,4.05,1.55,5.65,1.23,2.53,3.28,4.82,6.15,6.85,3.9,2.83,8.25,4.58,13.05,5.25h9.45c3.67-.43,6.8-1.4,9.4-2.9,3.57-1.93,6.63-5,9.2-9.2,1.87-3.03,3.67-7.03,5.4-12,.5-1.47.8-2.72.9-3.75.07-.5.08-.95.05-1.35-.03-.57-.15-1.1-.35-1.6.3.1.6.2.9.3,8.67,2.47,18.87,3.38,30.6,2.75,3.73-.2,10.95-.87,21.65-2,9.03-.93,16.25-1.42,21.65-1.45,1.27,0,2.83.02,4.7.05-.37.67-.67,1.42-.9,2.25-1.33,4.4-1.68,8.98-1.05,13.75.67,4.7,2.22,9.03,4.65,13,1.8,2.97,3.95,5.4,6.45,7.3,2.77,2.1,5.68,3.32,8.75,3.65,1.37.17,2.78.15,4.25-.05,2.63-.4,5.42-1.4,8.35-3,1.37-.77,2.75-1.67,4.15-2.7,7.33-5.3,12.55-11.6,15.65-18.9,1.67-3.9,2.6-7.92,2.8-12.05.23-4.3-.37-8.35-1.8-12.15-.27-.7-.53-1.33-.8-1.9,8.63-5.07,15.18-11.08,19.65-18.05,3.57-5.6,6.03-12.18,7.4-19.75.77-4.23,1.17-8.67,1.2-13.3,0-.2,0-.4,0-.6,1,0,2.05-.02,3.15-.05,1.23.03,3.1.07,5.6.1h1.9c1.37-.07,2.58-.18,3.65-.35,3.93-.53,7.67-1.95,11.2-4.25,3.4-2.2,6.28-4.98,8.65-8.35.93-1.37,1.98-3.18,3.15-5.45,2.17-4.53,2.97-8.43,2.4-11.7-.3-1.9-1.1-3.88-2.4-5.95-3.93-6.5-10.37-11.68-19.3-15.55-2.17-.93-4.18-1.63-6.05-2.1-3.37-.8-7.15-.92-11.35-.35-2.93.4-6.53,1.22-10.8,2.45-3.07-9.83-6.07-18.03-9-24.6-4.7-10.53-10.18-19.4-16.45-26.6-2.8-3.17-5.55-5.85-8.25-8.05.33-.8.6-1.77.8-2.9,1.87-9,3.15-15.8,3.85-20.4,1.17-7.6,1.73-14.47,1.7-20.6,0-10.33-1.82-18.75-5.45-25.25-2.63-4.73-5.88-7.88-9.75-9.45M1577.67,117.41c4.03.9,6.08,1.4,6.15,1.5,9.23,12.43,16.97,25.82,23.2,40.15,3.2,7.3,5.93,14.73,8.2,22.3.1.37.22.75.35,1.15,2.03,6.87,3.68,13.83,4.95,20.9.83,4.6,1.5,11.95,2,22.05-.23,14.17-3.98,25.47-11.25,33.9-4.07,4.73-9.3,8.58-15.7,11.55-5.63,2.63-11.98,4.52-19.05,5.65-5.23.83-11.8,1.38-19.7,1.65-8.83.2-15.45.42-19.85.65-2.37.13-7.52.92-15.45,2.35-7.93,1.4-18.3,1.47-31.1.2-12.8-1.3-22.72-4.02-29.75-8.15-3.67-1.37-7.1-3.02-10.3-4.95-5.33-3.27-9.77-7.17-13.3-11.7-4.87-6.3-8.23-14.13-10.1-23.5-1.47-7.33-2.05-16.08-1.75-26.25.6-19.83,3.45-39.23,8.55-58.2,1.33-5.03,2.17-8.67,2.5-10.9.27-2.07.37-3.98.3-5.75-.03-.4-.07-.78-.1-1.15h.9c1.1-.07,2.28-.3,3.55-.7,1.1-.37,2.57-.97,4.4-1.8,6.8-3.1,10.75-4.88,11.85-5.35,4.5-1.97,8.53-3.53,12.1-4.7,2.43-.77,4.08-1.47,4.95-2.1,1.13-.8,1.88-1.7,2.25-2.7,1.17.4,2.43.62,3.8.65,2,.07,4.9-.4,8.7-1.4,9.6-2.37,18.32-3.97,26.15-4.8,8.93-.97,17.3-1.03,25.1-.2.23.53.55,1.05.95,1.55.33.47.72.92,1.15,1.35,2.73,2.7,6.8,4.65,12.2,5.85,3.73.83,7.98,1.35,12.75,1.55,2.87.13,7.17.17,12.9.1.3,0-.53-.25-2.5-.75M1632.37,182.66c4.77-.57,8.73-.48,11.9.25,4.43,1.07,9.23,3.87,14.4,8.4,2.37,2.03,3.73,3.93,4.1,5.7.43,2.03-.22,4.53-1.95,7.5-3.17,5.37-6.82,8.73-10.95,10.1-1.73.57-4.28.88-7.65.95-4.03.07-7.05.13-9.05.2h-.3c-.2-2.03-.47-4.12-.8-6.25-1.1-7.1-3.12-15.73-6.05-25.9,1.83-.27,3.95-.58,6.35-.95M1562.57,292.91c.13-1.27.12-2.32-.05-3.15-.07-.37-.17-.72-.3-1.05.2,0,.42,0,.65,0,5.1.1,9.38-.07,12.85-.5,6.1-.73,12.7-2.63,19.8-5.7.3.53.67,1.13,1.1,1.8,1.8,3.7,1.5,8.58-.9,14.65-.9,2.27-1.85,4.2-2.85,5.8-1.1,1.67-2.95,3.8-5.55,6.4-1.9,1.87-3.55,3.32-4.95,4.35-1.97,1.4-3.92,2.33-5.85,2.8-1.47.33-2.72.33-3.75,0-.77-.23-1.67-.8-2.7-1.7-2.83-2.53-4.97-5.65-6.4-9.35-1.43-3.7-1.93-7.43-1.5-11.2.2-1.4.33-2.45.4-3.15M1402.12,191.21c.9-.2,2.27-.33,4.1-.4,4.13-.1,7.42-.05,9.85.15-.93,10.1-1.15,20.23-.65,30.4.03.9.08,1.78.15,2.65-2.73.3-5.38.18-7.95-.35-3.2-.63-6-1.85-8.4-3.65-3.4-2.57-5.67-5.83-6.8-9.8-.27-.97-.47-1.93-.6-2.9-.07-.77-.1-1.52-.1-2.25.07-3.37,1-6.3,2.8-8.8.7-.97,1.47-1.8,2.3-2.5,1.53-1.27,3.3-2.12,5.3-2.55M1468.27,288.01c-.77.87-1.52,2.33-2.25,4.4-1.7,4.67-3.32,8.25-4.85,10.75-1.33,2.17-2.73,3.73-4.2,4.7-1.3.87-2.9,1.45-4.8,1.75-1.4.23-3.15.33-5.25.3-3.5-.07-6.18-.37-8.05-.9-2.97-.87-5.18-2.35-6.65-4.45-1.3-1.87-1.98-4.38-2.05-7.55,0-2.7.37-5.3,1.1-7.8.57-1.83,1.45-3.92,2.65-6.25.7-1.37,1.78-3.38,3.25-6.05.87-1.77,1.52-3.23,1.95-4.4,2.43,1.87,5.03,3.53,7.8,5,4.9,2.63,9.98,4.4,15.25,5.3.67.5,1.43.98,2.3,1.45,1.67.93,3.42,1.78,5.25,2.55-.53.3-1.02.7-1.45,1.2M1384.82,248.61c1.5.1,3.08.23,4.75.4,7.73.83,13.45,1.35,17.15,1.55-.3,1.03-.28,2.55.05,4.55,1.07,5.83,3.05,11.3,5.95,16.4.1.17.2.33.3.5-6.13,3.2-12.65,5.7-19.55,7.5-.93.23-1.85.47-2.75.7-.07-1.07-.28-2.48-.65-4.25-.47-2.3-.95-5.83-1.45-10.6-.47-4.73-.95-8.28-1.45-10.65-.57-2.57-1.35-4.6-2.35-6.1M1355.67,254.06c1.1-.57,2.2-1.1,3.3-1.6-1.03,3.67-1.5,7.42-1.4,11.25.07,4.13.77,8.1,2.1,11.9.97,2.83,2.18,5.05,3.65,6.65-.67-.07-1.33-.13-2-.2-7.47-.77-13.58-2.45-18.35-5.05-2.87-1.57-4.62-3.32-5.25-5.25-.17-.4-.27-.82-.3-1.25-.3-2.77,1.63-5.63,5.8-8.6.17-.13.33-.25.5-.35,4.43-3.17,8.42-5.67,11.95-7.5M1557.02,220.71c-.23-.93-.67-1.75-1.3-2.45-.67-.77-1.45-1.23-2.35-1.4-1.13-.23-2.25.05-3.35.85-1.03.7-1.8,1.65-2.3,2.85-.4.9-.73,2.08-1,3.55-.13.8-.33,2-.6,3.6-.67,2.8-1.88,5.32-3.65,7.55-1.23,1.47-2.45,2.27-3.65,2.4-1.27.17-2.73-.48-4.4-1.95-2.93-2.6-4.95-5.53-6.05-8.8-.43-1.57-.83-2.82-1.2-3.75,0-.77-.07-1.48-.2-2.15-.2-.97-.62-1.8-1.25-2.5-.67-.77-1.43-1.27-2.3-1.5-1.1-.27-2.23-.05-3.4.65-1.03.6-1.88,1.45-2.55,2.55-.47.83-.92,1.95-1.35,3.35-.23.77-.58,1.92-1.05,3.45-.9,2.6-2.3,4.75-4.2,6.45-2.1,1.9-4.35,2.75-6.75,2.55-3.5-.27-6.83-2.93-10-8-1.37-2.2-2.55-3.65-3.55-4.35-.77-.57-1.63-.88-2.6-.95-1.03-.1-1.9.13-2.6.7-.83.67-1.28,1.65-1.35,2.95-.03,1.03.17,2.18.6,3.45.97,2.8,2.42,5.38,4.35,7.75,1.9,2.33,4.13,4.32,6.7,5.95,2.83,1.8,5.52,2.77,8.05,2.9,2.63.13,5.48-.6,8.55-2.2,3.43-1.83,6.42-4.3,8.95-7.4.13-.17.27-.33.4-.5.77,1.2,1.67,2.43,2.7,3.7,4,4.97,8.13,7.72,12.4,8.25,2.63.33,5.27-.15,7.9-1.45,2.5-1.23,4.63-2.98,6.4-5.25,2.8-3.63,4.77-8.72,5.9-15.25.4-2.4.43-4.27.1-5.6M1586.12,149.06c-3.63-4.57-7.23-7.85-10.8-9.85-2.2-1.23-4.78-2.2-7.75-2.9-2.17-.53-4.9-1-8.2-1.4-24.63-2.9-52.55-.27-83.75,7.9-3.67.97-6.62,1.83-8.85,2.6-3.2,1.07-6.02,2.28-8.45,3.65-4.37,2.43-8.2,5.62-11.5,9.55-3.3,3.93-5.78,8.27-7.45,13-1.57,4.5-2.27,9.12-2.1,13.85.17,4.9,1.25,9.42,3.25,13.55,2.03,4.3,4.93,7.95,8.7,10.95,3.87,3.03,8.1,4.92,12.7,5.65,4.83.8,10.55.28,17.15-1.55,3.77-1.07,9.42-2.9,16.95-5.5,10.2-2.97,20.63-3.9,31.3-2.8,3.47.37,8.87,1.3,16.2,2.8,7.03,1.4,12.43,2.27,16.2,2.6,6.03.5,11.53.13,16.5-1.1,5.8-1.4,10.53-3.9,14.2-7.5,3.43-3.33,5.85-7.5,7.25-12.5,1.37-4.73,1.68-9.63.95-14.7-1.27-8.73-5.43-17.5-12.5-26.3M1564.12,166.31c.93.8,1.67,1.77,2.2,2.9.93,1.93,1.33,4.3,1.2,7.1-.23,3.53-1.15,6.38-2.75,8.55-.93,1.27-2.07,2.27-3.4,3-1.43.77-2.88,1.12-4.35,1.05-1.83-.1-3.52-.82-5.05-2.15-1.47-1.3-2.47-2.87-3-4.7-1.03-3.4-.53-7.05,1.5-10.95,1.17-2.27,2.57-3.95,4.2-5.05,1.97-1.43,4.07-1.92,6.3-1.45,1.13.27,2.18.83,3.15,1.7M1474.82,166.81c1.4.47,2.6,1.27,3.6,2.4,1.53,1.83,2.55,4.5,3.05,8,.6,3.8.48,7.07-.35,9.8-.47,1.63-1.22,3.1-2.25,4.4-1.13,1.37-2.43,2.33-3.9,2.9-1.57.63-3.18.75-4.85.35-1.77-.43-3.1-1.32-4-2.65-.67-.97-1.12-2.27-1.35-3.9-.13-1.87-.23-3.27-.3-4.2-.2-1.6-.33-2.8-.4-3.6-.1-1.43-.05-2.63.15-3.6.23-1.17.97-2.82,2.2-4.95,1.43-2.57,2.85-4.17,4.25-4.8,1.27-.57,2.65-.62,4.15-.15Z"/>
    <path class="cls-4" d="M33.67,226.21l-2.1-.45c-9.1-1.93-15.75,1.48-19.95,10.25-2.53,5.3-2.85,10.68-.95,16.15,1.97,5.57,5.4,10.05,10.3,13.45,1.33.9,2.68,1.8,4.05,2.7-2.2-14.53.42-28.18,7.85-40.95.27-.4.53-.78.8-1.15M68.77,239.61l-17.3-8.25c-1.17,6.37-3.18,12.5-6.05,18.4-1.73,3.63-2.88,7.43-3.45,11.4-.6,4.33-.88,8.67-.85,13l15.1,3.7,5.1.1c-.43-11.83,1.4-23.1,5.5-33.8.57-1.53,1.22-3.05,1.95-4.55M87.52,248.21l-1.3-.1c-3.03,8.2-4.25,16.62-3.65,25.25l15.45-6.9-3.3-.35c-6.1-3.2-8.58-8.52-7.45-15.95.1-.67.18-1.32.25-1.95M207.37,226.66c-1-2.83-1.88-5.75-2.65-8.75-7.1.7-14.67,1.47-22.7,2.3-22.97,2.57-45.78,1.83-68.45-2.2l-5.25-.95c-3.07,9.03-6.35,18.08-9.85,27.15-1.7,4.4-1.87,8.62-.5,12.65,3.2.93,5.18-.3,5.95-3.7,1.03-4.6,3.52-7.57,7.45-8.9,2.3.8,3.52,2.43,3.65,4.9.47,8.97.82,17.95,1.05,26.95.1,4.73,1.23,9.17,3.4,13.3.83,1.57,1.72,3.05,2.65,4.45l3.15.05,5.3-18.45c14.6-3.97,29.35-4.98,44.25-3.05.53-.07,1.05.03,1.55.3,5.4-.5,8.08,2.37,8.05,8.6-.03,5.07,1.48,9.33,4.55,12.8,3.7-.13,5.9-2.33,6.6-6.6.47-2.77,1.07-5.53,1.8-8.3,2.03-7.6,2.6-15.33,1.7-23.2-.5-4.53-1.85-8.9-4.05-13.1-.53-1.03-.5-2.07.1-3.1l2.45-1.4c4.13,1.67,6.95,4.77,8.45,9.3,1.77,5.43,4.83,9.83,9.2,13.2,1.73-10-.02-19.52-5.25-28.55-1.07-1.87-1.93-3.77-2.6-5.7M240.82,80.91c-1.9-1.6-3.8-3.25-5.7-4.95-12.7-2.47-25.5-4.65-38.4-6.55-1.67-.13-3.43-.13-5.3,0-26.73-1.2-53.43.02-80.1,3.65-.27.03-.52.08-.75.15l-43.35,6.35c-10.77,9.3-17.82,21.05-21.15,35.25-2.23,9.5-4.72,18.97-7.45,28.4-2.3,7.9-7.17,13.75-14.6,17.55-2.07,1.07-4.22,2.02-6.45,2.85-.43.17-.88.33-1.35.5-.5.13-1.02.27-1.55.4.57.8,1.18,1.58,1.85,2.35,4.13,4.87,9.48,8.8,16.05,11.8,3.53,1.63,7.03,3.37,10.5,5.2,5.93,3.03,11.93,5.82,18,8.35,9.03,3.73,18.22,6.93,27.55,9.6,16.47,4.7,33.43,7.7,50.9,9,45.83,3.6,88.57-6.02,128.2-28.85,8.53-4.97,16.35-10.9,23.45-17.8-8.5-2.87-14.5-8.55-18-17.05-3.33-8.03-6.68-16.05-10.05-24.05-4.8-11.37-9.98-22.53-15.55-33.5-1.67-3.27-3.92-6.15-6.75-8.65M237.52,112.61c3.53,6.6,5.87,12.57,7,17.9,1.1,5.33,1.22,10.2.35,14.6-.87,4.37-3.28,9.67-7.25,15.9s-9.18,9.75-15.65,10.55l-25.35,3.4c-10.27-2.2-20.43-4.78-30.5-7.75-3.77-1.07-7.57-1.8-11.4-2.2-14.3-.17-28.23,1.95-41.8,6.35-2.17.7-4.33,1.15-6.5,1.35-15.17,1.6-28.87-1.68-41.1-9.85-2.73-1.83-4.83-4.23-6.3-7.2-6.2-12.47-6.77-25-1.7-37.6,1.37-3.37,3.5-6.15,6.4-8.35,10.8-8.03,23.02-11.88,36.65-11.55,16.5.4,32.97-.32,49.4-2.15,16.3-1.7,32.58-1.47,48.85.7,2.73.3,5.45.33,8.15.1,2.77-.27,5.55-.2,8.35.2,10,1.27,17.47,6.47,22.4,15.6M126.82,192.36c-2.53-1.1-4.48-2.67-5.85-4.7-1.1-1.63-1.58-3.23-1.45-4.8.1-.87.42-1.63.95-2.3.57-.73,1.25-1.2,2.05-1.4,1.33-.27,2.73.15,4.2,1.25.17.13.75.62,1.75,1.45.7.57,1.3,1,1.8,1.3,1.43.8,3.3,1.17,5.6,1.1,3.2-.07,5.48-.98,6.85-2.75.3-.4.88-1.47,1.75-3.2.63-1.33,1.35-2.23,2.15-2.7.97-.53,2.05-.57,3.25-.1,1.13.47,1.97,1.23,2.5,2.3.3.6.5,1.23.6,1.9.07.13.15.27.25.4,1.27,1.9,2.93,3.43,5,4.6,2.07,1.13,4.23,1.75,6.5,1.85,2.27.07,4.48-.38,6.65-1.35,2.13-1,3.92-2.38,5.35-4.15.5-.67.88-1.15,1.15-1.45.47-.53.93-.92,1.4-1.15,1.1-.53,2.25-.38,3.45.45,1.13.8,1.78,1.85,1.95,3.15.27,2.27-.75,4.47-3.05,6.6-2.1,2-4.95,3.62-8.55,4.85-3.17,1.1-6.05,1.58-8.65,1.45-2.47-.17-5.3-.93-8.5-2.3-2.47-1.1-4.32-2.32-5.55-3.65-.23-.27-.45-.55-.65-.85-1.3,1.43-2.93,2.65-4.9,3.65-3.2,1.63-6.68,2.38-10.45,2.25-2.77-.1-5.28-.67-7.55-1.7Z"/>
    <path class="cls-2" d="M207.22,134.61c0-4.73-.83-8.78-2.5-12.15s-3.67-5.05-6-5.05-4.33,1.68-6,5.05-2.5,7.42-2.5,12.15.83,8.78,2.5,12.15,3.67,5.05,6,5.05c2.33,0,4.33-1.68,6-5.05s2.5-7.42,2.5-12.15M97.87,117.11c-5.2,6.53-7.45,14.23-6.75,23.1.53,6.8,3.75,10.52,9.65,11.15,2-.5,3.28-1.7,3.85-3.6,2.47-8.17,3.35-16.62,2.65-25.35-.43-5.17-3.02-7.3-7.75-6.4-.7.2-1.25.57-1.65,1.1M1478.42,169.21c-1-1.13-2.2-1.93-3.6-2.4-1.5-.47-2.88-.42-4.15.15-1.4.63-2.82,2.23-4.25,4.8-1.23,2.13-1.97,3.78-2.2,4.95-.2.97-.25,2.17-.15,3.6.07.8.2,2,.4,3.6.07.93.17,2.33.3,4.2.23,1.63.68,2.93,1.35,3.9.9,1.33,2.23,2.22,4,2.65,1.67.4,3.28.28,4.85-.35,1.47-.57,2.77-1.53,3.9-2.9,1.03-1.3,1.78-2.77,2.25-4.4.83-2.73.95-6,.35-9.8-.5-3.5-1.52-6.17-3.05-8M1566.32,169.21c-.53-1.13-1.27-2.1-2.2-2.9-.97-.87-2.02-1.43-3.15-1.7-2.23-.47-4.33.02-6.3,1.45-1.63,1.1-3.03,2.78-4.2,5.05-2.03,3.9-2.53,7.55-1.5,10.95.53,1.83,1.53,3.4,3,4.7,1.53,1.33,3.22,2.05,5.05,2.15,1.47.07,2.92-.28,4.35-1.05,1.33-.73,2.47-1.73,3.4-3,1.6-2.17,2.52-5.02,2.75-8.55.13-2.8-.27-5.17-1.2-7.1Z"/>
    <path class="cls-1" d="M1358.97,252.46c-1.1.5-2.2,1.03-3.3,1.6-3.53,1.83-7.52,4.33-11.95,7.5-.17.1-.33.22-.5.35-4.17,2.97-6.1,5.83-5.8,8.6.03.43.13.85.3,1.25.63,1.93,2.38,3.68,5.25,5.25,4.77,2.6,10.88,4.28,18.35,5.05.67.07,1.33.13,2,.2-1.47-1.6-2.68-3.82-3.65-6.65-1.33-3.8-2.03-7.77-2.1-11.9-.1-3.83.37-7.58,1.4-11.25M1389.57,249.01c-1.67-.17-3.25-.3-4.75-.4,1,1.5,1.78,3.53,2.35,6.1.5,2.37.98,5.92,1.45,10.65.5,4.77.98,8.3,1.45,10.6.37,1.77.58,3.18.65,4.25.9-.23,1.82-.47,2.75-.7,6.9-1.8,13.42-4.3,19.55-7.5-.1-.17-.2-.33-.3-.5-2.9-5.1-4.88-10.57-5.95-16.4-.33-2-.35-3.52-.05-4.55-3.7-.2-9.42-.72-17.15-1.55M1466.02,292.41c.73-2.07,1.48-3.53,2.25-4.4.43-.5.92-.9,1.45-1.2-1.83-.77-3.58-1.62-5.25-2.55-.87-.47-1.63-.95-2.3-1.45-5.27-.9-10.35-2.67-15.25-5.3-2.77-1.47-5.37-3.13-7.8-5-.43,1.17-1.08,2.63-1.95,4.4-1.47,2.67-2.55,4.68-3.25,6.05-1.2,2.33-2.08,4.42-2.65,6.25-.73,2.5-1.1,5.1-1.1,7.8.07,3.17.75,5.68,2.05,7.55,1.47,2.1,3.68,3.58,6.65,4.45,1.87.53,4.55.83,8.05.9,2.1.03,3.85-.07,5.25-.3,1.9-.3,3.5-.88,4.8-1.75,1.47-.97,2.87-2.53,4.2-4.7,1.53-2.5,3.15-6.08,4.85-10.75M1406.22,190.81c-1.83.07-3.2.2-4.1.4-2,.43-3.77,1.28-5.3,2.55-.83.7-1.6,1.53-2.3,2.5-1.8,2.5-2.73,5.43-2.8,8.8,0,.73.03,1.48.1,2.25.13.97.33,1.93.6,2.9,1.13,3.97,3.4,7.23,6.8,9.8,2.4,1.8,5.2,3.02,8.4,3.65,2.57.53,5.22.65,7.95.35-.07-.87-.12-1.75-.15-2.65-.5-10.17-.28-20.3.65-30.4-2.43-.2-5.72-.25-9.85-.15M1562.52,289.76c.17.83.18,1.88.05,3.15-.07.7-.2,1.75-.4,3.15-.43,3.77.07,7.5,1.5,11.2,1.43,3.7,3.57,6.82,6.4,9.35,1.03.9,1.93,1.47,2.7,1.7,1.03.33,2.28.33,3.75,0,1.93-.47,3.88-1.4,5.85-2.8,1.4-1.03,3.05-2.48,4.95-4.35,2.6-2.6,4.45-4.73,5.55-6.4,1-1.6,1.95-3.53,2.85-5.8,2.4-6.07,2.7-10.95.9-14.65-.43-.67-.8-1.27-1.1-1.8-7.1,3.07-13.7,4.97-19.8,5.7-3.47.43-7.75.6-12.85.5-.23,0-.45,0-.65,0,.13.33.23.68.3,1.05M1644.27,182.91c-3.17-.73-7.13-.82-11.9-.25-2.4.37-4.52.68-6.35.95,2.93,10.17,4.95,18.8,6.05,25.9.33,2.13.6,4.22.8,6.25h.3c2-.07,5.02-.13,9.05-.2,3.37-.07,5.92-.38,7.65-.95,4.13-1.37,7.78-4.73,10.95-10.1,1.73-2.97,2.38-5.47,1.95-7.5-.37-1.77-1.73-3.67-4.1-5.7-5.17-4.53-9.97-7.33-14.4-8.4M1583.82,118.91c-.07-.1-2.12-.6-6.15-1.5,1.97.5,2.8.75,2.5.75-5.73.07-10.03.03-12.9-.1-4.77-.2-9.02-.72-12.75-1.55-5.4-1.2-9.47-3.15-12.2-5.85-.43-.43-.82-.88-1.15-1.35-.4-.5-.72-1.02-.95-1.55-7.8-.83-16.17-.77-25.1.2-7.83.83-16.55,2.43-26.15,4.8-3.8,1-6.7,1.47-8.7,1.4-1.37-.03-2.63-.25-3.8-.65-.37,1-1.12,1.9-2.25,2.7-.87.63-2.52,1.33-4.95,2.1-3.57,1.17-7.6,2.73-12.1,4.7-1.1.47-5.05,2.25-11.85,5.35-1.83.83-3.3,1.43-4.4,1.8-1.27.4-2.45.63-3.55.7-.3.37-.57.75-.8,1.15.07,1.77-.03,3.68-.3,5.75-.33,2.23-1.17,5.87-2.5,10.9-5.1,18.97-7.95,38.37-8.55,58.2-.3,10.17.28,18.92,1.75,26.25,1.87,9.37,5.23,17.2,10.1,23.5,3.53,4.53,7.97,8.43,13.3,11.7,3.2,1.93,6.63,3.58,10.3,4.95,7.03,4.13,16.95,6.85,29.75,8.15,12.8,1.27,23.17,1.2,31.1-.2,7.93-1.43,13.08-2.22,15.45-2.35,4.4-.23,11.02-.45,19.85-.65,7.9-.27,14.47-.82,19.7-1.65,7.07-1.13,13.42-3.02,19.05-5.65,6.4-2.97,11.63-6.82,15.7-11.55,7.27-8.43,11.02-19.73,11.25-33.9-.5-10.1-1.17-17.45-2-22.05-1.27-7.07-2.92-14.03-4.95-20.9-.13-.4-.25-.78-.35-1.15-2.27-7.57-5-15-8.2-22.3-6.23-14.33-13.97-27.72-23.2-40.15M1575.32,139.21c3.57,2,7.17,5.28,10.8,9.85,7.07,8.8,11.23,17.57,12.5,26.3.73,5.07.42,9.97-.95,14.7-1.4,5-3.82,9.17-7.25,12.5-3.67,3.6-8.4,6.1-14.2,7.5-4.97,1.23-10.47,1.6-16.5,1.1-3.77-.33-9.17-1.2-16.2-2.6-7.33-1.5-12.73-2.43-16.2-2.8-10.67-1.1-21.1-.17-31.3,2.8-7.53,2.6-13.18,4.43-16.95,5.5-6.6,1.83-12.32,2.35-17.15,1.55-4.6-.73-8.83-2.62-12.7-5.65-3.77-3-6.67-6.65-8.7-10.95-2-4.13-3.08-8.65-3.25-13.55-.17-4.73.53-9.35,2.1-13.85,1.67-4.73,4.15-9.07,7.45-13,3.3-3.93,7.13-7.12,11.5-9.55,2.43-1.37,5.25-2.58,8.45-3.65,2.23-.77,5.18-1.63,8.85-2.6,31.2-8.17,59.12-10.8,83.75-7.9,3.3.4,6.03.87,8.2,1.4,2.97.7,5.55,1.67,7.75,2.9M1555.72,218.26c.63.7,1.07,1.52,1.3,2.45.33,1.33.3,3.2-.1,5.6-1.13,6.53-3.1,11.62-5.9,15.25-1.77,2.27-3.9,4.02-6.4,5.25-2.63,1.3-5.27,1.78-7.9,1.45-4.27-.53-8.4-3.28-12.4-8.25-1.03-1.27-1.93-2.5-2.7-3.7-.13.17-.27.33-.4.5-2.53,3.1-5.52,5.57-8.95,7.4-3.07,1.6-5.92,2.33-8.55,2.2-2.53-.13-5.22-1.1-8.05-2.9-2.57-1.63-4.8-3.62-6.7-5.95-1.93-2.37-3.38-4.95-4.35-7.75-.43-1.27-.63-2.42-.6-3.45.07-1.3.52-2.28,1.35-2.95.7-.57,1.57-.8,2.6-.7.97.07,1.83.38,2.6.95,1,.7,2.18,2.15,3.55,4.35,3.17,5.07,6.5,7.73,10,8,2.4.2,4.65-.65,6.75-2.55,1.9-1.7,3.3-3.85,4.2-6.45.47-1.53.82-2.68,1.05-3.45.43-1.4.88-2.52,1.35-3.35.67-1.1,1.52-1.95,2.55-2.55,1.17-.7,2.3-.92,3.4-.65.87.23,1.63.73,2.3,1.5.63.7,1.05,1.53,1.25,2.5.13.67.2,1.38.2,2.15.37.93.77,2.18,1.2,3.75,1.1,3.27,3.12,6.2,6.05,8.8,1.67,1.47,3.13,2.12,4.4,1.95,1.2-.13,2.42-.93,3.65-2.4,1.77-2.23,2.98-4.75,3.65-7.55.27-1.6.47-2.8.6-3.6.27-1.47.6-2.65,1-3.55.5-1.2,1.27-2.15,2.3-2.85,1.1-.8,2.22-1.08,3.35-.85.9.17,1.68.63,2.35,1.4Z"/>
  </g>
</svg>