<?xml version="1.0" encoding="UTF-8"?>
<svg id="Layer_1" data-name="Layer 1" xmlns="http://www.w3.org/2000/svg" viewBox="0 0 358.05 299.68">
  <defs>
    <style>
      .cls-1 {
        fill: #f99;
      }

      .cls-1, .cls-2, .cls-3 {
        stroke-width: 0px;
      }

      .cls-2 {
        fill: #fff;
      }

      .cls-3 {
        fill: #004c85;
      }
    </style>
  </defs>
  <g id="Layer0_0_FILL" data-name="Layer0 0 FILL">
    <path class="cls-3" d="M115.86,20.75c-2.63,2.53-4.93,5.83-6.9,9.9-1.37,2.83-2.83,6.65-4.4,11.45-1.27,4.03-2.03,7.25-2.3,9.65-.23,2.17-.18,4.87.15,8.1.5,5.33.75,8.02.75,8.05.03.77.07,2.7.1,5.8,0,2.37.07,4.28.2,5.75.3,2.77,1.12,6.48,2.45,11.15.87,3.33,1.72,5.95,2.55,7.85,1.1,2.7,2.57,4.12,4.4,4.25-5.2,13.67-8.97,27.75-11.3,42.25-.27,1.7-.52,3.42-.75,5.15-.37-.13-.73-.25-1.1-.35-1.17-.3-2.58-.47-4.25-.5h-4.3c-3.73-.07-6.3.05-7.7.35-2.6.57-5.32,2-8.15,4.3-4.93,4.07-7.93,8.63-9,13.7-.3,1.37-.48,3.22-.55,5.55-.07,5.37.8,9.68,2.6,12.95.47.87,1.3,2.1,2.5,3.7,2.87,3.6,5.85,6.37,8.95,8.3,3.07,1.9,6.5,3.15,10.3,3.75,1.63.27,3.27.42,4.9.45,1.73,0,3.47-.15,5.2-.45.07.47.15.95.25,1.45.43,2.23.98,4.47,1.65,6.7.07.2.13.4.2.6-.17-.1-.33-.18-.5-.25-.87-.33-2.42-.5-4.65-.5-3.77,0-9.58-.58-17.45-1.75-4.8-.73-8.87-1.22-12.2-1.45-2.03-.13-3.8-.18-5.3-.15-6.7.13-13.5,1.53-20.4,4.2-6.27,2.43-12.4,5.82-18.4,10.15-3.6,2.53-6.37,5.07-8.3,7.6-.4.5-.77,1.02-1.1,1.55-1.27,1.97-2.1,4.02-2.5,6.15-.47,2.3-.38,4.47.25,6.5.6,1.9,1.72,3.77,3.35,5.6.87.93,1.9,1.87,3.1,2.8,8.23,6.5,19.67,9.78,34.3,9.85,4.93,0,9.8-.32,14.6-.95,10.97-1.43,21.52-4.53,31.65-9.3,2.03-.97,4.6-2.28,7.7-3.95,1.13-.6,2.35-1.27,3.65-2l-1.2,2c-2.17,3.67-3.55,6.62-4.15,8.85-.6,2.1-.9,5-.9,8.7-.07,2.47-.02,4.47.15,6,.23,2.17.75,4.05,1.55,5.65,1.23,2.53,3.28,4.82,6.15,6.85,3.9,2.83,8.25,4.58,13.05,5.25h9.45c3.67-.43,6.8-1.4,9.4-2.9,3.57-1.93,6.63-5,9.2-9.2,1.87-3.03,3.67-7.03,5.4-12,.5-1.47.8-2.72.9-3.75.07-.5.08-.95.05-1.35-.03-.57-.15-1.1-.35-1.6.3.1.6.2.9.3,8.67,2.47,18.87,3.38,30.6,2.75,3.73-.2,10.95-.87,21.65-2,9.03-.93,16.25-1.42,21.65-1.45,1.27,0,2.83.02,4.7.05-.37.67-.67,1.42-.9,2.25-1.33,4.4-1.68,8.98-1.05,13.75.67,4.7,2.22,9.03,4.65,13,1.8,2.97,3.95,5.4,6.45,7.3,2.77,2.1,5.68,3.32,8.75,3.65,1.37.17,2.78.15,4.25-.05,2.63-.4,5.42-1.4,8.35-3,1.37-.77,2.75-1.67,4.15-2.7,7.33-5.3,12.55-11.6,15.65-18.9,1.67-3.9,2.6-7.92,2.8-12.05.23-4.3-.37-8.35-1.8-12.15-.27-.7-.53-1.33-.8-1.9,8.63-5.07,15.18-11.08,19.65-18.05,3.57-5.6,6.03-12.18,7.4-19.75.77-4.23,1.17-8.67,1.2-13.3v-.6c.97,0,1.98-.02,3.05-.05h.1c1.23.03,3.1.07,5.6.1.67,0,1.3,0,1.9,0,1.37-.07,2.58-.18,3.65-.35,3.93-.53,7.67-1.95,11.2-4.25,3.4-2.2,6.28-4.98,8.65-8.35.93-1.37,1.98-3.18,3.15-5.45,2.17-4.53,2.97-8.43,2.4-11.7-.3-1.9-1.1-3.88-2.4-5.95-3.93-6.5-10.37-11.68-19.3-15.55-2.17-.93-4.18-1.63-6.05-2.1-2.7-.63-5.67-.83-8.9-.6-.8.07-1.62.15-2.45.25-2.93.4-6.53,1.22-10.8,2.45-3.07-9.83-6.07-18.03-9-24.6-4.7-10.53-10.18-19.4-16.45-26.6-2.8-3.17-5.55-5.85-8.25-8.05.33-.8.6-1.77.8-2.9,1.87-9,3.15-15.8,3.85-20.4,1.17-7.6,1.73-14.47,1.7-20.6,0-10.33-1.82-18.75-5.45-25.25-2.63-4.73-5.88-7.88-9.75-9.45-2-.8-4.13-1.13-6.4-1-2.23.13-4.33.7-6.3,1.7-1.87.9-3.75,2.25-5.65,4.05-1.13,1.07-2.72,2.77-4.75,5.1l-3.35,3.85c-1.67,1.93-2.88,3.4-3.65,4.4-3.63,4.73-6.68,10.65-9.15,17.75-2.87,8-4.75,16.28-5.65,24.85-2.03-.2-4.25-.33-6.65-.4-9-.13-17.92.85-26.75,2.95-.07.03-3.97,1.08-11.7,3.15-4.67,1.23-8.6,2.03-11.8,2.4-.37.03-.7.07-1,.1-.03-.2-.07-.4-.1-.6l-1.35-7.85c-1.37-7.83-2.47-13.67-3.3-17.5-1.4-6.47-2.95-12.22-4.65-17.25-2.13-6.23-4.62-10.83-7.45-13.8-1.9-2-4.08-3.48-6.55-4.45-2.67-1.03-5.23-1.27-7.7-.7-1.87.4-4.37,1.63-7.5,3.7-3.27,2.2-5.62,3.98-7.05,5.35M120.11,99.25h.9c1.1-.07,2.28-.3,3.55-.7,1.1-.37,2.57-.97,4.4-1.8,6.8-3.1,10.75-4.88,11.85-5.35,4.5-1.97,8.53-3.53,12.1-4.7,2.43-.77,4.08-1.47,4.95-2.1,1.13-.8,1.88-1.7,2.25-2.7,1.17.4,2.43.62,3.8.65,2,.07,4.9-.4,8.7-1.4,9.6-2.37,18.32-3.97,26.15-4.8,8.93-.97,17.3-1.03,25.1-.2.23.53.55,1.05.95,1.55.33.47.72.92,1.15,1.35,2.73,2.7,6.8,4.65,12.2,5.85,3.73.83,7.98,1.35,12.75,1.55,2.87.13,7.17.17,12.9.1.3,0-.53-.25-2.5-.75,4.03.9,6.08,1.4,6.15,1.5,9.23,12.43,16.97,25.82,23.2,40.15,3.2,7.3,5.93,14.73,8.2,22.3.1.37.22.75.35,1.15,2.03,6.87,3.68,13.83,4.95,20.9.83,4.6,1.5,11.95,2,22.05-.23,14.17-3.98,25.47-11.25,33.9-4.07,4.73-9.3,8.58-15.7,11.55-5.63,2.63-11.98,4.52-19.05,5.65-5.23.83-11.8,1.38-19.7,1.65-8.83.2-15.45.42-19.85.65-2.37.13-7.52.92-15.45,2.35-7.93,1.4-18.3,1.47-31.1.2-12.8-1.3-22.72-4.02-29.75-8.15-3.67-1.37-7.1-3.02-10.3-4.95-5.33-3.27-9.77-7.17-13.3-11.7-4.87-6.3-8.23-14.13-10.1-23.5-1.47-7.33-2.05-16.08-1.75-26.25.6-19.83,3.45-39.23,8.55-58.2,1.33-5.03,2.17-8.67,2.5-10.9.27-2.07.37-3.98.3-5.75-.03-.4-.07-.78-.1-1.15M39.31,222.45c1.1-.57,2.2-1.1,3.3-1.6-1.03,3.67-1.5,7.42-1.4,11.25.07,4.13.77,8.1,2.1,11.9.97,2.83,2.18,5.05,3.65,6.65-.67-.07-1.33-.13-2-.2-7.47-.77-13.58-2.45-18.35-5.05-2.87-1.57-4.62-3.32-5.25-5.25-.17-.4-.27-.82-.3-1.25-.3-2.77,1.63-5.63,5.8-8.6.17-.13.33-.25.5-.35,4.43-3.17,8.42-5.67,11.95-7.5M99.71,159.35c-.93,10.1-1.15,20.23-.65,30.4.03.9.08,1.78.15,2.65-2.73.3-5.38.18-7.95-.35-3.2-.63-6-1.85-8.4-3.65-3.4-2.57-5.67-5.83-6.8-9.8-.27-.97-.47-1.93-.6-2.9-.07-.77-.1-1.52-.1-2.25.07-3.37,1-6.3,2.8-8.8.7-.97,1.47-1.8,2.3-2.5,1.53-1.27,3.3-2.12,5.3-2.55.9-.2,2.27-.33,4.1-.4,4.13-.1,7.42-.05,9.85.15M70.81,223.1c-.57-2.57-1.35-4.6-2.35-6.1,1.5.1,3.08.23,4.75.4,7.73.83,13.45,1.35,17.15,1.55-.3,1.03-.28,2.55.05,4.55,1.07,5.83,3.05,11.3,5.95,16.4.1.17.2.33.3.5-6.13,3.2-12.65,5.7-19.55,7.5-.93.23-1.85.47-2.75.7-.07-1.07-.28-2.48-.65-4.25-.47-2.3-.95-5.83-1.45-10.6-.47-4.73-.95-8.28-1.45-10.65M120.81,245.3c.87-1.77,1.52-3.23,1.95-4.4,2.43,1.87,5.03,3.53,7.8,5,4.9,2.63,9.98,4.4,15.25,5.3.67.5,1.43.98,2.3,1.45,1.67.93,3.42,1.78,5.25,2.55-.53.3-1.02.7-1.45,1.2-.77.87-1.52,2.33-2.25,4.4-1.7,4.67-3.32,8.25-4.85,10.75-1.33,2.17-2.73,3.73-4.2,4.7-1.3.87-2.9,1.45-4.8,1.75-1.4.23-3.15.33-5.25.3-3.5-.07-6.18-.37-8.05-.9-2.97-.87-5.18-2.35-6.65-4.45-1.3-1.87-1.98-4.38-2.05-7.55,0-2.7.37-5.3,1.1-7.8.57-1.83,1.45-3.92,2.65-6.25.7-1.37,1.78-3.38,3.25-6.05M346.41,165.4c.43,2.03-.22,4.53-1.95,7.5-3.17,5.37-6.82,8.73-10.95,10.1-1.73.57-4.28.88-7.65.95-2.23.03-4.15.07-5.75.1-1.3.03-2.4.07-3.3.1h-.3c-.2-2.03-.47-4.12-.8-6.25-1.1-7.1-3.12-15.73-6.05-25.9,1.83-.27,3.95-.58,6.35-.95,1.43-.17,2.8-.27,4.1-.3,3-.13,5.6.05,7.8.55,4.43,1.07,9.23,3.87,14.4,8.4,2.37,2.03,3.73,3.93,4.1,5.7M270.96,279.55c-1.9,1.87-3.55,3.32-4.95,4.35-1.97,1.4-3.92,2.33-5.85,2.8-1.47.33-2.72.33-3.75,0-.77-.23-1.67-.8-2.7-1.7-2.83-2.53-4.97-5.65-6.4-9.35-1.43-3.7-1.93-7.43-1.5-11.2.2-1.4.33-2.45.4-3.15.13-1.27.12-2.32-.05-3.15-.07-.37-.17-.72-.3-1.05h.65c5.1.1,9.38-.07,12.85-.5,6.1-.73,12.7-2.63,19.8-5.7.3.53.67,1.13,1.1,1.8,1.8,3.7,1.5,8.58-.9,14.65-.9,2.27-1.85,4.2-2.85,5.8-1.1,1.67-2.95,3.8-5.55,6.4M210.81,191.55c0-.77-.07-1.48-.2-2.15-.2-.97-.62-1.8-1.25-2.5-.67-.77-1.43-1.27-2.3-1.5-1.1-.27-2.23-.05-3.4.65-1.03.6-1.88,1.45-2.55,2.55-.47.83-.92,1.95-1.35,3.35-.23.77-.58,1.92-1.05,3.45-.9,2.6-2.3,4.75-4.2,6.45-2.1,1.9-4.35,2.75-6.75,2.55-3.5-.27-6.83-2.93-10-8-1.37-2.2-2.55-3.65-3.55-4.35-.77-.57-1.63-.88-2.6-.95-1.03-.1-1.9.13-2.6.7-.83.67-1.28,1.65-1.35,2.95-.03,1.03.17,2.18.6,3.45.97,2.8,2.42,5.38,4.35,7.75,1.9,2.33,4.13,4.32,6.7,5.95,2.83,1.8,5.52,2.77,8.05,2.9,2.63.13,5.48-.6,8.55-2.2,3.43-1.83,6.42-4.3,8.95-7.4.13-.17.27-.33.4-.5.77,1.2,1.67,2.43,2.7,3.7,4,4.97,8.13,7.72,12.4,8.25,2.63.33,5.27-.15,7.9-1.45,2.5-1.23,4.63-2.98,6.4-5.25,2.8-3.63,4.77-8.72,5.9-15.25.4-2.4.43-4.27.1-5.6-.23-.93-.67-1.75-1.3-2.45-.67-.77-1.45-1.23-2.35-1.4-1.13-.23-2.25.05-3.35.85-1.03.7-1.8,1.65-2.3,2.85-.4.9-.73,2.08-1,3.55-.13.8-.33,2-.6,3.6-.67,2.8-1.88,5.32-3.65,7.55-1.23,1.47-2.45,2.27-3.65,2.4-1.27.17-2.73-.48-4.4-1.95-2.93-2.6-4.95-5.53-6.05-8.8-.43-1.57-.83-2.82-1.2-3.75M130.46,127c-3.3,3.93-5.78,8.27-7.45,13-1.57,4.5-2.27,9.12-2.1,13.85.17,4.9,1.25,9.42,3.25,13.55,2.03,4.3,4.93,7.95,8.7,10.95,3.87,3.03,8.1,4.92,12.7,5.65,4.83.8,10.55.28,17.15-1.55,3.77-1.07,9.42-2.9,16.95-5.5,10.2-2.97,20.63-3.9,31.3-2.8,3.47.37,8.87,1.3,16.2,2.8,7.03,1.4,12.43,2.27,16.2,2.6,6.03.5,11.53.13,16.5-1.1,5.8-1.4,10.53-3.9,14.2-7.5,3.43-3.33,5.85-7.5,7.25-12.5,1.37-4.73,1.68-9.63.95-14.7-1.27-8.73-5.43-17.5-12.5-26.3-3.63-4.57-7.23-7.85-10.8-9.85-2.2-1.23-4.78-2.2-7.75-2.9-2.17-.53-4.9-1-8.2-1.4-24.63-2.9-52.55-.27-83.75,7.9-3.67.97-6.62,1.83-8.85,2.6-3.2,1.07-6.02,2.28-8.45,3.65-4.37,2.43-8.2,5.62-11.5,9.55M238.31,134.45c1.97-1.43,4.07-1.92,6.3-1.45,1.13.27,2.18.83,3.15,1.7.93.8,1.67,1.77,2.2,2.9.93,1.93,1.33,4.3,1.2,7.1-.23,3.53-1.15,6.38-2.75,8.55-.93,1.27-2.07,2.27-3.4,3-1.43.77-2.88,1.12-4.35,1.05-1.83-.1-3.52-.82-5.05-2.15-1.47-1.3-2.47-2.87-3-4.7-1.03-3.4-.53-7.05,1.5-10.95,1.17-2.27,2.57-3.95,4.2-5.05M154.31,135.35c1.27-.57,2.65-.62,4.15-.15,1.4.47,2.6,1.27,3.6,2.4,1.53,1.83,2.55,4.5,3.05,8,.6,3.8.48,7.07-.35,9.8-.47,1.63-1.22,3.1-2.25,4.4-1.13,1.37-2.43,2.33-3.9,2.9-1.57.63-3.18.75-4.85.35-1.77-.43-3.1-1.32-4-2.65-.67-.97-1.12-2.27-1.35-3.9-.13-1.87-.23-3.27-.3-4.2-.2-1.6-.33-2.8-.4-3.6-.1-1.43-.05-2.63.15-3.6.23-1.17.97-2.82,2.2-4.95,1.43-2.57,2.85-4.17,4.25-4.8Z"/>
    <path class="cls-2" d="M158.46,135.2c-1.5-.47-2.88-.42-4.15.15-1.4.63-2.82,2.23-4.25,4.8-1.23,2.13-1.97,3.78-2.2,4.95-.2.97-.25,2.17-.15,3.6.07.8.2,2,.4,3.6.07.93.17,2.33.3,4.2.23,1.63.68,2.93,1.35,3.9.9,1.33,2.23,2.22,4,2.65,1.67.4,3.28.28,4.85-.35,1.47-.57,2.77-1.53,3.9-2.9,1.03-1.3,1.78-2.77,2.25-4.4.83-2.73.95-6,.35-9.8-.5-3.5-1.52-6.17-3.05-8-1-1.13-2.2-1.93-3.6-2.4M244.61,133c-2.23-.47-4.33.02-6.3,1.45-1.63,1.1-3.03,2.78-4.2,5.05-2.03,3.9-2.53,7.55-1.5,10.95.53,1.83,1.53,3.4,3,4.7,1.53,1.33,3.22,2.05,5.05,2.15,1.47.07,2.92-.28,4.35-1.05,1.33-.73,2.47-1.73,3.4-3,1.6-2.17,2.52-5.02,2.75-8.55.13-2.8-.27-5.17-1.2-7.1-.53-1.13-1.27-2.1-2.2-2.9-.97-.87-2.02-1.43-3.15-1.7Z"/>
    <path class="cls-1" d="M266.01,283.9c1.4-1.03,3.05-2.48,4.95-4.35,2.6-2.6,4.45-4.73,5.55-6.4,1-1.6,1.95-3.53,2.85-5.8,2.4-6.07,2.7-10.95.9-14.65-.43-.67-.8-1.27-1.1-1.8-7.1,3.07-13.7,4.97-19.8,5.7-3.47.43-7.75.6-12.85.5h-.65c.13.33.23.68.3,1.05.17.83.18,1.88.05,3.15-.07.7-.2,1.75-.4,3.15-.43,3.77.07,7.5,1.5,11.2,1.43,3.7,3.57,6.82,6.4,9.35,1.03.9,1.93,1.47,2.7,1.7,1.03.33,2.28.33,3.75,0,1.93-.47,3.88-1.4,5.85-2.8M344.46,172.9c1.73-2.97,2.38-5.47,1.95-7.5-.37-1.77-1.73-3.67-4.1-5.7-5.17-4.53-9.97-7.33-14.4-8.4-2.2-.5-4.8-.68-7.8-.55-1.3.03-2.67.13-4.1.3-2.4.37-4.52.68-6.35.95,2.93,10.17,4.95,18.8,6.05,25.9.33,2.13.6,4.22.8,6.25h.3c.9-.03,2-.07,3.3-.1,1.6-.03,3.52-.07,5.75-.1,3.37-.07,5.92-.38,7.65-.95,4.13-1.37,7.78-4.73,10.95-10.1M122.76,240.9c-.43,1.17-1.08,2.63-1.95,4.4-1.47,2.67-2.55,4.68-3.25,6.05-1.2,2.33-2.08,4.42-2.65,6.25-.73,2.5-1.1,5.1-1.1,7.8.07,3.17.75,5.68,2.05,7.55,1.47,2.1,3.68,3.58,6.65,4.45,1.87.53,4.55.83,8.05.9,2.1.03,3.85-.07,5.25-.3,1.9-.3,3.5-.88,4.8-1.75,1.47-.97,2.87-2.53,4.2-4.7,1.53-2.5,3.15-6.08,4.85-10.75.73-2.07,1.48-3.53,2.25-4.4.43-.5.92-.9,1.45-1.2-1.83-.77-3.58-1.62-5.25-2.55-.87-.47-1.63-.95-2.3-1.45-5.27-.9-10.35-2.67-15.25-5.3-2.77-1.47-5.37-3.13-7.8-5M68.46,217c1,1.5,1.78,3.53,2.35,6.1.5,2.37.98,5.92,1.45,10.65.5,4.77.98,8.3,1.45,10.6.37,1.77.58,3.18.65,4.25.9-.23,1.82-.47,2.75-.7,6.9-1.8,13.42-4.3,19.55-7.5-.1-.17-.2-.33-.3-.5-2.9-5.1-4.88-10.57-5.95-16.4-.33-2-.35-3.52-.05-4.55-3.7-.2-9.42-.72-17.15-1.55-1.67-.17-3.25-.3-4.75-.4M99.06,189.75c-.5-10.17-.28-20.3.65-30.4-2.43-.2-5.72-.25-9.85-.15-1.83.07-3.2.2-4.1.4-2,.43-3.77,1.28-5.3,2.55-.83.7-1.6,1.53-2.3,2.5-1.8,2.5-2.73,5.43-2.8,8.8,0,.73.03,1.48.1,2.25.13.97.33,1.93.6,2.9,1.13,3.97,3.4,7.23,6.8,9.8,2.4,1.8,5.2,3.02,8.4,3.65,2.57.53,5.22.65,7.95.35-.07-.87-.12-1.75-.15-2.65M42.61,220.85c-1.1.5-2.2,1.03-3.3,1.6-3.53,1.83-7.52,4.33-11.95,7.5-.17.1-.33.22-.5.35-4.17,2.97-6.1,5.83-5.8,8.6.03.43.13.85.3,1.25.63,1.93,2.38,3.68,5.25,5.25,4.77,2.6,10.88,4.28,18.35,5.05.67.07,1.33.13,2,.2-1.47-1.6-2.68-3.82-3.65-6.65-1.33-3.8-2.03-7.77-2.1-11.9-.1-3.83.37-7.58,1.4-11.25M124.56,98.55c-1.27.4-2.45.63-3.55.7-.3.37-.57.75-.8,1.15.07,1.77-.03,3.68-.3,5.75-.33,2.23-1.17,5.87-2.5,10.9-5.1,18.97-7.95,38.37-8.55,58.2-.3,10.17.28,18.92,1.75,26.25,1.87,9.37,5.23,17.2,10.1,23.5,3.53,4.53,7.97,8.43,13.3,11.7,3.2,1.93,6.63,3.58,10.3,4.95,7.03,4.13,16.95,6.85,29.75,8.15,12.8,1.27,23.17,1.2,31.1-.2,7.93-1.43,13.08-2.22,15.45-2.35,4.4-.23,11.02-.45,19.85-.65,7.9-.27,14.47-.82,19.7-1.65,7.07-1.13,13.42-3.02,19.05-5.65,6.4-2.97,11.63-6.82,15.7-11.55,7.27-8.43,11.02-19.73,11.25-33.9-.5-10.1-1.17-17.45-2-22.05-1.27-7.07-2.92-14.03-4.95-20.9-.13-.4-.25-.78-.35-1.15-2.27-7.57-5-15-8.2-22.3-6.23-14.33-13.97-27.72-23.2-40.15-.07-.1-2.12-.6-6.15-1.5,1.97.5,2.8.75,2.5.75-5.73.07-10.03.03-12.9-.1-4.77-.2-9.02-.72-12.75-1.55-5.4-1.2-9.47-3.15-12.2-5.85-.43-.43-.82-.88-1.15-1.35-.4-.5-.72-1.02-.95-1.55-7.8-.83-16.17-.77-25.1.2-7.83.83-16.55,2.43-26.15,4.8-3.8,1-6.7,1.47-8.7,1.4-1.37-.03-2.63-.25-3.8-.65-.37,1-1.12,1.9-2.25,2.7-.87.63-2.52,1.33-4.95,2.1-3.57,1.17-7.6,2.73-12.1,4.7-1.1.47-5.05,2.25-11.85,5.35-1.83.83-3.3,1.43-4.4,1.8M123.01,140c1.67-4.73,4.15-9.07,7.45-13,3.3-3.93,7.13-7.12,11.5-9.55,2.43-1.37,5.25-2.58,8.45-3.65,2.23-.77,5.18-1.63,8.85-2.6,31.2-8.17,59.12-10.8,83.75-7.9,3.3.4,6.03.87,8.2,1.4,2.97.7,5.55,1.67,7.75,2.9,3.57,2,7.17,5.28,10.8,9.85,7.07,8.8,11.23,17.57,12.5,26.3.73,5.07.42,9.97-.95,14.7-1.4,5-3.82,9.17-7.25,12.5-3.67,3.6-8.4,6.1-14.2,7.5-4.97,1.23-10.47,1.6-16.5,1.1-3.77-.33-9.17-1.2-16.2-2.6-7.33-1.5-12.73-2.43-16.2-2.8-10.67-1.1-21.1-.17-31.3,2.8-7.53,2.6-13.18,4.43-16.95,5.5-6.6,1.83-12.32,2.35-17.15,1.55-4.6-.73-8.83-2.62-12.7-5.65-3.77-3-6.67-6.65-8.7-10.95-2-4.13-3.08-8.65-3.25-13.55-.17-4.73.53-9.35,2.1-13.85M210.61,189.4c.13.67.2,1.38.2,2.15.37.93.77,2.18,1.2,3.75,1.1,3.27,3.12,6.2,6.05,8.8,1.67,1.47,3.13,2.12,4.4,1.95,1.2-.13,2.42-.93,3.65-2.4,1.77-2.23,2.98-4.75,3.65-7.55.27-1.6.47-2.8.6-3.6.27-1.47.6-2.65,1-3.55.5-1.2,1.27-2.15,2.3-2.85,1.1-.8,2.22-1.08,3.35-.85.9.17,1.68.63,2.35,1.4.63.7,1.07,1.52,1.3,2.45.33,1.33.3,3.2-.1,5.6-1.13,6.53-3.1,11.62-5.9,15.25-1.77,2.27-3.9,4.02-6.4,5.25-2.63,1.3-5.27,1.78-7.9,1.45-4.27-.53-8.4-3.28-12.4-8.25-1.03-1.27-1.93-2.5-2.7-3.7-.13.17-.27.33-.4.5-2.53,3.1-5.52,5.57-8.95,7.4-3.07,1.6-5.92,2.33-8.55,2.2-2.53-.13-5.22-1.1-8.05-2.9-2.57-1.63-4.8-3.62-6.7-5.95-1.93-2.37-3.38-4.95-4.35-7.75-.43-1.27-.63-2.42-.6-3.45.07-1.3.52-2.28,1.35-2.95.7-.57,1.57-.8,2.6-.7.97.07,1.83.38,2.6.95,1,.7,2.18,2.15,3.55,4.35,3.17,5.07,6.5,7.73,10,8,2.4.2,4.65-.65,6.75-2.55,1.9-1.7,3.3-3.85,4.2-6.45.47-1.53.82-2.68,1.05-3.45.43-1.4.88-2.52,1.35-3.35.67-1.1,1.52-1.95,2.55-2.55,1.17-.7,2.3-.92,3.4-.65.87.23,1.63.73,2.3,1.5.63.7,1.05,1.53,1.25,2.5Z"/>
  </g>
</svg>