<?xml version="1.0" encoding="UTF-8"?>
<svg id="Layer_1" data-name="Layer 1" xmlns="http://www.w3.org/2000/svg" viewBox="0 0 306.62 304.83">
  <defs>
    <style>
      .cls-1 {
        fill: #fff;
      }

      .cls-1, .cls-2, .cls-3 {
        stroke-width: 0px;
      }

      .cls-2 {
        fill: #004c85;
      }

      .cls-3 {
        fill: #0cf;
      }
    </style>
  </defs>
  <g id="Layer0_0_FILL" data-name="Layer0 0 FILL">
    <path class="cls-2" d="M235.32,4.76c-2.03-1.97-4.33-3.25-6.9-3.85-8.23-2.17-15.18.33-20.85,7.5-7.27,9.2-12.55,19.5-15.85,30.9-1.4,4.9-2.03,9.88-1.9,14.95.03,1.53-.12,2.75-.45,3.65-.27.63-.65,1.1-1.15,1.4-9.43.13-18.87.33-28.3.6-1.97.03-3.93.08-5.9.15-6.8.2-13.52.83-20.15,1.9-1.7.27-3.38.55-5.05.85-5.73,1.03-10.9,1.65-15.5,1.85,0-.23,0-.48,0-.75,0-5.5.08-11.03.25-16.6.3-11.5-2-22.4-6.9-32.7-3-6.3-7.7-10.85-14.1-13.65-1.77-.8-3.57-1.1-5.4-.9-10.37.37-18.15,5.28-23.35,14.75-.63,1.33-1.22,2.68-1.75,4.05-5.7,14.77-8.65,29.97-8.85,45.6,0,.7.03,1.38.1,2.05-.17.37-.3.75-.4,1.15-.13.5-.25,1.02-.35,1.55-.03.4-.1.8-.2,1.2-.03.17-.07.32-.1.45-.03.1-.07.2-.1.3-.07.2-.13.4-.2.6-.23.67-.42,1.35-.55,2.05-.2.97-.35,1.97-.45,3-.13,1.07-.2,2.15-.2,3.25,0,.07,0,.12,0,.15.07.7.1,1.4.1,2.1v2.1c-4.6,5.07-8.05,11.08-10.35,18.05-4.27,12.93-8.17,25.92-11.7,38.95-.4,1.53-1.2,2.82-2.4,3.85-6.37,5.57-12.38,11.28-18.05,17.15-.73,6.2,1.48,11.15,6.65,14.85,24.53,17.5,51.37,29.83,80.5,37,1.23.3,2.45.58,3.65.85l-10.05,25.7c-.37-.2-.72-.42-1.05-.65-6.9-4.17-13.93-8.33-21.1-12.5-3-1.7-6.07-3.25-9.2-4.65-2.1-.97-4.23-1.85-6.4-2.65-9.07-3.33-18.35-4.93-27.85-4.8-2.43.33-4.67,1.12-6.7,2.35-7.37,4.57-12.48,11.05-15.35,19.45-.27.8-.5,1.6-.7,2.4-1.43,5.8-.87,11.45,1.7,16.95,4.77,10.23,12.4,17.85,22.9,22.85,21.13,10.13,42.48,10.98,64.05,2.55,5.17-2.07,9.8-4.92,13.9-8.55,1.67-1.5,2.78-2.03,3.35-1.6.13.07.23.22.3.45.13,2.27.45,4.5.95,6.7.33,1.47.77,2.92,1.3,4.35,1.23,3.37,2.52,6.72,3.85,10.05,2.03,5.13,5.48,8.6,10.35,10.4,1.17.4,2.3.4,3.4,0,.4-.17.8-.38,1.2-.65,7.17-4.87,10.35-11.75,9.55-20.65l37.55-3.1c.2,1.03.3,2.03.3,3,.1,5.23,1.67,10.02,4.7,14.35,4.8,6.9,10.67,7.85,17.6,2.85,1.33-1,2.37-2.3,3.1-3.9.23-.53.48-1.07.75-1.6,3.07-7,4.97-14.4,5.7-22.2.23-2.5.75-3.97,1.55-4.4.6.53,1.23.98,1.9,1.35,1.57.9,3.3,1.28,5.2,1.15,2.33-.33,4.27-1.43,5.8-3.3,2.33-2.83,3.35-6.22,3.05-10.15-.13-2.1-.38-4.13-.75-6.1-.27-1.3-.57-2.58-.9-3.85-2.9-10.63-6.68-20.93-11.35-30.9,7.7-1.63,15.33-3.7,22.9-6.2,12.7-4.2,24.47-9.75,35.3-16.65,8.03-5.1,15.55-10.93,22.55-17.5,2.37-2.23,4.68-4.55,6.95-6.95,1.93-2.03,3.82-4.13,5.65-6.3l1.5-1.8c.07-1.53-.43-2.68-1.5-3.45-.37-.3-.8-.53-1.3-.7-1.4-.5-2.85-.93-4.35-1.3-1.53-.4-3.12-.72-4.75-.95-2.97-.53-5.3-2.05-7-4.55-2.5-3.77-4.85-7.62-7.05-11.55-3.77-6.67-7.12-13.6-10.05-20.8-.63-1.57-1.25-3.12-1.85-4.65-5.93-15.47-13.95-29.78-24.05-42.95,1.2-6.23,2.22-12.57,3.05-19,1.1-8.23.85-16.35-.75-24.35-1.7-8.4-5.6-15.53-11.7-21.4M263.12,123.06c2.3,5.43,4.58,10.88,6.85,16.35,1.07,2.57,2.13,5.13,3.2,7.7,3.5,8.5,9.5,14.18,18,17.05-6.47,6.3-13.53,11.78-21.2,16.45-.73.47-1.48.92-2.25,1.35-39.63,22.83-82.37,32.45-128.2,28.85-17.47-1.3-34.43-4.3-50.9-9-9.33-2.67-18.52-5.87-27.55-9.6-6.07-2.53-12.07-5.32-18-8.35-3.47-1.83-6.97-3.57-10.5-5.2-6.57-3-11.92-6.93-16.05-11.8-.67-.77-1.28-1.55-1.85-2.35.53-.13,1.05-.27,1.55-.4.47-.17.92-.33,1.35-.5,2.23-.83,4.38-1.78,6.45-2.85,7.43-3.8,12.3-9.65,14.6-17.55,2.73-9.43,5.22-18.9,7.45-28.4,3.33-14.2,10.38-25.95,21.15-35.25l43.35-6.35c.23-.07.48-.12.75-.15,26.67-3.63,53.37-4.85,80.1-3.65,1.87-.13,3.63-.13,5.3,0,12.9,1.9,25.7,4.08,38.4,6.55,1.9,1.7,3.8,3.35,5.7,4.95,2.83,2.5,5.08,5.38,6.75,8.65,5.57,10.97,10.75,22.13,15.55,33.5M182.02,220.21c8.03-.83,15.6-1.6,22.7-2.3.77,3,1.65,5.92,2.65,8.75.67,1.93,1.53,3.83,2.6,5.7,5.23,9.03,6.98,18.55,5.25,28.55-4.37-3.37-7.43-7.77-9.2-13.2-1.5-4.53-4.32-7.63-8.45-9.3l-2.45,1.4c-.6,1.03-.63,2.07-.1,3.1,2.2,4.2,3.55,8.57,4.05,13.1.9,7.87.33,15.6-1.7,23.2-.73,2.77-1.33,5.53-1.8,8.3-.7,4.27-2.9,6.47-6.6,6.6-3.07-3.47-4.58-7.73-4.55-12.8.03-6.23-2.65-9.1-8.05-8.6-.5-.27-1.02-.37-1.55-.3-14.9-1.93-29.65-.92-44.25,3.05l-5.3,18.45-3.15-.05c-.93-1.4-1.82-2.88-2.65-4.45-2.17-4.13-3.3-8.57-3.4-13.3-.23-9-.58-17.98-1.05-26.95-.13-2.47-1.35-4.1-3.65-4.9-3.93,1.33-6.42,4.3-7.45,8.9-.77,3.4-2.75,4.63-5.95,3.7-1.37-4.03-1.2-8.25.5-12.65,3.5-9.07,6.78-18.12,9.85-27.15l5.25.95c22.67,4.03,45.48,4.77,68.45,2.2M11.62,236.01c4.2-8.77,10.85-12.18,19.95-10.25l2.1.45c-.27.37-.53.75-.8,1.15-7.43,12.77-10.05,26.42-7.85,40.95-1.37-.9-2.72-1.8-4.05-2.7-4.9-3.4-8.33-7.88-10.3-13.45-1.9-5.47-1.58-10.85.95-16.15M45.42,249.76c2.87-5.9,4.88-12.03,6.05-18.4l17.3,8.25c-.73,1.5-1.38,3.02-1.95,4.55-4.1,10.7-5.93,21.97-5.5,33.8l-5.1-.1-15.1-3.7c-.03-4.33.25-8.67.85-13,.57-3.97,1.72-7.77,3.45-11.4M87.52,248.21c-.07.63-.15,1.28-.25,1.95-1.13,7.43,1.35,12.75,7.45,15.95l3.3.35-15.45,6.9c-.6-8.63.62-17.05,3.65-25.25l1.3.1M177.87,179.61c-.27.3-.65.78-1.15,1.45-1.43,1.77-3.22,3.15-5.35,4.15-2.17.97-4.38,1.42-6.65,1.35-2.27-.1-4.43-.72-6.5-1.85-2.07-1.17-3.73-2.7-5-4.6-.1-.13-.18-.27-.25-.4-.1-.67-.3-1.3-.6-1.9-.53-1.07-1.37-1.83-2.5-2.3-1.2-.47-2.28-.43-3.25.1-.8.47-1.52,1.37-2.15,2.7-.87,1.73-1.45,2.8-1.75,3.2-1.37,1.77-3.65,2.68-6.85,2.75-2.3.07-4.17-.3-5.6-1.1-.5-.3-1.1-.73-1.8-1.3-1-.83-1.58-1.32-1.75-1.45-1.47-1.1-2.87-1.52-4.2-1.25-.8.2-1.48.67-2.05,1.4-.53.67-.85,1.43-.95,2.3-.13,1.57.35,3.17,1.45,4.8,1.37,2.03,3.32,3.6,5.85,4.7,2.27,1.03,4.78,1.6,7.55,1.7,3.77.13,7.25-.62,10.45-2.25,1.97-1,3.6-2.22,4.9-3.65.2.3.42.58.65.85,1.23,1.33,3.08,2.55,5.55,3.65,3.2,1.37,6.03,2.13,8.5,2.3,2.6.13,5.48-.35,8.65-1.45,3.6-1.23,6.45-2.85,8.55-4.85,2.3-2.13,3.32-4.33,3.05-6.6-.17-1.3-.82-2.35-1.95-3.15-1.2-.83-2.35-.98-3.45-.45-.47.23-.93.62-1.4,1.15M206.77,96.81c-2.7.23-5.42.2-8.15-.1-16.27-2.17-32.55-2.4-48.85-.7-16.43,1.83-32.9,2.55-49.4,2.15-13.63-.33-25.85,3.52-36.65,11.55-2.9,2.2-5.03,4.98-6.4,8.35-5.07,12.6-4.5,25.13,1.7,37.6,1.47,2.97,3.57,5.37,6.3,7.2,12.23,8.17,25.93,11.45,41.1,9.85,2.17-.2,4.33-.65,6.5-1.35,13.57-4.4,27.5-6.52,41.8-6.35,3.83.4,7.63,1.13,11.4,2.2,10.07,2.97,20.23,5.55,30.5,7.75l25.35-3.4c6.47-.8,11.68-4.32,15.65-10.55s6.38-11.53,7.25-15.9c.87-4.4.75-9.27-.35-14.6-1.13-5.33-3.47-11.3-7-17.9-4.93-9.13-12.4-14.33-22.4-15.6-2.8-.4-5.58-.47-8.35-.2M190.22,134.61c0-4.73.83-8.78,2.5-12.15,1.67-3.37,3.67-5.05,6-5.05s4.33,1.68,6,5.05c1.67,3.37,2.5,7.42,2.5,12.15s-.83,8.78-2.5,12.15c-1.67,3.37-3.67,5.05-6,5.05s-4.33-1.68-6-5.05c-1.67-3.37-2.5-7.42-2.5-12.15M107.27,122.41c.7,8.73-.18,17.18-2.65,25.35-.57,1.9-1.85,3.1-3.85,3.6-5.9-.63-9.12-4.35-9.65-11.15-.7-8.87,1.55-16.57,6.75-23.1.4-.53.95-.9,1.65-1.1,4.73-.9,7.32,1.23,7.75,6.4"/>
    <path class="cls-3" d="M87.27,250.16c.1-.67.18-1.32.25-1.95l-1.3-.1c-3.03,8.2-4.25,16.62-3.65,25.25l15.45-6.9-3.3-.35c-6.1-3.2-8.58-8.52-7.45-15.95M51.47,231.36c-1.17,6.37-3.18,12.5-6.05,18.4-1.73,3.63-2.88,7.43-3.45,11.4-.6,4.33-.88,8.67-.85,13l15.1,3.7,5.1.1c-.43-11.83,1.4-23.1,5.5-33.8.57-1.53,1.22-3.05,1.95-4.55l-17.3-8.25M31.57,225.76c-9.1-1.93-15.75,1.48-19.95,10.25-2.53,5.3-2.85,10.68-.95,16.15,1.97,5.57,5.4,10.05,10.3,13.45,1.33.9,2.68,1.8,4.05,2.7-2.2-14.53.42-28.18,7.85-40.95.27-.4.53-.78.8-1.15l-2.1-.45M204.72,217.91c-7.1.7-14.67,1.47-22.7,2.3-22.97,2.57-45.78,1.83-68.45-2.2l-5.25-.95c-3.07,9.03-6.35,18.08-9.85,27.15-1.7,4.4-1.87,8.62-.5,12.65,3.2.93,5.18-.3,5.95-3.7,1.03-4.6,3.52-7.57,7.45-8.9,2.3.8,3.52,2.43,3.65,4.9.47,8.97.82,17.95,1.05,26.95.1,4.73,1.23,9.17,3.4,13.3.83,1.57,1.72,3.05,2.65,4.45l3.15.05,5.3-18.45c14.6-3.97,29.35-4.98,44.25-3.05.53-.07,1.05.03,1.55.3,5.4-.5,8.08,2.37,8.05,8.6-.03,5.07,1.48,9.33,4.55,12.8,3.7-.13,5.9-2.33,6.6-6.6.47-2.77,1.07-5.53,1.8-8.3,2.03-7.6,2.6-15.33,1.7-23.2-.5-4.53-1.85-8.9-4.05-13.1-.53-1.03-.5-2.07.1-3.1l2.45-1.4c4.13,1.67,6.95,4.77,8.45,9.3,1.77,5.43,4.83,9.83,9.2,13.2,1.73-10-.02-19.52-5.25-28.55-1.07-1.87-1.93-3.77-2.6-5.7-1-2.83-1.88-5.75-2.65-8.75M269.97,139.41c-2.27-5.47-4.55-10.92-6.85-16.35-4.8-11.37-9.98-22.53-15.55-33.5-1.67-3.27-3.92-6.15-6.75-8.65-1.9-1.6-3.8-3.25-5.7-4.95-12.7-2.47-25.5-4.65-38.4-6.55-1.67-.13-3.43-.13-5.3,0-26.73-1.2-53.43.02-80.1,3.65-.27.03-.52.08-.75.15l-43.35,6.35c-10.77,9.3-17.82,21.05-21.15,35.25-2.23,9.5-4.72,18.97-7.45,28.4-2.3,7.9-7.17,13.75-14.6,17.55-2.07,1.07-4.22,2.02-6.45,2.85-.43.17-.88.33-1.35.5-.5.13-1.02.27-1.55.4.57.8,1.18,1.58,1.85,2.35,4.13,4.87,9.48,8.8,16.05,11.8,3.53,1.63,7.03,3.37,10.5,5.2,5.93,3.03,11.93,5.82,18,8.35,9.03,3.73,18.22,6.93,27.55,9.6,16.47,4.7,33.43,7.7,50.9,9,45.83,3.6,88.57-6.02,128.2-28.85.77-.43,1.52-.88,2.25-1.35,7.67-4.67,14.73-10.15,21.2-16.45-8.5-2.87-14.5-8.55-18-17.05-1.07-2.57-2.13-5.13-3.2-7.7M198.62,96.71c2.73.3,5.45.33,8.15.1,2.77-.27,5.55-.2,8.35.2,10,1.27,17.47,6.47,22.4,15.6,3.53,6.6,5.87,12.57,7,17.9,1.1,5.33,1.22,10.2.35,14.6-.87,4.37-3.28,9.67-7.25,15.9s-9.18,9.75-15.65,10.55l-25.35,3.4c-10.27-2.2-20.43-4.78-30.5-7.75-3.77-1.07-7.57-1.8-11.4-2.2-14.3-.17-28.23,1.95-41.8,6.35-2.17.7-4.33,1.15-6.5,1.35-15.17,1.6-28.87-1.68-41.1-9.85-2.73-1.83-4.83-4.23-6.3-7.2-6.2-12.47-6.77-25-1.7-37.6,1.37-3.37,3.5-6.15,6.4-8.35,10.8-8.03,23.02-11.88,36.65-11.55,16.5.4,32.97-.32,49.4-2.15,16.3-1.7,32.58-1.47,48.85.7M176.72,181.06c.5-.67.88-1.15,1.15-1.45.47-.53.93-.92,1.4-1.15,1.1-.53,2.25-.38,3.45.45,1.13.8,1.78,1.85,1.95,3.15.27,2.27-.75,4.47-3.05,6.6-2.1,2-4.95,3.62-8.55,4.85-3.17,1.1-6.05,1.58-8.65,1.45-2.47-.17-5.3-.93-8.5-2.3-2.47-1.1-4.32-2.32-5.55-3.65-.23-.27-.45-.55-.65-.85-1.3,1.43-2.93,2.65-4.9,3.65-3.2,1.63-6.68,2.38-10.45,2.25-2.77-.1-5.28-.67-7.55-1.7-2.53-1.1-4.48-2.67-5.85-4.7-1.1-1.63-1.58-3.23-1.45-4.8.1-.87.42-1.63.95-2.3.57-.73,1.25-1.2,2.05-1.4,1.33-.27,2.73.15,4.2,1.25.17.13.75.62,1.75,1.45.7.57,1.3,1,1.8,1.3,1.43.8,3.3,1.17,5.6,1.1,3.2-.07,5.48-.98,6.85-2.75.3-.4.88-1.47,1.75-3.2.63-1.33,1.35-2.23,2.15-2.7.97-.53,2.05-.57,3.25-.1,1.13.47,1.97,1.23,2.5,2.3.3.6.5,1.23.6,1.9.07.13.15.27.25.4,1.27,1.9,2.93,3.43,5,4.6,2.07,1.13,4.23,1.75,6.5,1.85,2.27.07,4.48-.38,6.65-1.35,2.13-1,3.92-2.38,5.35-4.15Z"/>
    <path class="cls-1" d="M104.62,147.76c2.47-8.17,3.35-16.62,2.65-25.35-.43-5.17-3.02-7.3-7.75-6.4-.7.2-1.25.57-1.65,1.1-5.2,6.53-7.45,14.23-6.75,23.1.53,6.8,3.75,10.52,9.65,11.15,2-.5,3.28-1.7,3.85-3.6M192.72,122.46c-1.67,3.37-2.5,7.42-2.5,12.15s.83,8.78,2.5,12.15c1.67,3.37,3.67,5.05,6,5.05s4.33-1.68,6-5.05c1.67-3.37,2.5-7.42,2.5-12.15s-.83-8.78-2.5-12.15c-1.67-3.37-3.67-5.05-6-5.05s-4.33,1.68-6,5.05"/>
  </g>
</svg>