<?xml version="1.0" encoding="UTF-8"?>
<svg id="Layer_1" data-name="Layer 1" xmlns="http://www.w3.org/2000/svg" viewBox="0 0 977.78 224.27">
  <defs>
    <style>
      .cls-1 {
        fill: #004c85;
        stroke-width: 0px;
      }
    </style>
  </defs>
  <g id="Layer0_0_FILL" data-name="Layer0 0 FILL">
    <path class="cls-1" d="M116.37,161.97c-1.33.9-2.37,2.05-3.1,3.45v-.2c-.13.23-.23.52-.3.85-.07.13-.13.25-.2.35-.43,1.1-.72,2.25-.85,3.45-.2,1.2-.17,2.43.1,3.7.2,1.2.62,2.33,1.25,3.4.57,1.13,1.28,2.15,2.15,3.05.4.5.82.97,1.25,1.4.77.7,1.62,1.25,2.55,1.65.97.37,1.98.55,3.05.55,1,0,2.02-.18,3.05-.55,1-.4,1.88-.98,2.65-1.75l.55-.45c.07-.07.17-.17.3-.3.07-.13.17-.25.3-.35.07-.13.15-.27.25-.4.97-1.47,1.57-3.05,1.8-4.75.6-4.1-.47-7.73-3.2-10.9-1.77-2.1-4.05-3.23-6.85-3.4-1.7-.2-3.28.2-4.75,1.2M206.92,143.97c-1-.27-2.03-.25-3.1.05-4.83,1.47-7.88,4.73-9.15,9.8l.1-.1c.07-.2.13-.35.2-.45.07-.13.13-.3.2-.5.07-.07.13-.13.2-.2-.13.2-.23.4-.3.6-.37,1.13-.62,2.27-.75,3.4-.13,1.2-.1,2.37.1,3.5.13,1.2.48,2.32,1.05,3.35.57,1.07,1.32,1.95,2.25,2.65.43.37.92.68,1.45.95,4.67,1.77,8.75.75,12.25-3.05,3.47-3.8,4.43-8.1,2.9-12.9-1.2-3.8-3.67-6.17-7.4-7.1M211.57,158.87v.15c-.06.06-.1.13-.1.2v-.3c.06-.03.1-.1.1-.2v.15M152.62,51.47c-.93.6-3.62,2.63-8.05,6.1l-6.55,5.15c-3.03,2.77-5.57,6.43-7.6,11-1.33,3.03-2.75,7.37-4.25,13-2.4,8.53-3.85,15.23-4.35,20.1-.77,6.83-.43,14.37,1,22.6,1.4,7.47,3.62,13.83,6.65,19.1,3.87,6.5,8.72,11.02,14.55,13.55,7.33,3.17,15.12,3.17,23.35,0,6.9-2.67,13.18-7.38,18.85-14.15,8.63-10.13,13.83-22.05,15.6-35.75,1.77-13,.18-25.95-4.75-38.85-3.3-8.67-7.53-15.02-12.7-19.05-5-4.07-10.83-6.2-17.5-6.4-5.3-.1-10.05,1.1-14.25,3.6M140.77,106.72c.43-6.2,1.87-15.37,4.3-27.5.23-.97.52-1.57.85-1.8.07-.07.47-.27,1.2-.6,1.73-.57,3.87-2.12,6.4-4.65,2.5-2.53,4.58-4.08,6.25-4.65,1.27-.37,2.92-.55,4.95-.55,2.7,0,4.57.18,5.6.55,2.07.83,3.87,2.67,5.4,5.5,1.57,2.73,3.05,6.42,4.45,11.05,1.4,5.07,2.22,9.65,2.45,13.75.47,6.77-.38,13.43-2.55,20-2.13,6.67-5.37,12.58-9.7,17.75-3.13,3.87-6.32,6.43-9.55,7.7-2.03.83-4.07,1.18-6.1,1.05-2.2-.13-4.1-.8-5.7-2-2.13-1.63-3.83-4.32-5.1-8.05-2.73-7.9-3.78-17.08-3.15-27.55M43.12,63.57c2.07-.63,4.22-1.33,6.45-2.1,11.07-3.37,20.83-6,29.3-7.9.53,27.17,1.15,47.95,1.85,62.35,1.43,30.33,4.08,57.4,7.95,81.2,1.07,6.37,2.93,10.63,5.6,12.8,1.97,1.47,4.25,2.07,6.85,1.8,2.63-.2,4.78-1.22,6.45-3.05,1.83-2.07,2.78-4.85,2.85-8.35.07-2.33-.32-5.5-1.15-9.5-4.17-20.57-7.12-48.6-8.85-84.1-1.07-22.9-2.1-41.68-3.1-56.35,13.1-1.97,28.42-3.43,45.95-4.4,2.7-.17,4.72-.38,6.05-.65,2.2-.43,4.03-1.13,5.5-2.1,2.97-1.97,4.62-4.65,4.95-8.05.13-1.63-.15-3.22-.85-4.75-.7-1.57-1.72-2.83-3.05-3.8-1.47-1-3.27-1.63-5.4-1.9-1.47-.2-3.5-.23-6.1-.1-17.13.9-33.42,2.62-48.85,5.15-.27-2.93-.55-5.5-.85-7.7-.63-5.07-1.37-9.43-2.2-13.1-.5-2.1-1.3-3.4-2.4-3.9-1.5-.63-3.17.03-5,2-2.87,3.17-4.73,7.4-5.6,12.7-.57,3.1-.85,7.45-.85,13.05-12.47,2.5-24.3,5.62-35.5,9.35-4.63,1.47-9.13,3.05-13.5,4.75-3.17,1.2-6.05,2.43-8.65,3.7-4.17,1.97-7.6,3.93-10.3,5.9-2.67,1.97-4.48,3.97-5.45,6-.57,1.33-.85,2.65-.85,3.95.07,1.47.52,2.7,1.35,3.7,2.2,2.73,6.43,3.15,12.7,1.25.83-.23,1.68-.48,2.55-.75,5.6-1.77,12.98-4.13,22.15-7.1M355.37,64.77c.27.83.53,1.63.8,2.4-1.6,5.63-2.97,11.3-4.1,17-.7,3.83-1.23,7.4-1.6,10.7-.33,2.73-.62,6.82-.85,12.25-.33,12.13.27,27.57,1.8,46.3.23,2.67.7,4.57,1.4,5.7.9,1.6,2.33,2.58,4.3,2.95,2,.43,3.7.08,5.1-1.05,2.4-1.9,3.35-5.72,2.85-11.45-.9-11.1-1.75-25.03-2.55-41.8l-1.15-22.3c-.07-1.33-.13-2.6-.2-3.8,2.03,4.63,4.92,10.08,8.65,16.35,3.4,5.7,6.85,11.02,10.35,15.95,2.77,3.97,5.9,8.27,9.4,12.9,3.3,4.5,6.43,6.8,9.4,6.9,2.6,0,4.62-1.07,6.05-3.2,1.47-2.03,1.88-4.32,1.25-6.85-.27-1-.75-2.1-1.45-3.3,1.27-3.23,2.95-7.03,5.05-11.4,3.43-7.4,5.72-12.43,6.85-15.1,1-2.6,1.88-4.85,2.65-6.75-.43,15.27-.57,30.55-.4,45.85,0,8.1.38,14.85,1.15,20.25.43,3.77,1.25,7.62,2.45,11.55,1.1,3.6,2.43,6.2,4,7.8,1.07,1.13,2.33,1.88,3.8,2.25,1.6.4,3.03.28,4.3-.35,1.93-.97,3.13-2.75,3.6-5.35.17-1.27.13-3.5-.1-6.7-1.27-11.67-1.93-29.83-2-54.5-.07-23.87-.88-42.03-2.45-54.5-.7-5.1-2.45-7.88-5.25-8.35-.93-.17-1.92,0-2.95.5-.93.5-1.72,1.2-2.35,2.1-.57.93-1.08,2.22-1.55,3.85-.8.13-1.62.37-2.45.7-2.77,1.27-5.48,3.98-8.15,8.15-2.33,3.87-4.55,8.38-6.65,13.55-1.13,3.1-2.78,7.88-4.95,14.35l-2.15,6.85c-.77,2.27-1.53,4.77-2.3,7.5-.3,1.33-.58,2.65-.85,3.95-2.47-3.27-5-6.87-7.6-10.8-4.1-5.93-7.67-11.57-10.7-16.9-2.67-4.87-4.7-8.47-6.1-10.8-2.53-4.07-5.07-7.33-7.6-9.8-1.57-1.43-2.98-2.1-4.25-2-1.73.33-2.78,1.52-3.15,3.55-.13.93.08,2.57.65,4.9M319.02,5.57c-1.2,1.43-2.23,3.93-3.1,7.5-.97,3.97-1.8,8.07-2.5,12.3-7.77.6-16.4,1.27-25.9,2-9.87.9-16.98,1.63-21.35,2.2-7.9,1.13-14.83,2.72-20.8,4.75-1.57.5-2.95,1.1-4.15,1.8-3.63,1.9-5.45,4.33-5.45,7.3,0,1.7.63,3.25,1.9,4.65.97,1.07,2.15,1.9,3.55,2.5.23.1.52.18.85.25,2.2.7,5.65.8,10.35.3,19.23-2.23,38.62-3.98,58.15-5.25-.1,1.03-.18,2.05-.25,3.05-.97,10.13-1.6,22.28-1.9,36.45-.97,41.07.45,82.07,4.25,123,.5,5.4,1.58,9.23,3.25,11.5,1.2,1.77,2.83,3.03,4.9,3.8,2.17.77,4.23.8,6.2.1,1.77-.57,3.25-1.7,4.45-3.4,1.13-1.6,1.9-3.42,2.3-5.45.5-2.57.37-6.42-.4-11.55-3.6-26.13-5.43-55.68-5.5-88.65-.07-16.53.5-39.82,1.7-69.85,17.97-.97,36.1-1.52,54.4-1.65,3.8-.07,6.77-.35,8.9-.85,3.17-.8,5.55-2.25,7.15-4.35,1.3-1.83,1.83-4.02,1.6-6.55-.27-2.47-1.28-4.47-3.05-6-2.33-2.07-6.5-3.1-12.5-3.1-14.83-.07-31.27.43-49.3,1.5-2,.13-4.12.27-6.35.4.07-3.17.1-5.45.1-6.85-.07-3.03-.38-5.75-.95-8.15-.5-2.73-1.55-4.57-3.15-5.5-1.13-.63-2.42-.77-3.85-.4-1.4.37-2.58,1.1-3.55,2.2M806.92,34.87c-.4,2.8-.68,7.08-.85,12.85l-2.55,84.15c-.13,5.07-.37,8.87-.7,11.4-.37,2.73-.52,4.6-.45,5.6,0,2.1.5,3.78,1.5,5.05.9,1.2,2.2,2.02,3.9,2.45,1.57.43,3.18.47,4.85.1,2.33-.57,5.18-2.05,8.55-4.45l23.25-16.15c2.63-1.9,4.43-3.48,5.4-4.75,1.7-2.33,2.2-4.58,1.5-6.75-.43-1.2-1.22-2.2-2.35-3-1.13-.83-2.4-1.32-3.8-1.45-2.23-.3-4.87.12-7.9,1.25-6.27,2.13-12.05,5.52-17.35,10.15,1.53-18.37,2-43.23,1.4-74.6-.17-7.47-.5-13.25-1-17.35-.77-6.4-2.1-12.03-4-16.9-.7-1.6-1.47-2.47-2.3-2.6-1.4-.3-2.6.58-3.6,2.65-1.7,3.5-2.87,7.62-3.5,12.35M780.62,17.97c-3.73-1.43-7.53-1.65-11.4-.65-3.4.83-6.82,2.48-10.25,4.95-2.47,1.83-5.32,4.42-8.55,7.75-8.83,9.43-16.45,19.88-22.85,31.35-6.4,11.4-11.27,23.33-14.6,35.8-4.2,15.1-4.62,27.78-1.25,38.05,2.07,6.4,5.6,11.75,10.6,16.05,5.27,4.6,11,6.93,17.2,7,9.37.07,19.05-5.15,29.05-15.65,9.1-9.5,18.82-23.05,29.15-40.65,2.13-3.67,3.33-6.57,3.6-8.7.23-1.7.07-3.32-.5-4.85-.57-1.63-1.52-2.83-2.85-3.6-1.2-.77-2.55-1.08-4.05-.95-1.53.07-2.93.48-4.2,1.25-1.83,1-3.92,2.98-6.25,5.95-.33.43-5.75,8.1-16.25,23-6.43,9.17-12.5,16.18-18.2,21.05-4.63,3.87-8.65,5.23-12.05,4.1-3.03-1.1-5.22-4.02-6.55-8.75-2.67-9.17-1.82-20.87,2.55-35.1,7.8-25.5,19.77-44.55,35.9-57.15,3.27-2.67,6.1-3.78,8.5-3.35,1.33.2,3.43,1.38,6.3,3.55,1.27,1,2.4,1.33,3.4,1,.83-.37,1.43-1.32,1.8-2.85,1.03-4.4.93-8.1-.3-11.1-1.37-3.4-4.02-5.9-7.95-7.5M567.72,50.27c-1.27-1.4-2.85-2.28-4.75-2.65-2.4-.57-5.97-.22-10.7,1.05-7.23,2.07-14.27,4.43-21.1,7.1-6,2.27-15.37,6.32-28.1,12.15-6.27,2.9-10.75,5.2-13.45,6.9-2.03,1.23-4.28,2.77-6.75,4.6-1.83,1.3-2.95,2.47-3.35,3.5-.57,1.4-.4,2.82.5,4.25.83,1.33,1.97,2.28,3.4,2.85,2.17.77,5.12.68,8.85-.25,4.37-1.1,11.07-3.42,20.1-6.95l15.95-6.35c-.23,1.9-.48,3.92-.75,6.05-.27,2.17-.48,4.27-.65,6.3-.97.87-1.92,1.93-2.85,3.2-6.53,8.3-11.92,14.43-16.15,18.4-6.63,6.2-13.4,10.38-20.3,12.55-3.93,1.27-7.67,1.68-11.2,1.25-4.07-.47-7.33-1.97-9.8-4.5-2.6-2.7-4.18-6.45-4.75-11.25-.43-4.27-.12-8.98.95-14.15,1.77-9.13,5.07-17.75,9.9-25.85,4.8-8.1,10.75-15.15,17.85-21.15,6.93-5.83,13.1-8.05,18.5-6.65,1.83.43,3,.6,3.5.5.77-.13,1.4-.58,1.9-1.35.43-.63.68-1.37.75-2.2,0-1.5-.57-2.98-1.7-4.45-1.9-2.4-4.5-4.07-7.8-5-3.1-.9-6.28-1-9.55-.3-5,1.07-10.52,4.13-16.55,9.2-7.27,6.27-13.58,13.38-18.95,21.35-5.47,7.97-9.68,16.48-12.65,25.55-3.23,9.93-4.43,18.95-3.6,27.05.57,4.67,1.83,9.03,3.8,13.1,2.1,4.37,4.85,7.97,8.25,10.8,5.43,4.57,12.02,7.03,19.75,7.4,6.63.47,13.65-.8,21.05-3.8,8.3-3.33,16-8.48,23.1-15.45,1.13-1.13,2.27-2.3,3.4-3.5-.43,3.97-.78,7.6-1.05,10.9-1.43,17.67-2.22,33.68-2.35,48.05-.13,7.77,1.6,12.75,5.2,14.95,1.9,1.17,4.02,1.43,6.35.8,2.37-.57,4.08-1.83,5.15-3.8.87-1.6,1.37-4.07,1.5-7.4l1.7-37.05c.83-17.13,1.35-30,1.55-38.6.37-13.37.3-25.47-.2-36.3l18.9-7.5c2.77-1.2,4.7-2.2,5.8-3,2-1.53,3.1-3.37,3.3-5.5.07-1.8-.57-3.42-1.9-4.85M610.72,46.67c-3.43-1.47-7.17-2.03-11.2-1.7-4.57.37-8.87,1.68-12.9,3.95-4.8,2.67-9.45,6.85-13.95,12.55-7.8,9.8-13.32,20.87-16.55,33.2-3.2,12.47-3.67,24.78-1.4,36.95,1.33,6.83,3.55,12.82,6.65,17.95,3.6,5.87,8.12,9.97,13.55,12.3,5.07,2.17,10.73,2.68,17,1.55,5.43-.97,10.93-3.07,16.5-6.3,16.2-9.47,29.62-25.68,40.25-48.65,1.97-4.27,2.85-7.7,2.65-10.3-.1-1.87-.7-3.53-1.8-5-1.2-1.6-2.65-2.52-4.35-2.75-2.4-.4-4.68.55-6.85,2.85-.93,1.07-2.28,3.22-4.05,6.45-5,9.87-11.23,18.95-18.7,27.25-7.33,8.1-14.62,13.6-21.85,16.5-4.67,1.9-8.52,2.12-11.55.65-2.53-1.27-4.67-4.05-6.4-8.35-3.8-9.67-4.75-20.1-2.85-31.3,1.73-9.93,5.57-19.78,11.5-29.55,2.8-4.67,5.65-7.95,8.55-9.85,2.67-1.7,6.12-2.93,10.35-3.7,3.97-.7,7.73-1.02,11.3-.95,1.63,0,2.77-.22,3.4-.65.83-.53,1.28-1.4,1.35-2.6.07-1-.17-2.07-.7-3.2-1.43-3.23-4.08-5.67-7.95-7.3M891.67,54.27c.4-3.7.4-8.52,0-14.45-.37-6.83-1.22-12.18-2.55-16.05-.83-2.13-1.92-3.93-3.25-5.4-1.63-1.63-3.4-2.48-5.3-2.55-1.33-.07-2.57.28-3.7,1.05-1.13.8-1.95,1.8-2.45,3-.63,1.53-.6,4.03.1,7.5,2.13,12.93.2,28.25-5.8,45.95-1.1,3.17-2.22,5.63-3.35,7.4-1.57,2.53-3.47,4.25-5.7,5.15-1.93-2.3-3.38-5.22-4.35-8.75-.7-2.53-1.23-5.85-1.6-9.95-.97-10.7-1.2-21.65-.7-32.85.13-2.53.05-4.4-.25-5.6-.43-2.1-1.45-3.55-3.05-4.35-1.27-.63-2.68-.67-4.25-.1-1.47.5-2.68,1.38-3.65,2.65-1.13,1.63-2.02,4.45-2.65,8.45-1.37,9.37-2.08,16.45-2.15,21.25,0,2.73.28,8.02.85,15.85.37,4.07.77,7.07,1.2,9,1.27,5.7,4,10.67,8.2,14.9,3.03,3.07,6.1,4.88,9.2,5.45,2.7.5,5.7.08,9-1.25,5.2-2.03,9.73-5.83,13.6-11.4,2.53-3.67,5.12-9.05,7.75-16.15,2.73-7.5,4.35-13.75,4.85-18.75M913.12,11.07c-1.77.87-3.03,2.67-3.8,5.4-1.97.3-3.2,1.08-3.7,2.35-.5,1.53-.02,3.08,1.45,4.65.23.27.52.53.85.8-1.6,10.43-3,24.03-4.2,40.8-.3,4.5-.62,8.73-.95,12.7-.93.53-1.75,1.23-2.45,2.1-1.13,1.53-1.58,3.08-1.35,4.65.27,1.77,1.22,3.32,2.85,4.65-.8,9.43-1.52,16.62-2.15,21.55-.7,5.37-1.88,13.43-3.55,24.2-1.27,9.43-1.77,17.53-1.5,24.3,0,.27.03.52.1.75-2.8.33-4.98,1.03-6.55,2.1-1.47.97-2.52,2.23-3.15,3.8-.63,1.7-.63,3.25,0,4.65.77,1.77,2.8,3.28,6.1,4.55,7.47,2.97,15.05,4.65,22.75,5.05,8.17.37,15.87-.72,23.1-3.25,7.53-2.63,14.08-6.77,19.65-12.4,5.8-5.9,9.75-12.52,11.85-19.85,2.67-9.77,2.13-19.67-1.6-29.7-3.43-9.2-9.13-17.37-17.1-24.5-3.67-3.37-7.37-6.03-11.1-8,0-.07.03-.12.1-.15,3.1-2.67,5.75-5.4,7.95-8.2,3.67-4.47,6.58-9.37,8.75-14.7,2.13-5.3,2.88-9.8,2.25-13.5-.3-2.47-1.22-5.02-2.75-7.65-3.17-5.83-7.58-10.68-13.25-14.55-5.7-3.87-11.85-6.2-18.45-7-.63-.07-1.38-.13-2.25-.2-.2-1.57-.58-2.77-1.15-3.6-.7-1.07-1.72-1.77-3.05-2.1-1.33-.37-2.57-.27-3.7.3M945.02,47.97c.07,2.4-1.2,5.63-3.8,9.7-2.13,3.37-4.03,5.9-5.7,7.6-2.33,2.53-5.68,5.18-10.05,7.95-2.33,1.4-4.37,2.67-6.1,3.8-.17-.07-.35-.1-.55-.1,1.07-16.43,1.8-32.5,2.2-48.2.13.07.25.1.35.1,6.73,1.57,12.65,4.57,17.75,9,3.87,3.37,5.83,6.75,5.9,10.15M917.42,96.02c.37-.13.73-.27,1.1-.4.57-.17,1.17-.38,1.8-.65,3,.63,5.32,1.3,6.95,2,6.4,2.6,12.03,7.47,16.9,14.6,4.17,6.2,6.47,12.37,6.9,18.5.53,7.6-1.48,13.78-6.05,18.55-1.4,1.37-3.23,2.82-5.5,4.35-3.67,2.53-7.05,4.37-10.15,5.5-4.13,1.47-9.35,2.13-15.65,2-1.23-.07-2.38-.13-3.45-.2,0-.27.03-.52.1-.75,2.9-21.77,5.25-42.93,7.05-63.5"/>
  </g>
</svg>